<svg width="509" height="301" viewBox="0 0 509 301" fill="none" xmlns="http://www.w3.org/2000/svg">
<path d="M499.954 244.267C491.205 213.413 508.238 180.908 490.774 151.67C485.227 142.385 476.562 134.211 469.28 125.531C458.286 112.426 450.381 98.0182 446.073 83.2351C443.256 73.5653 441.954 63.7182 437.976 54.207C426.942 27.8252 393.98 6.10238 357.696 1.30171C328.455 -2.56869 298.198 2.38443 274.285 13.5989C166.872 63.9671 110.912 40.1411 73.4147 57.519C49.9107 68.4115 38.3353 88.6657 31.3552 108.914C24.3766 129.162 21.5796 164.723 11.4354 187.627C-22.2502 263.675 27.0741 290.737 49.0676 298.694C49.8531 298.979 53.1713 299.374 53.9802 299.623L110.022 300.446C130.989 300.446 146.574 300.376 155.676 300.376C191.239 301.367 220.705 298.814 251.713 299.141C328.965 299.953 401.307 300.247 474.077 299.805C484.727 299.741 490.898 297.011 498.806 292.157C507.234 286.985 509.358 277.783 507.987 269.327C506.617 260.869 502.332 252.66 499.954 244.267Z" fill="#F9F5F3"/>
</svg>
