<svg width="509" height="302" viewBox="0 0 509 302" fill="none" xmlns="http://www.w3.org/2000/svg">
<path d="M499.954 244.267C491.205 213.413 508.238 180.908 490.774 151.67C485.227 142.385 476.562 134.211 469.28 125.531C458.286 112.426 450.381 98.0182 446.073 83.2351C443.256 73.5653 441.954 63.7182 437.976 54.207C426.942 27.8252 393.98 6.10238 357.696 1.30171C328.455 -2.56869 298.198 2.38443 274.285 13.5989C166.872 63.9671 110.912 40.1411 73.4147 57.519C49.9107 68.4115 38.3353 88.6657 31.3552 108.914C24.3766 129.162 21.5796 164.723 11.4354 187.627C-22.2502 263.675 27.0741 290.737 49.0676 298.694C49.8531 298.979 53.1713 299.374 53.9802 299.623L110.022 300.446C130.989 300.446 146.574 300.376 155.676 300.376C191.239 301.367 220.705 298.814 251.713 299.141C328.965 299.953 401.307 300.247 474.077 299.805C484.727 299.741 490.898 297.011 498.806 292.157C507.234 286.985 509.358 277.783 507.987 269.327C506.617 260.869 502.332 252.66 499.954 244.267Z" fill="#F9F5F3"/>
<g opacity="0.502">
<path opacity="0.502" d="M257.955 74.0444H312.492L337.543 22.0476H283.005L257.955 74.0444Z" fill="white"/>
<path opacity="0.502" d="M345.858 22.0476L320.808 74.0444H375.345L400.395 22.0476H345.858Z" fill="white"/>
<path opacity="0.502" d="M230.395 131.253H284.932L309.982 79.2542H255.445L230.395 131.253Z" fill="white"/>
<path opacity="0.502" d="M293.246 131.253H347.783L372.833 79.2542H318.295L293.246 131.253Z" fill="white"/>
</g>
<path d="M304.153 201.969C304.02 202.101 304.085 202.331 304.269 202.37C305.695 202.672 310.178 203.65 310.183 204.03C310.191 204.483 306.163 203.706 305.952 204.067C305.739 204.43 309.685 205.088 309.614 205.573C309.544 206.057 305.964 205.337 305.863 205.531C305.762 205.724 309.117 206.782 309.247 207.091C309.376 207.401 305.658 206.709 305.468 206.909C305.28 207.11 307.686 208.442 307.596 208.661C307.506 208.88 307.482 209.042 301.204 207.597L298.757 206.923L297.057 205.293L298.114 202.667C303.162 200.418 305.784 199.354 305.975 199.475C306.25 199.649 306.212 199.928 304.153 201.969Z" fill="#FFC0BB"/>
<path d="M272.993 168.275L279.967 195.958L299.112 201.955C298.826 205.621 298.7 207.445 298.734 207.421C298.787 207.387 273.299 207.642 270.515 205.435C268.659 203.965 267.473 193.243 266.957 173.272L272.993 168.275Z" fill="#BF9786"/>
<path d="M240.252 292.234L244.227 292.219C244.547 292.217 244.824 291.96 244.891 291.604C244.936 291.368 245.126 291.209 245.331 291.237L245.384 291.234C245.792 291.287 245.387 291.46 245.384 291.928L246.677 293.342L247.461 294.053C248.348 294.854 249.432 295.321 250.563 295.386L251.743 295.454C252.1 295.476 252.433 295.658 252.669 295.96L252.783 296.105C253.231 296.677 253.475 297.421 253.47 298.188L244.281 298.301C243.968 298.3 243.663 298.195 243.402 298.003L242.136 297.096L242.127 298.287L239.557 298.27L239.594 293.41C239.599 292.758 239.681 292.236 240.252 292.234Z" fill="#3C2340"/>
<path d="M242.131 298.547L239.56 298.57L239.557 298.256L242.128 298.233L242.131 298.547Z" fill="#07085B"/>
<path d="M253.473 298.446L243.918 298.531C243.881 298.531 243.851 298.502 243.851 298.464L243.85 298.217L253.47 298.132L253.473 298.446Z" fill="#07085B"/>
<path d="M266.596 292.234L270.57 292.219C270.891 292.217 271.168 291.96 271.235 291.604C271.28 291.368 271.47 291.209 271.675 291.237L271.728 291.234C272.135 291.287 271.731 291.46 271.728 291.928L273.021 293.342L273.805 294.053C274.691 294.854 275.776 295.321 276.906 295.386L278.087 295.454C278.443 295.476 278.776 295.658 279.013 295.96L279.126 296.105C279.574 296.677 279.819 297.421 279.814 298.188L270.625 298.301C270.312 298.3 270.007 298.195 269.746 298.003L268.48 297.096L268.47 298.287L265.9 298.27L265.938 293.41C265.942 292.758 266.025 292.236 266.596 292.234Z" fill="#3C2340"/>
<path d="M268.475 298.547L265.904 298.57L265.9 298.256L268.472 298.233L268.475 298.547Z" fill="#07085B"/>
<path d="M279.818 298.446L270.264 298.531C270.226 298.531 270.197 298.502 270.197 298.464L270.195 298.217L279.815 298.132L279.818 298.446Z" fill="#07085B"/>
<path d="M252.703 152.568C251.471 147.397 252.285 143.832 255.142 141.87C259.428 138.927 263.991 139.216 267.105 140.937C270.219 142.656 272.113 148.719 270.739 152.204L260.413 148.965L252.703 152.568Z" fill="#492D21"/>
<path d="M257.671 159.481L257.314 168.247L265.006 167.544L263.781 159.848L257.671 159.481Z" fill="#FFC0BB"/>
<path d="M264.361 163.509L263.779 159.848L257.67 159.481L257.546 162.518C258.808 163.671 261.037 164.825 264.361 163.509Z" fill="#F99893"/>
<path d="M268.643 153.109C268.221 154.088 268.514 155.155 269.296 155.493C270.079 155.829 271.056 155.309 271.477 154.331C271.899 153.352 271.607 152.285 270.824 151.947C270.042 151.611 269.065 152.131 268.643 153.109Z" fill="#F99893"/>
<path d="M268.247 158.875C268.502 158.455 268.718 158.007 268.894 157.538C269.39 156.278 269.656 154.936 269.793 153.763C269.822 153.511 269.868 153.262 269.916 153.013C270.112 152.008 270.13 150.941 269.916 149.837C269.223 146.287 266.224 143.563 262.625 143.224C257.773 142.766 253.68 146.522 253.586 151.263C253.076 150.966 252.497 150.89 251.984 151.106C250.998 151.524 250.62 152.862 251.142 154.096C251.664 155.329 252.886 155.991 253.873 155.572C254.011 155.515 254.134 155.437 254.247 155.347C254.577 159.39 257.822 162.569 261.788 162.583C263.727 162.59 265.499 161.837 266.846 160.594C266.937 160.522 267.032 160.437 267.13 160.339C267.567 159.905 267.934 159.407 268.247 158.875Z" fill="#FFC0BB"/>
<path d="M263.676 151.382C263.712 151.854 263.735 152.314 263.778 152.764C263.828 153.204 263.897 153.674 264.087 153.977L264.124 154.025C264.138 154.042 264.142 154.052 264.17 154.084C264.216 154.142 264.269 154.189 264.303 154.257C264.379 154.382 264.437 154.529 264.444 154.683C264.469 154.996 264.317 155.282 264.119 155.461C263.713 155.835 263.17 155.891 262.713 155.799C263.17 155.698 263.604 155.52 263.848 155.209C263.96 155.054 264.032 154.884 263.998 154.728C263.985 154.652 263.956 154.578 263.908 154.508C263.89 154.472 263.853 154.442 263.827 154.406L263.764 154.332L263.694 154.243C263.536 153.997 263.478 153.745 263.439 153.5C263.405 153.254 263.399 153.013 263.411 152.773C263.436 152.297 263.517 151.83 263.676 151.382Z" fill="#F99893"/>
<path d="M260.971 152.125C260.97 152.523 260.646 152.843 260.249 152.842C259.853 152.842 259.531 152.518 259.532 152.12C259.534 151.723 259.857 151.401 260.254 151.403C260.652 151.404 260.973 151.728 260.971 152.125Z" fill="#333333"/>
<path d="M267.148 152.551C267.146 152.949 266.823 153.27 266.426 153.268C266.029 153.267 265.707 152.943 265.709 152.546C265.711 152.15 266.034 151.828 266.431 151.829C266.829 151.831 267.15 152.154 267.148 152.551Z" fill="#333333"/>
<path d="M261.803 150.463C261.432 150.365 261.085 150.294 260.741 150.256C260.399 150.219 260.064 150.224 259.742 150.278C259.42 150.336 259.098 150.418 258.792 150.574C258.628 150.633 258.488 150.737 258.323 150.815C258.165 150.902 258.02 151.011 257.843 151.098C257.925 150.928 258.023 150.76 258.14 150.605C258.271 150.463 258.393 150.306 258.558 150.194C258.863 149.94 259.255 149.785 259.654 149.718C260.055 149.653 260.469 149.693 260.842 149.824C261.212 149.958 261.555 150.164 261.803 150.463Z" fill="#07085B"/>
<path d="M264.983 150.681C265.263 150.412 265.626 150.243 266.009 150.151C266.393 150.061 266.81 150.065 267.202 150.174C267.591 150.285 267.962 150.481 268.238 150.767C268.39 150.894 268.496 151.065 268.61 151.219C268.709 151.386 268.788 151.565 268.852 151.742C268.686 151.636 268.552 151.512 268.404 151.408C268.249 151.314 268.121 151.195 267.964 151.118C267.678 150.93 267.367 150.813 267.052 150.722C266.738 150.633 266.407 150.591 266.061 150.591C265.716 150.593 265.363 150.625 264.983 150.681Z" fill="#07085B"/>
<path d="M253.705 151.374C253.389 151.102 253.109 150.978 252.868 150.998L253.07 148.486L253.845 146.97C255.871 144.247 256.919 142.851 256.991 142.783C257.098 142.682 259.425 141.355 259.568 141.286C259.663 141.241 260.802 141.378 262.983 141.697C266.811 140.897 268.406 141.501 267.768 143.508C266.811 146.518 262.622 148.111 262.406 147.979C262.858 147.527 263.104 146.664 263.146 145.388C260.187 148.624 254.579 151.014 253.705 151.374Z" fill="#492D21"/>
<path d="M265.488 156.838C265.326 157.741 264.489 158.441 263.463 158.469C262.436 158.495 261.565 157.839 261.356 156.947L265.488 156.838Z" fill="white"/>
<path d="M255.357 166.175L266.184 166.146L267.556 172.543L261.615 188.082C257.653 183.816 255.672 181.378 255.672 180.769C255.672 179.856 252.931 173 253.387 172.087C253.692 171.477 254.348 169.506 255.357 166.175Z" fill="#FFC0BB"/>
<path d="M275.062 210.391C272.007 214.988 267.427 220.602 261.321 227.232L265.543 294.045C269.619 294.485 272.358 294.165 273.758 293.082C274.827 250.855 275.261 223.292 275.062 210.391Z" fill="#492D21"/>
<path d="M273.325 212.953C273.311 211.976 275.095 214.859 275.063 214.078C274.594 203.258 266.947 202.384 252.119 211.457L247.446 210.475L238.863 293.776C242.586 294.597 245.514 294.597 247.645 293.776L261.319 228.047C264.581 226.649 268.584 221.618 273.325 212.953Z" fill="#492D21"/>
<path d="M244.966 224.685C244.841 224.544 244.61 224.595 244.56 224.777C244.171 226.182 242.922 230.597 242.542 230.58C242.09 230.559 243.11 226.588 242.762 226.353C242.413 226.118 241.517 230.017 241.036 229.917C240.557 229.817 241.495 226.289 241.307 226.177C241.12 226.064 239.86 229.348 239.543 229.458C239.226 229.569 240.144 225.899 239.955 225.698C239.767 225.497 238.291 227.818 238.078 227.716C237.863 227.612 237.703 227.579 239.527 221.4L240.349 218.998L242.079 217.4L244.636 218.615C246.574 223.791 247.478 226.471 247.345 226.656C247.153 226.921 246.878 226.863 244.966 224.685Z" fill="#FFC0BB"/>
<path d="M256.316 167.181C259.919 169.362 263.148 169.362 266.005 167.181C267.63 171.47 268.364 173.692 268.21 173.846C267.98 174.076 265.438 181.009 265.438 181.24C265.438 181.471 262.434 184.244 261.047 182.164C259.661 180.084 258.737 180.316 256.889 175.926C255.039 171.534 253.653 170.148 254.115 169.686C254.423 169.378 255.157 168.543 256.316 167.181Z" fill="#492D21"/>
<path d="M255.672 166.146C248.361 166.754 243.943 168.277 242.42 170.715C240.135 174.372 234.651 195.393 235.107 201.791C235.412 206.057 236.936 212.303 239.677 220.529C242.115 220.834 243.79 220.224 244.705 218.701C242.877 207.124 242.115 200.878 242.42 199.964C242.725 199.05 244.553 193.87 247.903 184.426L246.99 212.303C254.302 216.873 263.746 217.331 275.324 213.673C276.847 183.511 275.629 167.974 271.669 167.059L266.184 166.146L263.898 179.398L255.672 166.146Z" fill="#BF9786"/>
<path d="M335.592 159.6L335.575 161.005L335.415 164.497L342.289 163.592L343.038 162.573L343.098 159.92L343.324 157.435H338.755L335.592 159.6Z" fill="#FFC0BB"/>
<path d="M346.129 141.545C347.865 140.29 349.78 140.204 351.87 141.286C355.006 142.908 355.275 148.849 354.135 150.324C352.996 151.8 354.349 153.667 352.025 155.632C349.701 157.596 345.899 158.452 343.612 156.383C342.088 155.003 341.788 152.677 342.712 149.406L346.129 141.545Z" fill="#492D21"/>
<path d="M331.432 149.357C331.863 150.386 331.547 151.499 330.727 151.845C329.906 152.19 328.891 151.636 328.46 150.61C328.028 149.581 328.344 148.468 329.165 148.122C329.985 147.777 331.001 148.329 331.432 149.357Z" fill="#F99893"/>
<path d="M343.399 156.806C343.277 157.746 343.178 158.783 343.098 159.92C341.561 161.165 339.576 161.803 337.506 161.535C336.824 161.446 336.179 161.264 335.575 161.005C335.624 159.892 335.606 158.862 335.435 158.368C335.12 157.464 337.775 156.943 343.399 156.806Z" fill="#F99893"/>
<path d="M331.791 155.395C331.53 154.952 331.309 154.482 331.128 153.989C330.621 152.667 330.357 151.259 330.225 150.03C330.195 149.767 330.151 149.506 330.103 149.244C329.907 148.193 329.899 147.074 330.134 145.921C330.889 142.213 334.045 139.391 337.808 139.07C342.878 138.639 347.117 142.606 347.171 147.57C347.707 147.264 348.31 147.188 348.845 147.421C349.872 147.867 350.253 149.271 349.696 150.556C349.141 151.842 347.858 152.522 346.831 152.075C346.688 152.013 346.56 151.932 346.443 151.836C346.059 156.063 342.643 159.36 338.5 159.336C336.475 159.325 334.633 158.52 333.238 157.206C333.144 157.13 333.046 157.041 332.944 156.937C332.493 156.478 332.113 155.955 331.791 155.395Z" fill="#FFC0BB"/>
<path d="M339.255 149.113C339.253 149.561 339.613 149.925 340.059 149.929C340.506 149.932 340.87 149.571 340.873 149.123C340.876 148.675 340.515 148.311 340.068 148.308C339.622 148.306 339.258 148.667 339.255 149.113Z" fill="#333333"/>
<path d="M332.625 149.414C332.622 149.862 332.983 150.226 333.429 150.229C333.876 150.232 334.24 149.871 334.243 149.423C334.244 148.977 333.885 148.611 333.439 148.608C332.992 148.607 332.628 148.968 332.625 149.414Z" fill="#333333"/>
<path d="M336.719 147.682C336.735 147.944 336.751 148.204 336.752 148.465C336.757 148.725 336.754 148.984 336.74 149.243C336.724 149.502 336.701 149.761 336.649 150.011C336.601 150.26 336.528 150.511 336.391 150.713C336.373 150.736 336.357 150.764 336.337 150.784C336.317 150.808 336.299 150.828 336.273 150.854C336.25 150.879 336.226 150.904 336.206 150.932C336.183 150.96 336.163 150.988 336.144 151.018C336.068 151.134 336.015 151.271 336.002 151.413C335.973 151.699 336.1 151.979 336.29 152.17C336.48 152.368 336.724 152.499 336.976 152.576C337.231 152.653 337.496 152.681 337.755 152.667C337.626 152.657 337.497 152.642 337.37 152.617C337.244 152.592 337.119 152.556 336.999 152.509C336.761 152.418 336.539 152.281 336.374 152.094C336.209 151.909 336.105 151.666 336.138 151.428C336.152 151.31 336.195 151.195 336.262 151.095C336.279 151.069 336.296 151.046 336.317 151.022C336.334 150.997 336.355 150.976 336.377 150.954L336.446 150.878C336.471 150.853 336.489 150.823 336.509 150.795C336.589 150.679 336.643 150.553 336.687 150.425C336.73 150.297 336.761 150.167 336.783 150.036C336.83 149.775 336.849 149.51 336.852 149.247C336.859 148.722 336.81 148.197 336.719 147.682Z" fill="#F99893"/>
<path d="M338.517 147.794C338.876 147.583 339.251 147.421 339.635 147.306C340.019 147.196 340.416 147.143 340.808 147.163C341.004 147.171 341.2 147.202 341.391 147.247C341.488 147.266 341.581 147.298 341.678 147.326C341.724 147.34 341.771 147.36 341.818 147.376C341.864 147.393 341.911 147.409 341.958 147.43C342.326 147.586 342.676 147.796 343.02 148.032C342.757 147.707 342.429 147.432 342.054 147.227C341.867 147.122 341.668 147.038 341.461 146.981C341.253 146.92 341.038 146.883 340.822 146.874C340.39 146.853 339.954 146.931 339.56 147.094C339.363 147.174 339.175 147.275 338.999 147.39C338.825 147.508 338.657 147.639 338.517 147.794Z" fill="#07085B"/>
<path d="M335.26 147.942C335.106 147.799 334.929 147.684 334.744 147.583C334.557 147.483 334.362 147.399 334.157 147.339C333.749 147.211 333.309 147.174 332.881 147.233C332.667 147.262 332.455 147.318 332.255 147.398C332.052 147.474 331.862 147.577 331.685 147.695C331.33 147.934 331.029 148.239 330.797 148.586C331.119 148.32 331.449 148.079 331.802 147.889C331.844 147.864 331.89 147.844 331.936 147.824C331.981 147.804 332.024 147.779 332.071 147.76C332.163 147.724 332.253 147.684 332.348 147.656C332.535 147.594 332.726 147.546 332.922 147.521C333.311 147.465 333.709 147.482 334.103 147.556C334.496 147.636 334.884 147.763 335.26 147.942Z" fill="#07085B"/>
<path d="M330.242 141.481C331.136 137.784 334 135.76 338.833 135.411C350.094 135.684 348.774 145.63 348.477 147.281C348.148 147.219 347.702 147.25 347.171 147.57C346.949 147.704 346.77 147.844 346.625 147.982C345.284 147.639 344.785 145.456 344.052 144.428C343.058 143.031 339 143.96 337.401 143.009C336.333 142.374 335.724 141.534 335.57 140.487C331.607 141.303 329.753 143.823 330.005 148.046C329.831 148.017 329.638 148.015 329.426 148.043C329.17 146.971 329.442 144.784 330.242 141.481Z" fill="#492D21"/>
<path d="M334.785 153.757C335.028 154.589 336.036 155.189 337.22 155.149C338.404 155.108 339.368 154.44 339.553 153.593L334.785 153.757Z" fill="white"/>
<path d="M304.421 185.293L296.918 181.815L298.506 177.905C300.894 178.731 303.31 179.551 305.757 180.363L304.421 185.293Z" fill="#FFC0BB"/>
<path d="M321.217 295.654L327.684 291.612L333.302 294.977L331.352 296.382L324.563 297.374C322.794 297.156 321.87 297.021 321.792 296.968C321.715 296.917 321.522 296.478 321.217 295.654Z" fill="#FFC0BB"/>
<path d="M336.818 237.036C336.201 251.964 335.865 260.714 335.807 263.292C335.722 267.158 333.749 295.846 332.892 298.337L328.093 297.993C325.91 260.963 325.16 240.643 325.846 237.036C326.532 233.428 330.19 233.428 336.818 237.036Z" fill="#FFC0BB"/>
<path d="M321.217 295.654L319.578 296.721C318.819 297.206 319.162 298.384 320.063 298.384H332.508C332.947 298.384 333.303 298.028 333.303 297.587V294.977C325.015 297.622 322.151 296.817 321.217 295.654Z" fill="#838CCF"/>
<path d="M351.728 295.849L357.574 290.952L363.603 293.508L361.866 295.169L355.279 297.091C353.498 297.12 352.564 297.114 352.48 297.074C352.395 297.032 352.144 296.624 351.728 295.849Z" fill="#FFC0BB"/>
<path d="M359.061 235.637C360.516 250.506 361.395 259.221 361.693 261.78C362.144 265.62 364.164 294.306 363.66 296.892L358.857 297.215C351.569 260.845 348.015 240.824 348.195 237.157C348.374 233.489 351.997 232.982 359.061 235.637Z" fill="#FFC0BB"/>
<path d="M351.726 295.849L350.249 297.134C349.565 297.719 350.067 298.839 350.96 298.713L363.285 296.991C363.719 296.93 364.023 296.528 363.962 296.092L363.601 293.508C355.758 297.274 352.811 296.873 351.726 295.849Z" fill="#07085B"/>
<path d="M357.103 203.312L361.959 197.939L358.442 194.281L352.501 201.976C354.81 208.18 356.034 211.419 356.172 211.696C356.309 211.971 356.611 211.971 357.076 211.696C356.868 210.101 356.966 205.612 357.032 203.336C357.062 203.326 357.085 203.317 357.103 203.312Z" fill="#FFC0BB"/>
<path d="M329.234 196.67C324.957 201.455 322.638 211.523 322.274 226.874C321.91 242.224 322.129 252.663 322.929 258.192C334.666 261.055 348.707 259.782 365.052 254.373C361.026 225.347 356.054 205.886 350.138 195.99C343.242 191.876 336.275 192.103 329.234 196.67Z" fill="#DCDCDC"/>
<path d="M299.561 178.771C299.543 178.532 299.211 178.257 298.57 177.942C297.755 177.597 296.097 177.178 294.594 177.238C294.123 177.255 293.805 177.726 293.973 178.168L294.818 178.204C294.795 178.228 294.762 178.249 294.723 178.258C294.495 178.308 294.168 178.381 293.793 178.47L294.143 182.265C294.887 182.107 295.851 182.832 297.264 182.491L299.143 181.954C299.009 181.726 298.885 181.492 298.783 181.248C298.636 180.867 298.517 180.476 298.43 180.078C298.346 179.681 299.595 179.176 299.561 178.771Z" fill="#FFC0BB"/>
<path fill-rule="evenodd" clip-rule="evenodd" d="M293.328 177.869L294.473 177.979C294.867 178.016 295.224 178.27 295.441 178.667C295.62 178.993 295.688 179.39 295.63 179.774L295.574 180.154C295.464 180.891 295.114 181.546 294.601 181.971L294.37 182.162C293.95 182.511 293.473 182.752 292.972 182.872L291.964 183.11L293.328 177.869ZM293.216 182.046C293.558 181.965 293.882 181.8 294.17 181.563L294.325 181.433C294.675 181.143 294.913 180.698 294.988 180.196L295.027 179.938C295.066 179.675 295.019 179.406 294.898 179.183C294.75 178.912 294.507 178.74 294.238 178.715L293.46 178.64L292.53 182.207L293.216 182.046Z" fill="#BF9786"/>
<path d="M283.092 176.99L283.146 176.982L288.295 177.133L293.499 176.981L293.508 176.987C293.519 176.993 293.524 177.007 293.524 177.027C293.527 177.566 293.289 182.799 291.122 185.008C290.134 185.16 289.192 185.226 288.295 185.207C287.399 185.226 286.388 185.075 285.26 184.753C283.101 182.553 283.064 177.601 283.065 177.034C283.067 177.01 283.075 176.996 283.092 176.99Z" fill="#ECBCB7"/>
<path d="M283.065 177.034C283.067 177.01 283.075 176.996 283.092 176.99L283.146 176.982L288.295 177.133L288.608 177.124C287.508 177.807 286.486 178.812 286.433 180.202C286.349 182.455 287.661 184.656 289.582 185.117C289.16 185.176 288.711 185.216 288.295 185.207C287.399 185.225 286.388 185.075 285.26 184.753C283.101 182.553 283.064 177.601 283.065 177.034Z" fill="#BF9786"/>
<path d="M283.069 177.033C283.069 177.807 285.417 178.432 288.302 178.432C291.188 178.432 293.526 177.807 293.526 177.033C293.526 176.262 291.188 175.636 288.302 175.636C285.417 175.636 283.069 176.262 283.069 177.033Z" fill="#BF9786"/>
<path d="M292.881 177.693L291.264 178.128L289.984 178.32L288.245 178.363L286.542 178.276L285.443 178.138L284.476 177.911L283.791 177.623C283.673 177.515 283.572 177.424 283.486 177.349C284.233 176.82 286.146 176.444 288.385 176.444C290.655 176.444 292.587 176.831 293.307 177.372L292.881 177.693Z" fill="#4C2816"/>
<g style="mix-blend-mode:screen" opacity="0.502">
<path d="M284.117 177.183C284.128 177.152 284.151 177.13 284.176 177.124C285.587 176.741 286.954 176.604 288.183 176.601C288.187 176.601 288.19 176.601 288.193 176.601C288.197 176.601 288.201 176.601 288.204 176.601C289.433 176.604 290.8 176.741 292.211 177.124C292.236 177.13 292.259 177.152 292.27 177.183C292.29 177.239 292.282 177.334 292.09 177.444C291.562 177.624 291.015 177.657 290.476 177.534C289.913 177.407 289.132 177.279 288.193 177.251C287.255 177.279 286.474 177.407 285.911 177.534C285.372 177.657 284.825 177.624 284.297 177.444C284.105 177.334 284.097 177.239 284.117 177.183Z" fill="#4C2816"/>
</g>
<path d="M292.665 177.075C292.488 176.999 292.306 176.942 292.124 176.887C291.942 176.834 291.757 176.788 291.573 176.747C291.388 176.705 291.201 176.669 291.016 176.638C290.923 176.621 290.829 176.607 290.736 176.593C290.643 176.579 290.549 176.565 290.456 176.554C290.083 176.504 289.706 176.473 289.331 176.452C288.955 176.431 288.578 176.42 288.204 176.422C287.451 176.425 286.699 176.469 285.951 176.574C285.578 176.629 285.206 176.697 284.837 176.788C284.654 176.834 284.47 176.886 284.288 176.945C284.108 177.004 283.927 177.068 283.753 177.152C283.796 177.131 283.84 177.113 283.885 177.096C283.93 177.078 283.975 177.061 284.02 177.046C284.109 177.013 284.201 176.984 284.291 176.956C284.473 176.9 284.657 176.851 284.84 176.809C285.209 176.722 285.581 176.658 285.954 176.609C286.327 176.559 286.702 176.523 287.077 176.5C287.452 176.476 287.827 176.466 288.204 176.466C288.955 176.462 289.706 176.498 290.453 176.587C290.546 176.598 290.64 176.61 290.733 176.623C290.826 176.637 290.92 176.649 291.013 176.665C291.198 176.694 291.385 176.728 291.568 176.767C291.754 176.806 291.939 176.85 292.122 176.9C292.212 176.924 292.304 176.951 292.394 176.979C292.486 177.008 292.576 177.04 292.665 177.075Z" fill="white"/>
<path d="M295.981 178.801C295.981 179.107 295.407 179.355 294.697 179.355C293.988 179.355 293.414 179.107 293.414 178.801C293.414 178.496 293.988 178.249 294.697 178.249C295.407 178.249 295.981 178.496 295.981 178.801Z" fill="#FCB7B4"/>
<path d="M295.881 179.677C295.881 179.982 295.305 180.231 294.597 180.231C293.888 180.231 293.312 179.982 293.312 179.677C293.312 179.37 293.888 179.123 294.597 179.123C295.305 179.123 295.881 179.37 295.881 179.677Z" fill="#FCB7B4"/>
<path d="M295.787 180.647C295.787 180.952 295.211 181.201 294.503 181.201C293.794 181.201 293.22 180.952 293.22 180.647C293.22 180.341 293.794 180.094 294.503 180.094C295.211 180.094 295.787 180.341 295.787 180.647Z" fill="#FCB7B4"/>
<path d="M295.723 181.618C295.723 181.923 295.149 182.172 294.44 182.172C293.73 182.172 293.156 181.923 293.156 181.618C293.156 181.312 293.73 181.065 294.44 181.065C295.149 181.065 295.723 181.312 295.723 181.618Z" fill="#FCB7B4"/>
<path d="M371.382 183.138C369.685 177.415 356.637 162.478 352.079 161.701C349.04 161.183 346.243 161.393 343.688 162.332C340.585 164.304 337.69 164.595 335.006 163.204C334.291 163.084 333.41 163.108 332.367 163.276C326.654 168.291 325.158 173.91 327.877 180.131C328.719 186.34 329.171 191.853 329.235 196.67C330.431 199.225 334.02 200.421 340.002 200.259C345.985 200.098 349.363 198.674 350.14 195.991C350.851 184.222 351.708 177.384 352.71 175.475C359.08 180.584 362.33 183.429 362.459 184.011C362.652 184.885 357.462 194.488 355.717 196.622C356.525 198.414 358.304 199.631 361.052 200.27C369.07 192.665 372.514 186.954 371.382 183.138Z" fill="#492D21"/>
<path d="M332.366 163.276C330.039 163.649 326.626 164.976 324.045 169.267C321.167 174.053 318.241 177.966 315.266 181.004L304.839 179.84C303.998 182.493 303.788 184.416 304.209 185.612C309.285 188.651 313.294 189.686 316.237 188.717C319.179 187.746 323.059 184.885 327.876 180.131C325.157 173.91 326.654 168.291 332.366 163.276Z" fill="#492D21"/>
<path d="M424.624 245.862L428.392 299.715H426.508L420.542 246.446L424.624 245.862Z" fill="white"/>
<path d="M385.051 245.862L381.281 299.715H383.165L389.132 246.446L385.051 245.862Z" fill="white"/>
<path d="M441.07 190.62C420.992 190.026 410.301 189.774 409.002 189.867C407.702 189.961 406.453 192.095 405.25 196.273C399.386 218.035 396.511 229.214 396.627 229.813C396.746 230.412 394.009 237.722 388.42 251.744C393.241 251.616 395.758 251.616 395.971 251.744C396.291 251.937 423.936 249.372 424.321 249.115C424.705 248.858 426.113 244.048 426.177 243.793C426.22 243.622 426.945 237.294 428.353 224.81L429.44 214.487C432.214 208.58 433.622 205.618 433.664 205.599C433.728 205.573 437.568 197.813 437.824 197.428C438.08 197.043 442.047 192.747 442.176 192.363C442.26 192.106 441.893 191.524 441.07 190.62Z" fill="#FEE4CB"/>
<g style="mix-blend-mode:multiply" opacity="0.502">
<path d="M441.07 190.62C434.148 190.415 427.696 190.238 421.718 190.087C425.204 192.139 427.158 197.874 425.707 208.079C424.475 216.752 423.106 226.163 417.644 237.449C414.831 243.263 402.721 240.007 392.796 240.582C391.369 244.282 389.912 248.003 388.42 251.744C393.241 251.616 395.758 251.616 395.971 251.744C396.291 251.937 423.936 249.372 424.321 249.115C424.705 248.858 426.113 244.048 426.177 243.793C426.22 243.622 426.945 237.294 428.353 224.81L429.44 214.487C432.214 208.58 433.622 205.618 433.664 205.599C433.728 205.573 437.568 197.813 437.824 197.428C438.08 197.043 442.047 192.747 442.176 192.363C442.26 192.106 441.893 191.524 441.07 190.62Z" fill="#FEE4CB"/>
</g>
<path d="M382.916 252.893V252.892C382.852 251.862 383.628 250.975 384.655 250.905C387.874 250.686 394.833 250.188 401.992 249.51C415.715 248.208 420.675 247.142 422.452 246.585C423.065 246.392 423.535 245.895 423.692 245.271C424.174 243.353 424.456 239.372 424.692 236.041C425.588 223.403 427.066 202.564 440.051 191.122C440.861 190.408 442.109 190.536 442.767 191.393C443.366 192.173 443.263 193.288 442.524 193.937C430.695 204.325 429.336 223.478 428.427 236.307C427.908 243.62 427.589 247.209 425.991 248.88C425.219 249.686 423.787 251.184 402.923 253.189C395.521 253.9 388.234 254.423 384.907 254.648C383.872 254.718 382.98 253.931 382.916 252.893Z" fill="#E8B891"/>
<path d="M165.971 245.862L162.203 299.715H164.087L170.053 246.445L165.971 245.862Z" fill="white"/>
<path d="M205.546 245.862L209.314 299.715H207.43L201.464 246.445L205.546 245.862Z" fill="white"/>
<path d="M149.526 190.62C169.606 190.026 180.295 189.774 181.593 189.867C182.894 189.961 184.145 192.095 185.346 196.273C191.21 218.035 194.085 229.214 193.969 229.813C193.852 230.412 196.587 237.722 202.176 251.744C197.355 251.616 194.838 251.616 194.625 251.744C194.305 251.937 166.659 249.372 166.275 249.115C165.891 248.858 164.483 244.048 164.419 243.793C164.377 243.622 163.651 237.294 162.243 224.81L161.156 214.487C158.382 208.58 156.974 205.618 156.932 205.599C156.868 205.573 153.029 197.813 152.772 197.428C152.517 197.043 148.549 192.747 148.421 192.363C148.336 192.106 148.704 191.524 149.526 190.62Z" fill="#FEE4CB"/>
<g style="mix-blend-mode:multiply" opacity="0.502">
<path d="M149.526 190.62C156.448 190.415 162.9 190.238 168.878 190.087C165.393 192.139 163.438 197.874 164.889 208.079C166.121 216.752 167.492 226.163 172.952 237.449C175.765 243.263 187.875 240.007 197.802 240.582C199.227 244.282 200.686 248.003 202.176 251.744C197.355 251.616 194.838 251.616 194.625 251.744C194.305 251.937 166.659 249.372 166.275 249.115C165.891 248.858 164.483 244.048 164.419 243.793C164.377 243.622 163.651 237.294 162.243 224.81L161.156 214.487C158.384 208.58 156.974 205.618 156.932 205.599C156.868 205.573 153.029 197.813 152.772 197.428C152.517 197.043 148.549 192.747 148.421 192.363C148.336 192.106 148.704 191.524 149.526 190.62Z" fill="#FEE4CB"/>
</g>
<path d="M205.689 254.648C202.361 254.423 195.075 253.9 187.673 253.189C166.809 251.184 165.376 249.686 164.606 248.88C163.009 247.209 162.688 243.62 162.169 236.307C161.26 223.478 159.902 204.325 148.072 193.937C147.333 193.288 147.23 192.173 147.83 191.393C148.488 190.536 149.734 190.408 150.545 191.122C163.53 202.564 165.008 223.403 165.904 236.041C166.14 239.372 166.422 243.353 166.904 245.271C167.061 245.895 167.532 246.392 168.145 246.585C169.92 247.142 174.881 248.208 188.603 249.51C195.762 250.188 202.724 250.686 205.941 250.905C206.969 250.975 207.745 251.862 207.68 252.892V252.893C207.616 253.931 206.723 254.718 205.689 254.648Z" fill="#E8B891"/>
<path d="M470.834 273.941C470.973 272.71 471.139 271.45 471.712 270.351C472.409 269.014 473.632 268.05 474.701 266.988C476.699 265.003 478.236 262.558 479.159 259.898C479.872 257.841 480.228 255.648 481.211 253.706C481.812 252.52 482.63 251.459 483.312 250.318C484.608 248.148 485.43 245.662 486.838 243.597C487.223 243.032 488.114 243.327 488.084 244.009C487.99 246.16 487.175 248.283 485.77 249.917C485.233 250.544 484.609 251.109 484.198 251.826C483.454 253.128 483.522 254.715 483.434 256.212C483.271 259.025 482.476 261.801 481.126 264.274C479.692 266.901 477.622 269.242 476.856 272.136C476.281 274.304 476.452 276.736 475.227 278.615C475.095 278.819 474.943 279.024 474.91 279.264C474.892 279.4 474.913 279.536 474.934 279.671C474.962 279.847 474.989 280.021 475.016 280.196C475.295 281.97 475.583 284.228 474.055 285.557C472.995 286.477 471.633 286.497 470.872 285.275C470.106 284.044 470.174 282.242 470.231 280.856C470.325 278.549 470.573 276.235 470.834 273.941Z" fill="#BF9786"/>
<path d="M468.257 274.8C468.829 273.147 469.716 271.573 470.161 269.893C470.592 268.263 470.595 266.578 470.597 264.909C470.599 263.08 470.599 261.25 470.601 259.422C470.602 258.283 470.604 257.138 470.83 256.014C471.314 253.598 472.818 251.364 473.073 248.924C473.183 247.868 473.055 246.802 473.194 245.748C473.273 245.147 473.458 244.532 473.791 243.999C474.15 243.424 475.141 243.45 475.466 244.038C476.196 245.359 476.659 246.788 476.364 248.204C476.187 249.054 475.746 249.845 475.418 250.663C473.953 254.301 474.731 258.329 473.597 262.05C473.256 263.173 472.738 264.274 472.678 265.432C472.534 268.203 475.012 270.735 474.785 273.502C474.598 275.771 472.645 277.649 471.825 279.817C471.367 281.031 471.268 282.327 470.776 283.532C470.394 284.467 469.506 285.604 468.126 285.32C466.816 285.05 467.212 284.158 467.271 283.304C467.468 280.419 467.283 277.619 468.257 274.8Z" fill="#ECBCB7"/>
<path d="M465.063 276.572C465.121 275.724 465.296 274.872 465.151 274.032C465.029 273.322 464.684 272.653 464.437 271.965C463.977 270.676 463.862 269.324 463.75 267.984C463.547 265.547 463.344 263.112 463.141 260.675C462.825 256.888 462.508 253.091 461.644 249.362C461.404 248.327 461.135 247.205 461.703 246.26C461.822 246.061 462.058 245.849 462.316 245.915C462.499 245.963 462.59 246.129 462.657 246.277C464.546 250.484 465.259 255.011 467.367 259.147C467.873 260.138 468.46 261.112 468.721 262.164C469.035 263.428 468.862 264.733 468.822 266.022C468.764 267.871 468.984 269.734 469.606 271.511C469.933 272.441 470.369 273.35 470.547 274.307C470.77 275.499 470.583 276.714 470.443 277.915C470.176 280.224 470.085 282.547 470.172 284.865C470.223 286.229 468.819 286.193 467.889 285.355C467.239 284.77 467.244 284.127 467.022 283.398C466.291 281.004 464.885 279.167 465.063 276.572Z" fill="#BF9786"/>
<path d="M474.034 279.052C475.318 276.993 477.877 275.822 478.697 273.539C478.907 272.957 478.988 272.332 479.244 271.77C479.81 270.521 481.098 269.815 482.365 269.24C482.541 269.161 482.741 269.288 482.744 269.481C482.748 269.788 482.602 270.081 482.347 270.253C481.371 270.908 480.629 271.91 480.299 273.039C479.908 274.378 480.078 275.845 479.592 277.152C479.183 278.249 478.343 279.145 477.948 280.248C477.587 281.255 477.625 282.356 477.455 283.412C477.286 284.469 476.815 285.59 475.843 286.037C472.325 287.655 473.204 280.383 474.034 279.052Z" fill="#ECBCB7"/>
<path d="M459.403 278.372C459.458 279.369 459.306 280.413 459.695 281.329C459.945 281.917 460.395 282.392 460.763 282.912C462.058 284.74 462.528 287.329 464.517 288.358C464.649 288.426 464.796 288.487 464.941 288.459C465.145 288.422 465.278 288.226 465.36 288.036C465.848 286.901 465.301 285.623 464.976 284.432C464.92 284.224 464.872 283.992 464.972 283.799C465.082 283.589 465.33 283.498 465.502 283.332C465.841 283.002 465.809 282.456 465.742 281.987C465.574 280.815 465.336 279.654 465.032 278.509C464.86 277.861 464.661 277.207 464.286 276.65C463.874 276.037 463.275 275.579 462.714 275.098C460.237 272.971 458.339 270.175 457.277 267.087C457.046 266.418 456.842 265.713 456.367 265.19C455.891 264.666 455.044 264.396 454.466 264.803C454.055 265.092 455.741 267.798 455.937 268.123C456.499 269.05 456.507 269.857 456.824 270.887C457.602 273.411 459.254 275.669 459.403 278.372Z" fill="#BF9786"/>
<path d="M461.364 279.523C460.996 278.574 460.625 277.612 460.504 276.601C460.369 275.476 460.548 274.327 460.356 273.211C460.108 271.777 459.269 270.515 458.855 269.12C458.556 268.112 458.482 267.053 458.302 266.018C457.787 263.056 456.392 260.163 456.792 257.184C456.879 256.535 457.173 255.78 457.817 255.67C458.4 255.569 458.932 256.101 459.083 256.674C459.235 257.246 459.122 257.85 459.08 258.44C458.964 260.086 459.435 261.768 460.389 263.116C461.305 264.409 462.635 265.384 463.46 266.739C464.471 268.4 464.609 270.429 465.125 272.303C466.152 276.033 468.727 279.287 469.197 283.127C469.383 284.655 469.023 286.513 467.611 287.122C463.524 288.888 462.289 281.913 461.364 279.523Z" fill="#ECBCB7"/>
<path d="M468.508 282.33H469.162H477.888C478.529 282.33 479.002 282.929 478.853 283.553L475.434 297.94C475.328 298.388 474.928 298.704 474.469 298.704H469.162H468.508H463.202C462.742 298.704 462.342 298.388 462.235 297.94L458.816 283.553C458.668 282.929 459.142 282.33 459.783 282.33H468.508Z" fill="white"/>
<g opacity="0.302">
<path opacity="0.302" d="M477.074 282.33H477.888C478.529 282.33 479.002 282.929 478.853 283.553L475.434 297.94C475.328 298.388 474.928 298.704 474.469 298.704H469.162H468.508H463.202C462.742 298.704 462.342 298.388 462.235 297.94L462.109 297.407C468.511 293.825 474.756 288.836 477.074 282.33Z" fill="#C9EAFD"/>
</g>
<g opacity="0.1">
<path d="M372.884 5.07251V26.4608C371.444 26.6848 370.294 28.5936 370.215 30.955C365.643 32.9571 362.227 39.6479 362.132 47.636L383.744 47.8943C383.839 39.9061 380.585 33.1345 376.061 31.025C376.055 30.2986 375.944 29.6141 375.756 29.0043C375.46 28.1565 375.047 27.4782 374.513 26.9664C374.382 26.8575 374.247 26.7657 374.107 26.688V5.65898C373.701 5.46142 373.293 5.26541 372.884 5.07251Z" fill="#492D21"/>
</g>
<path opacity="0.2" d="M315.064 2.52894V40.9498C313.8 41.415 312.834 43.1915 312.763 45.3491C308.191 47.3497 304.775 54.042 304.68 62.0286L326.292 62.2868C326.387 54.3002 323.133 47.5286 318.609 45.4191C318.603 44.6927 318.492 44.0066 318.304 43.3984C318.008 42.5506 317.595 41.8708 317.061 41.3605C316.82 41.1583 316.56 41.0089 316.286 40.9218V2.17114C315.879 2.29093 315.47 2.41227 315.064 2.52894Z" fill="#492D21"/>
<path d="M396.059 179.071V186.547C396.059 186.963 395.851 187.342 395.521 187.518C394.523 188.053 392.287 188.931 390.199 187.532C389.918 187.344 389.753 186.989 389.753 186.616V179.863L396.059 179.071Z" fill="#FFC0BB"/>
<path d="M396.059 184.103V180.595L389.753 181.289V184.265C390.935 184.624 393.138 184.983 396.059 184.103Z" fill="#F99893"/>
<path d="M387.693 186.281C387.846 186.382 391.198 186.382 397.751 186.281C398.474 186.997 398.774 187.413 398.654 187.535C398.533 187.655 397.226 188.572 394.731 190.288L389.751 189.612L387.693 186.281Z" fill="#FFC0BB"/>
<path d="M359.35 190.142C356.762 207.005 357.317 217.165 361.016 220.618C364.714 224.073 370.052 221.211 377.027 212.036L379.262 203.043L369.49 206.103L365.954 210.46L364.126 186.992L359.35 190.142Z" fill="#FFC0BB"/>
<path d="M363.001 181.885L363.054 181.93L365.927 184.429C366.238 184.701 366.257 185.18 365.965 185.474L359.557 191.928C359.342 192.143 359.017 192.202 358.743 192.073C358.118 191.777 356.951 191.157 355.831 190.183C354.711 189.208 353.935 188.139 353.555 187.56C353.389 187.307 353.401 186.977 353.585 186.736L359.089 179.494C359.339 179.164 359.817 179.115 360.128 179.387L363.001 181.885Z" fill="#BF9786"/>
<path d="M360.222 177.861C360.536 177.651 360.886 177.635 361.101 177.82L364.195 180.511L364.246 180.556L367.342 183.248C367.555 183.434 367.588 183.783 367.425 184.125L366.875 185.261C366.721 185.58 366.308 185.665 366.04 185.433L362.605 182.445L362.554 182.4L359.117 179.413C358.851 179.18 358.878 178.758 359.172 178.561L360.222 177.861Z" fill="#F2DFDD"/>
<path d="M361.537 177.327C361.649 177.198 361.844 177.185 361.971 177.296L364.829 179.782L364.88 179.827L367.739 182.313C367.867 182.425 367.881 182.618 367.769 182.747L367.164 183.442L364.219 180.536L360.934 178.022L361.537 177.327Z" fill="#F7D8D8"/>
<path d="M365.027 186.86L362.059 189.746C362.008 189.795 361.933 189.808 361.869 189.777C361.449 189.573 359.839 188.752 358.265 187.384C356.692 186.015 355.656 184.536 355.396 184.147C355.357 184.088 355.359 184.012 355.401 183.954L357.846 180.614C357.913 180.524 358.047 180.522 358.114 180.611C359.362 182.261 363.185 185.587 364.993 186.594C365.091 186.648 365.108 186.782 365.027 186.86Z" fill="#ECBCB7"/>
<path d="M359.099 184.483C358.385 185.039 358.257 186.072 358.816 186.786C359.373 187.502 360.406 187.628 361.12 187.071C361.835 186.513 361.961 185.48 361.404 184.766C360.846 184.05 359.814 183.924 359.099 184.483Z" fill="#F3FDFF"/>
<path d="M360.976 284.253L359.973 292.317L354.578 292.736L354.662 285.258L360.976 284.253Z" fill="#FFC0BB"/>
<path d="M346.38 298.639L361.121 298.739C361.443 298.74 361.703 298.487 361.7 298.171L361.695 297.745C361.694 297.43 361.429 297.172 361.107 297.171L346.366 297.071C346.044 297.068 345.786 297.322 345.789 297.637L345.792 298.064C345.795 298.379 346.058 298.636 346.38 298.639Z" fill="white"/>
<path d="M360.918 292.406L361.484 296.769C361.553 297.308 361.251 297.795 360.846 297.791L346.829 297.697C346.465 297.695 346.104 297.469 345.908 297.049C345.709 296.62 345.663 295.973 346.284 295.108C347.522 293.38 351.643 292.983 353.647 291.513L360.176 291.558C360.542 291.56 360.856 291.919 360.918 292.406Z" fill="#EA426E"/>
<path d="M354.662 294.052C354.761 293.992 354.797 293.824 354.738 293.697C354.456 293.098 353.584 291.637 351.837 291.925C351.735 291.941 351.667 292.071 351.686 292.208L351.687 292.213C351.704 292.344 351.796 292.431 351.894 292.415C353.461 292.163 354.203 293.45 354.43 293.952C354.478 294.059 354.578 294.103 354.662 294.052Z" fill="white"/>
<path d="M353.211 294.604C353.312 294.543 353.346 294.377 353.287 294.249C353.007 293.649 352.134 292.19 350.386 292.476C350.285 292.493 350.218 292.624 350.237 292.759V292.764C350.254 292.896 350.345 292.981 350.443 292.966C352.01 292.714 352.754 294.002 352.981 294.504C353.029 294.612 353.127 294.654 353.211 294.604Z" fill="white"/>
<path d="M351.862 295.119C351.963 295.058 351.999 294.892 351.94 294.764C351.658 294.164 350.786 292.703 349.037 292.991C348.938 293.008 348.869 293.139 348.888 293.274V293.279C348.907 293.409 348.998 293.496 349.096 293.481C350.663 293.229 351.405 294.517 351.632 295.019C351.68 295.125 351.78 295.169 351.862 295.119Z" fill="white"/>
<g style="mix-blend-mode:multiply" opacity="0.302">
<g style="mix-blend-mode:multiply" opacity="0.302">
<path d="M357.11 297.766C358.184 294.25 360.085 293.874 361.125 293.963L361.489 296.769C361.558 297.307 361.256 297.794 360.852 297.791L357.11 297.766Z" fill="#E87B50"/>
</g>
</g>
<path d="M369.258 284.426L366.873 292.207L361.382 292.244L362.339 286.565L369.258 284.426Z" fill="#FFC0BB"/>
<path d="M353.496 298.782L368.236 298.882C368.559 298.885 368.817 298.63 368.814 298.315L368.811 297.889C368.808 297.573 368.545 297.317 368.222 297.314L353.482 297.214C353.16 297.213 352.9 297.466 352.903 297.782L352.906 298.207C352.91 298.522 353.174 298.781 353.496 298.782Z" fill="white"/>
<path d="M368.036 292.549L368.601 296.914C368.671 297.452 368.368 297.939 367.965 297.936L353.947 297.841C353.583 297.838 353.221 297.614 353.026 297.194C352.825 296.763 352.78 296.117 353.401 295.253C354.641 293.523 358.76 293.128 360.764 291.657L367.294 291.701C367.658 291.704 367.973 292.063 368.036 292.549Z" fill="#F76390"/>
<path d="M361.779 294.196C361.88 294.135 361.915 293.969 361.856 293.841C361.576 293.242 360.703 291.782 358.954 292.068C358.853 292.085 358.786 292.216 358.805 292.351V292.356C358.822 292.488 358.914 292.575 359.012 292.558C360.578 292.307 361.322 293.594 361.549 294.096C361.597 294.204 361.695 294.246 361.779 294.196Z" fill="white"/>
<path d="M360.327 294.749C360.428 294.688 360.464 294.522 360.403 294.392C360.123 293.794 359.251 292.333 357.502 292.621C357.401 292.636 357.334 292.768 357.353 292.904V292.908C357.371 293.039 357.463 293.126 357.561 293.111C359.128 292.859 359.87 294.147 360.097 294.649C360.145 294.755 360.243 294.799 360.327 294.749Z" fill="white"/>
<path d="M358.978 295.262C359.077 295.203 359.113 295.035 359.054 294.907C358.774 294.308 357.9 292.847 356.153 293.135C356.051 293.151 355.985 293.283 356.002 293.418L356.003 293.423C356.02 293.554 356.112 293.641 356.21 293.625C357.777 293.373 358.519 294.66 358.746 295.162C358.796 295.27 358.894 295.313 358.978 295.262Z" fill="white"/>
<g style="mix-blend-mode:multiply" opacity="0.302">
<g style="mix-blend-mode:multiply" opacity="0.302">
<path d="M364.225 297.911C365.298 294.395 367.197 294.019 368.238 294.107L368.602 296.914C368.672 297.452 368.369 297.939 367.966 297.936L364.225 297.911Z" fill="#E87B50"/>
</g>
</g>
<path d="M386.603 232.48C368.388 234.485 357.544 237.133 354.07 240.42C348.86 245.351 352.354 282.465 353.222 285.869C356.393 287.38 359.232 287.748 361.741 286.975C364.25 286.202 365.022 280.4 364.057 269.571C363.766 259.226 363.815 253.327 364.2 251.877C364.588 250.427 367.433 249.17 372.741 248.106C385.5 241.408 391.639 238.06 391.156 238.06C390.674 238.06 389.156 236.199 386.603 232.48Z" fill="#492D21"/>
<path d="M416.851 238.94C416.928 234.256 416.292 229.901 414.942 225.873L402.679 236.462L402.57 235.516C382.106 233.08 370.474 236.504 367.676 245.785C364.879 255.068 362.418 268.894 360.296 287.264C362.996 288.909 366.181 288.909 369.847 287.264C375.034 267.541 378.598 256.712 380.539 254.778C382.397 252.929 393.938 250.799 400.688 250.699C407.662 250.595 416.715 247.264 416.851 238.94Z" fill="#492D21"/>
<path d="M387.695 186.281C383.112 187.116 379.648 188.843 377.299 191.463C374.951 194.081 372.174 198.642 368.97 205.143C371.381 209.97 373.87 212.588 376.438 212.999L385.021 204.669L387.695 186.281Z" fill="#BF9786"/>
<path d="M387.694 186.281C383.427 189.803 380.989 193.155 380.379 196.338C379.771 199.522 380.007 212.051 381.092 233.927C384.341 237.449 390.844 238.634 400.596 237.483C409.738 229.084 414.412 224.784 414.615 224.58C414.819 224.377 412.753 220.203 408.418 212.054C413.362 210.788 416.443 209.341 417.663 207.717C416.173 192.681 409.536 185.536 397.751 186.281C394.839 188.855 391.486 188.855 387.694 186.281Z" fill="#BF9786"/>
<path d="M417.664 207.718C416.852 209.032 413.77 210.477 408.419 212.055C410.113 217.764 410.891 221.262 410.755 222.549C410.559 224.411 395.041 241.313 393.955 242.495L393.847 242.441C388.305 244.197 385.501 245.191 385.435 245.421C385.34 245.749 385.567 245.939 388.61 246.106C388.807 246.117 388.916 246.342 388.798 246.501C387.886 247.733 385.046 251.627 385.307 251.928C385.617 252.288 388.241 248.87 388.661 249.005C389.081 249.142 386.438 252.411 386.831 252.74C387.225 253.072 389.537 250.01 389.751 250.093C389.966 250.174 388.067 253.342 388.182 253.677C388.295 254.01 390.736 250.874 391.025 250.899C391.315 250.923 390.35 253.647 390.576 253.756C390.8 253.865 390.932 253.976 394.86 248.464L396.313 246.229L396.327 246.065C397.881 245.228 417.554 234.502 419.797 226.307C421.356 220.618 420.645 214.422 417.664 207.718Z" fill="#FFC0BB"/>
<path d="M358.941 179.775C359.699 180.517 359.956 181.484 359.515 181.933C359.075 182.383 358.104 182.146 357.347 181.404C356.589 180.664 356.333 179.698 356.773 179.248C357.213 178.799 358.184 179.035 358.941 179.775Z" fill="#FFC0BB"/>
<path d="M357.791 180.951C358.549 181.694 358.805 182.66 358.365 183.109C357.925 183.559 356.954 183.322 356.196 182.58C355.439 181.84 355.182 180.874 355.622 180.424C356.063 179.975 357.033 180.211 357.791 180.951Z" fill="#FFC0BB"/>
<path d="M356.637 182.129C357.393 182.869 357.649 183.835 357.209 184.285C356.769 184.734 355.798 184.498 355.042 183.758C354.285 183.015 354.028 182.049 354.468 181.6C354.908 181.15 355.879 181.387 356.637 182.129Z" fill="#FFC0BB"/>
<path d="M355.487 183.305C356.245 184.045 356.501 185.011 356.061 185.461C355.621 185.91 354.65 185.674 353.893 184.934C353.135 184.191 352.878 183.225 353.319 182.776C353.759 182.326 354.73 182.563 355.487 183.305Z" fill="#FFC0BB"/>
<path d="M388.314 177.76C388.45 178.723 389.305 179.501 390.39 179.571C391.476 179.643 392.423 178.983 392.68 178.047L388.314 177.76Z" fill="white"/>
<path d="M402.013 173.763C403.53 168.334 402.816 164.521 399.874 162.323C395.462 159.028 390.626 159.146 387.261 160.84C383.895 162.534 381.644 168.883 382.953 172.632L394.008 169.626L402.013 173.763Z" fill="#492D21"/>
<path d="M385.131 173.679C385.537 174.734 385.183 175.852 384.341 176.177C383.499 176.502 382.488 175.911 382.082 174.857C381.676 173.802 382.031 172.683 382.872 172.358C383.714 172.033 384.725 172.624 385.131 173.679Z" fill="#F99893"/>
<path d="M385.314 179.806C385.062 179.349 384.852 178.866 384.685 178.361C384.211 177.006 383.985 175.572 383.887 174.322C383.867 174.055 383.831 173.789 383.789 173.523C383.623 172.451 383.649 171.317 383.922 170.157C384.799 166.423 388.083 163.659 391.905 163.449C397.056 163.164 401.23 167.314 401.135 172.344C401.685 172.05 402.3 171.992 402.835 172.243C403.862 172.726 404.204 174.161 403.602 175.446C403 176.732 401.679 177.382 400.652 176.899C400.509 176.832 400.382 176.745 400.267 176.643C399.75 180.915 396.188 184.152 391.992 184.003C389.94 183.93 388.097 183.057 386.723 181.685C386.631 181.604 386.535 181.511 386.434 181.402C385.991 180.925 385.622 180.383 385.314 179.806Z" fill="#FFC0BB"/>
<path d="M390.457 172.055C390.4 172.553 390.356 173.04 390.291 173.514C390.221 173.978 390.129 174.472 389.916 174.787L389.874 174.836C389.858 174.855 389.853 174.864 389.822 174.897C389.773 174.956 389.715 175.004 389.675 175.074C389.589 175.204 389.524 175.359 389.508 175.521C389.469 175.851 389.619 176.16 389.821 176.359C390.233 176.77 390.807 176.854 391.292 176.775C390.813 176.649 390.362 176.443 390.116 176.103C390.004 175.935 389.936 175.75 389.978 175.588C389.993 175.507 390.028 175.429 390.082 175.358C390.102 175.319 390.144 175.289 390.172 175.253L390.241 175.176L390.319 175.085C390.496 174.832 390.569 174.566 390.62 174.307C390.666 174.048 390.683 173.794 390.68 173.539C390.673 173.033 390.606 172.534 390.457 172.055Z" fill="#F99893"/>
<path d="M393.287 172.952C393.273 173.374 393.601 173.727 394.021 173.743C394.442 173.758 394.794 173.428 394.81 173.007C394.825 172.585 394.495 172.232 394.075 172.216C393.655 172.202 393.302 172.531 393.287 172.952Z" fill="#333333"/>
<path d="M386.736 173.148C386.72 173.57 387.05 173.923 387.47 173.939C387.89 173.954 388.243 173.624 388.259 173.203C388.273 172.781 387.945 172.428 387.525 172.413C387.105 172.399 386.751 172.728 386.736 173.148Z" fill="#333333"/>
<path d="M392.475 171.156C392.871 171.069 393.242 171.008 393.607 170.981C393.97 170.955 394.323 170.975 394.663 171.045C394.999 171.12 395.337 171.221 395.654 171.398C395.825 171.467 395.969 171.583 396.14 171.672C396.305 171.772 396.454 171.895 396.637 171.994C396.557 171.809 396.46 171.627 396.342 171.459C396.211 171.303 396.087 171.131 395.917 171.006C395.605 170.725 395.197 170.544 394.779 170.456C394.357 170.368 393.917 170.395 393.518 170.519C393.12 170.645 392.75 170.851 392.475 171.156Z" fill="#07085B"/>
<path d="M389.104 171.257C388.82 170.96 388.441 170.765 388.042 170.652C387.639 170.541 387.199 170.527 386.779 170.627C386.363 170.728 385.962 170.921 385.659 171.212C385.492 171.342 385.374 171.518 385.246 171.677C385.136 171.85 385.044 172.035 384.968 172.221C385.15 172.116 385.294 171.99 385.456 171.885C385.624 171.792 385.764 171.671 385.932 171.596C386.245 171.409 386.578 171.297 386.914 171.213C387.25 171.132 387.603 171.101 387.967 171.117C388.333 171.131 388.704 171.181 389.104 171.257Z" fill="#07085B"/>
<path d="M401.004 172.456C401.349 172.183 401.65 172.061 401.905 172.094L401.794 169.423L401.038 167.783C399.008 164.814 397.955 163.291 397.883 163.216C397.773 163.104 395.366 161.601 395.219 161.523C395.119 161.472 393.91 161.57 391.591 161.817C387.574 160.811 385.861 161.385 386.454 163.538C387.341 166.767 391.707 168.631 391.941 168.499C391.482 168.003 391.256 167.077 391.266 165.724C394.26 169.275 400.094 172.039 401.004 172.456Z" fill="#492D21"/>
<path d="M388.92 178.038C389.175 178.976 390.124 179.639 391.208 179.572C392.293 179.505 393.151 178.732 393.287 177.771L388.92 178.038Z" fill="white"/>
<path d="M231.966 285.077L232.89 292.514L237.866 292.902L237.789 286.004L231.966 285.077Z" fill="#FFC0BB"/>
<path d="M245.428 298.345L231.832 298.437C231.535 298.438 231.297 298.205 231.3 297.914L231.303 297.522C231.305 297.231 231.549 296.993 231.846 296.99L245.44 296.898C245.738 296.896 245.976 297.131 245.974 297.422L245.971 297.814C245.968 298.105 245.725 298.343 245.428 298.345Z" fill="white"/>
<path d="M232.016 292.597L231.494 296.621C231.431 297.117 231.709 297.567 232.081 297.564L245.01 297.477C245.346 297.474 245.68 297.267 245.859 296.879C246.044 296.483 246.085 295.887 245.514 295.089C244.37 293.494 240.57 293.129 238.722 291.774L232.7 291.814C232.364 291.816 232.075 292.147 232.016 292.597Z" fill="#F9A435"/>
<path d="M237.79 294.116C237.698 294.06 237.664 293.906 237.72 293.789C237.978 293.235 238.784 291.888 240.395 292.152C240.489 292.168 240.551 292.289 240.534 292.414V292.418C240.517 292.54 240.433 292.619 240.342 292.605C238.897 292.373 238.213 293.56 238.003 294.024C237.958 294.122 237.867 294.162 237.79 294.116Z" fill="white"/>
<path d="M239.126 294.624C239.033 294.568 239 294.414 239.055 294.298C239.313 293.744 240.119 292.397 241.73 292.661C241.824 292.677 241.886 292.798 241.869 292.924V292.927C241.852 293.048 241.768 293.128 241.678 293.114C240.232 292.882 239.548 294.069 239.338 294.532C239.294 294.63 239.202 294.671 239.126 294.624Z" fill="white"/>
<path d="M240.371 295.098C240.278 295.042 240.245 294.888 240.3 294.771C240.558 294.218 241.364 292.87 242.975 293.135C243.069 293.15 243.131 293.272 243.114 293.398V293.401C243.097 293.522 243.013 293.602 242.923 293.588C241.477 293.356 240.793 294.543 240.583 295.006C240.539 295.104 240.448 295.145 240.371 295.098Z" fill="white"/>
<g style="mix-blend-mode:multiply" opacity="0.302">
<g style="mix-blend-mode:multiply" opacity="0.302">
<path d="M235.533 297.54C234.542 294.298 232.79 293.952 231.83 294.032L231.494 296.621C231.431 297.117 231.709 297.567 232.081 297.564L235.533 297.54Z" fill="#E87B50"/>
</g>
</g>
<path d="M224.325 285.236L226.525 292.414L231.59 292.448L230.708 287.208L224.325 285.236Z" fill="#FFC0BB"/>
<path d="M238.866 298.479L225.271 298.571C224.974 298.572 224.734 298.337 224.737 298.047L224.74 297.654C224.744 297.364 224.986 297.126 225.283 297.124L238.878 297.032C239.175 297.031 239.415 297.264 239.412 297.555L239.408 297.947C239.405 298.239 239.163 298.476 238.866 298.479Z" fill="white"/>
<path d="M225.453 292.729L224.932 296.755C224.868 297.251 225.148 297.699 225.52 297.698L238.447 297.609C238.783 297.608 239.118 297.399 239.297 297.013C239.482 296.615 239.522 296.019 238.951 295.221C237.808 293.627 234.007 293.263 232.159 291.906L226.138 291.947C225.802 291.95 225.512 292.281 225.453 292.729Z" fill="#FEB546"/>
<path d="M231.228 294.249C231.134 294.193 231.102 294.039 231.156 293.921C231.415 293.369 232.22 292.022 233.832 292.286C233.925 292.302 233.988 292.421 233.97 292.547V292.552C233.953 292.673 233.869 292.753 233.779 292.739C232.334 292.505 231.649 293.694 231.439 294.156C231.394 294.255 231.304 294.294 231.228 294.249Z" fill="white"/>
<path d="M232.564 294.756C232.47 294.701 232.438 294.547 232.492 294.429C232.752 293.877 233.556 292.53 235.168 292.794C235.261 292.81 235.323 292.929 235.306 293.055V293.06C235.289 293.181 235.205 293.261 235.115 293.247C233.67 293.013 232.985 294.202 232.775 294.664C232.732 294.763 232.64 294.802 232.564 294.756Z" fill="white"/>
<path d="M233.809 295.232C233.716 295.176 233.683 295.022 233.737 294.904C233.997 294.352 234.801 293.004 236.415 293.269C236.506 293.284 236.569 293.406 236.551 293.53V293.535C236.534 293.656 236.45 293.736 236.36 293.722C234.915 293.49 234.23 294.677 234.02 295.139C233.977 295.238 233.885 295.277 233.809 295.232Z" fill="white"/>
<g style="mix-blend-mode:multiply" opacity="0.302">
<g style="mix-blend-mode:multiply" opacity="0.302">
<path d="M228.97 297.674C227.979 294.431 226.228 294.084 225.268 294.167L224.932 296.755C224.868 297.251 225.148 297.699 225.52 297.698L228.97 297.674Z" fill="#E87B50"/>
</g>
</g>
<path d="M208.329 233.374C225.129 235.224 235.13 237.664 238.333 240.696C243.138 245.243 239.395 284.574 238.594 287.712C235.671 289.106 233.053 289.445 230.738 288.733C228.425 288.019 227.887 280.968 229.123 267.582C229.389 258.04 229.346 252.6 228.99 251.264C228.633 249.926 226.009 248.767 221.113 247.785C204.996 240.074 197.16 236.218 197.605 236.218C198.05 236.218 201.625 235.27 208.329 233.374Z" fill="#492D21"/>
<path d="M180.431 239.332C180.511 235.012 181.097 230.996 182.192 227.281L193.503 237.045L193.603 236.174C212.477 233.928 223.205 237.084 225.786 245.645C228.367 254.206 230.504 268.622 232.196 288.891C230.306 291.379 227.67 291.864 224.288 290.349C219.168 267.859 215.713 255.722 213.922 253.938C212.21 252.233 180.162 254.237 180.431 239.332Z" fill="#492D21"/>
<path d="M219.02 189.209C219.127 189.311 219.306 189.255 219.332 189.11C219.535 187.982 220.197 184.437 220.496 184.424C220.851 184.409 220.337 187.59 220.625 187.75C220.916 187.909 221.339 184.793 221.722 184.838C222.103 184.883 221.622 187.711 221.776 187.786C221.932 187.861 222.682 185.201 222.923 185.093C223.162 184.984 222.706 187.921 222.868 188.066C223.03 188.211 224.019 186.29 224.194 186.355C224.369 186.422 224.495 186.436 223.511 191.403L223.038 193.341L221.799 194.713L219.712 193.94C217.825 190.023 216.927 187.987 217.019 187.833C217.15 187.612 217.369 187.637 219.02 189.209Z" fill="#FFC0BB"/>
<path d="M210.401 208.9C212.974 214.993 216.461 218.073 220.861 218.14C225.262 218.208 226.175 209.712 223.602 192.649H218.627C218.156 201.722 217.801 206.292 217.562 206.361C217.324 206.428 216.156 203.923 214.057 198.845L210.401 208.9Z" fill="#FEAC1A"/>
<path d="M195.643 179.083L195.343 183.49L199.639 186.137L201.349 185.296L201.444 179.839L195.643 179.083Z" fill="#FFC0BB"/>
<path d="M201.382 183.387L201.443 179.839L195.642 179.083L195.518 180.909C196.653 181.828 198.637 183.06 201.382 183.387Z" fill="#F99893"/>
<path d="M189.671 172.431C187.792 167.745 188.195 164.298 190.88 162.089C194.908 158.776 199.604 158.455 202.994 159.662C206.383 160.871 209.045 166.308 208.059 169.752L197.117 168.055L189.671 172.431Z" fill="#333333"/>
<path d="M206.864 171.221C206.621 172.249 207.114 173.229 207.968 173.408C208.821 173.587 209.709 172.898 209.953 171.869C210.197 170.84 209.703 169.859 208.849 169.681C207.996 169.502 207.108 170.191 206.864 171.221Z" fill="#F99893"/>
<path d="M207.533 176.889C207.711 176.433 207.848 175.957 207.936 175.469C208.205 174.153 208.223 172.801 208.143 171.636C208.126 171.387 208.125 171.136 208.126 170.886C208.139 169.875 207.957 168.834 207.535 167.804C206.175 164.491 202.641 162.416 198.943 162.769C193.961 163.243 190.529 167.661 191.316 172.28C190.745 172.089 190.148 172.123 189.67 172.431C188.751 173.022 188.62 174.392 189.376 175.489C190.132 176.587 191.49 176.998 192.408 176.405C192.536 176.323 192.646 176.225 192.744 176.116C193.83 179.976 197.697 182.447 201.704 181.709C203.663 181.348 205.312 180.282 206.44 178.821C206.518 178.734 206.597 178.635 206.678 178.519C207.039 178.015 207.317 177.465 207.533 176.889Z" fill="#FFC0BB"/>
<path d="M199.242 172.346C199.321 172.761 199.033 173.162 198.601 173.242C198.17 173.321 197.756 173.049 197.678 172.635C197.599 172.22 197.887 171.818 198.318 171.739C198.75 171.658 199.164 171.93 199.242 172.346Z" fill="#333333"/>
<path d="M205.713 171.479C205.793 171.894 205.505 172.295 205.072 172.375C204.641 172.454 204.228 172.182 204.15 171.766C204.071 171.351 204.358 170.951 204.789 170.87C205.222 170.791 205.636 171.063 205.713 171.479Z" fill="#333333"/>
<path d="M199.737 170.994C199.354 170.858 198.962 170.773 198.572 170.732C198.18 170.696 197.788 170.715 197.411 170.802C197.222 170.843 197.038 170.905 196.861 170.98C196.77 171.015 196.685 171.06 196.598 171.102C196.553 171.124 196.512 171.151 196.47 171.174C196.427 171.197 196.385 171.221 196.344 171.249C196.013 171.457 195.709 171.714 195.417 171.992C195.616 171.645 195.887 171.331 196.215 171.076C196.378 170.948 196.557 170.835 196.749 170.745C196.938 170.654 197.141 170.581 197.349 170.536C197.763 170.441 198.198 170.438 198.608 170.522C198.813 170.561 199.01 170.623 199.202 170.699C199.392 170.779 199.575 170.872 199.737 170.994Z" fill="#333333"/>
<path d="M202.914 170.567C203.039 170.409 203.191 170.27 203.353 170.144C203.516 170.02 203.692 169.908 203.879 169.816C204.252 169.628 204.672 169.516 205.097 169.497C205.31 169.488 205.523 169.503 205.731 169.542C205.94 169.578 206.142 169.64 206.333 169.721C206.718 169.881 207.061 170.111 207.344 170.395C206.988 170.202 206.627 170.035 206.254 169.92C206.207 169.905 206.161 169.894 206.112 169.883C206.066 169.872 206.019 169.856 205.971 169.847C205.876 169.83 205.781 169.808 205.685 169.797C205.493 169.772 205.3 169.76 205.107 169.771C204.72 169.786 204.337 169.872 203.969 170.01C203.602 170.15 203.247 170.337 202.914 170.567Z" fill="#333333"/>
<path d="M191.318 172.28C194.925 170.29 197.592 168.036 199.314 165.516C199.433 166.754 199.309 167.619 198.94 168.109C199.16 168.212 202.902 166.172 203.427 163.148C203.777 161.132 202.201 160.739 198.701 161.966C196.612 161.915 195.524 161.918 195.44 161.974C195.313 162.056 193.29 163.615 193.202 163.725C193.142 163.8 192.33 165.273 190.764 168.147L190.226 169.705L189.672 172.431L191.318 172.28Z" fill="#333333"/>
<g style="mix-blend-mode:multiply" opacity="0.302">
<g style="mix-blend-mode:multiply" opacity="0.302">
<path d="M200.646 176.651C201.235 176.355 201.843 176.352 202.471 176.64C203.048 176.178 203.608 176.096 204.151 176.39C204.042 177.318 203.468 177.822 202.429 177.899C201.39 177.976 200.796 177.561 200.646 176.651Z" fill="#F99893"/>
</g>
</g>
<path d="M199.771 176.278C199.966 176.39 200.163 176.491 200.37 176.575C200.574 176.662 200.784 176.738 200.999 176.796C201.427 176.912 201.87 176.976 202.31 176.953C202.752 176.931 203.186 176.821 203.591 176.64C203.993 176.455 204.364 176.2 204.706 175.909C204.558 176.077 204.396 176.234 204.221 176.377C204.045 176.52 203.85 176.642 203.65 176.754C203.446 176.859 203.23 176.945 203.006 177.007C202.78 177.066 202.55 177.102 202.318 177.116C201.853 177.138 201.389 177.066 200.957 176.915C200.528 176.768 200.118 176.558 199.771 176.278Z" fill="#F99893"/>
<path d="M202.109 171.606C202.377 171.921 202.615 172.257 202.836 172.602C203.058 172.947 203.259 173.305 203.429 173.683C203.509 173.875 203.586 174.069 203.629 174.284C203.639 174.338 203.645 174.394 203.646 174.453C203.646 174.483 203.643 174.517 203.64 174.548C203.631 174.582 203.628 174.615 203.607 174.652C203.597 174.671 203.586 174.688 203.575 174.705L203.545 174.738C203.525 174.758 203.506 174.78 203.486 174.799C203.444 174.836 203.404 174.873 203.36 174.906C203.187 175.041 203.001 175.146 202.809 175.24C202.617 175.332 202.422 175.415 202.218 175.477C202.573 175.253 202.932 175.03 203.226 174.761C203.264 174.727 203.295 174.691 203.329 174.656L203.374 174.603L203.396 174.576C203.396 174.57 203.397 174.567 203.401 174.562C203.421 174.519 203.41 174.417 203.388 174.332C203.345 174.15 203.271 173.965 203.189 173.783C203.03 173.417 202.842 173.058 202.66 172.697C202.473 172.336 202.287 171.977 202.109 171.606Z" fill="#F99893"/>
<path d="M195.342 161.144C192.02 154.757 187.588 151.837 182.041 152.383C173.72 153.203 171.892 159.947 172.272 163.288C172.65 166.628 174.918 170.347 172.776 175.011C170.632 179.677 171.136 186.674 177.691 186.137C184.247 185.6 182.797 178.899 182.861 176.514C182.923 174.129 187.525 174.378 186.391 170.03C185.255 165.682 182.231 161.208 186.453 160.577C189.268 160.157 191.516 160.598 193.198 161.9L195.342 161.144Z" fill="#333333"/>
<path fill-rule="evenodd" clip-rule="evenodd" d="M220.712 183.165V184.591C222.386 184.671 223.725 186.057 223.725 187.751C223.725 189.478 222.335 190.885 220.616 190.913C220.314 191.971 219.34 192.744 218.187 192.744H214.799C213.404 192.744 212.274 191.615 212.274 190.22V183.165H220.712ZM222.644 187.751C222.644 186.654 221.79 185.752 220.712 185.676V189.828C221.79 189.75 222.644 188.849 222.644 187.751Z" fill="#70C0FD"/>
<g opacity="0.302">
<path opacity="0.302" d="M218.941 183.165H220.713V190.22C220.713 191.615 219.582 192.744 218.188 192.744H214.8C213.971 192.744 213.235 192.345 212.774 191.729C217.508 191.867 219.565 189.011 218.941 183.165Z" fill="#4188E4"/>
</g>
<path d="M212.273 183.244C212.273 183.681 214.167 184.034 216.503 184.034C218.838 184.034 220.731 183.681 220.731 183.244C220.731 182.807 218.838 182.454 216.503 182.454C214.167 182.454 212.273 182.807 212.273 183.244Z" fill="#E6F7FF"/>
<path d="M212.617 183.244C212.617 183.58 214.358 183.852 216.506 183.852C218.653 183.852 220.394 183.58 220.394 183.244C220.394 182.908 218.653 182.636 216.506 182.636C214.358 182.636 212.617 182.908 212.617 183.244Z" fill="#70C0FD"/>
<path d="M220.258 183.404C219.808 183.663 218.299 183.852 216.507 183.852C214.713 183.852 213.204 183.663 212.755 183.404C213.204 183.146 214.713 182.956 216.507 182.956C218.299 182.956 219.808 183.146 220.258 183.404Z" fill="#4C2816"/>
<g opacity="0.302">
<path opacity="0.302" d="M222.966 187.751C222.966 188.849 222.114 189.75 221.034 189.828V189.779C221.957 189.566 222.647 188.737 222.647 187.751C222.647 186.764 221.957 185.937 221.034 185.724V185.676C222.114 185.752 222.966 186.654 222.966 187.751Z" fill="#4188E4"/>
</g>
<g opacity="0.2">
<path opacity="0.2" d="M213.211 189.659C213.4 189.659 213.554 189.505 213.554 189.314V184.862C213.554 184.672 213.4 184.518 213.211 184.518C213.019 184.518 212.865 184.672 212.865 184.862V189.314C212.865 189.505 213.019 189.659 213.211 189.659Z" fill="white"/>
</g>
<path d="M212.825 189.891C212.903 190.019 213.089 190.011 213.151 189.877C213.645 188.843 215.216 185.598 215.507 185.663C215.854 185.742 214.52 188.676 214.758 188.907C214.995 189.135 216.222 186.24 216.58 186.383C216.936 186.528 215.729 189.131 215.858 189.243C215.987 189.356 217.412 186.987 217.672 186.946C217.932 186.904 216.72 189.619 216.838 189.801C216.956 189.983 218.416 188.389 218.567 188.497C218.717 188.608 218.837 188.656 216.58 193.188L215.617 194.935L214.06 195.933L212.249 194.639C211.459 190.363 211.128 188.161 211.257 188.037C211.44 187.86 211.646 187.942 212.825 189.891Z" fill="#FFC0BB"/>
<path d="M194.862 182.698C188.567 184.186 185.012 186.929 184.2 190.922C182.98 196.915 177.699 228.702 179.832 239.061C183.691 245.019 190.191 244.85 199.332 238.553C202.919 235.438 206.001 233.713 208.574 233.374L205.12 217.937L211.721 197.728C212.264 189.874 209.588 185.405 203.698 184.322C200.584 185.405 197.639 184.863 194.862 182.698Z" fill="#FCCC4F"/>
<path d="M186.891 189.043C188.358 187.662 190.755 188.116 191.712 189.89C194.066 194.258 200.777 206.653 201.362 207.071C201.836 207.409 205.187 202.831 211.417 193.334C213.651 193.419 215.275 193.869 216.291 194.681C212.906 212.961 208.166 221.391 202.073 219.969C195.082 218.337 188.683 206.068 186.062 200.392C184.874 197.814 184.555 194.902 185.266 192.155C185.577 190.949 186.082 189.804 186.891 189.043Z" fill="#FEAC1A"/>
<path d="M198.221 298.391H194.314V222.958H198.221V298.391Z" fill="#183658"/>
<path d="M235.079 298.391H231.173V222.958H235.079V298.391Z" fill="#183658"/>
<path d="M346.569 298.391H342.663V222.958H346.569V298.391Z" fill="#183658"/>
<path d="M383.433 298.391H379.525V222.958H383.433V298.391Z" fill="#183658"/>
<path d="M394.042 223.848H184.242C184.026 223.848 183.852 223.673 183.852 223.459V219.43C183.852 219.213 184.026 219.039 184.242 219.039H394.042C394.256 219.039 394.431 219.213 394.431 219.43V223.459C394.431 223.673 394.256 223.848 394.042 223.848Z" fill="white"/>
<g style="mix-blend-mode:multiply" opacity="0.2">
<g style="mix-blend-mode:multiply" opacity="0.2">
<path d="M394.045 223.848H341.69C341.476 223.848 341.3 223.673 341.3 223.459V219.43C341.3 219.213 341.476 219.039 341.69 219.039H394.045C394.26 219.039 394.434 219.213 394.434 219.43V223.459C394.434 223.673 394.26 223.848 394.045 223.848Z" fill="#E0A689"/>
</g>
</g>
<path opacity="0.1" d="M480.169 300.387C480.169 301.002 479.671 301.501 479.056 301.501H51.579C50.9642 301.501 50.4658 301.002 50.4658 300.387C50.4658 299.773 50.9642 299.274 51.579 299.274H479.056C479.671 299.274 480.169 299.773 480.169 300.387Z" fill="#492D21"/>
<path d="M256.446 199.219H229.606L221.998 217.777H209.069C208.708 217.777 208.414 218.07 208.414 218.432C208.414 218.793 208.708 219.086 209.069 219.086H247.526L256.446 199.219Z" fill="#ECBCB7"/>
<path d="M242.962 209.759C242.777 210.574 241.974 211.12 241.165 210.977C240.358 210.834 239.854 210.058 240.038 209.241C240.222 208.426 241.027 207.88 241.834 208.023C242.641 208.166 243.147 208.942 242.962 209.759Z" fill="black" fill-opacity="0.14"/>
<path d="M161.472 86.1289C161.472 96.6029 152.999 105.094 142.548 105.094C132.096 105.094 123.622 96.6029 123.622 86.1289C123.622 75.6564 132.096 67.1658 142.548 67.1658C152.999 67.1658 161.472 75.6564 161.472 86.1289Z" fill="#492D21"/>
<path d="M158.72 85.1135C159.28 94.063 152.494 101.774 143.562 102.336C134.631 102.897 126.935 96.0978 126.375 87.1467C125.814 78.1956 132.601 70.4859 141.532 69.9228C150.464 69.3612 158.158 76.1624 158.72 85.1135Z" fill="white"/>
<path d="M131.096 85.8103V86.2692H125.122V85.8103H131.096Z" fill="#142666"/>
<path d="M160.013 85.8103V86.2692H154.039V85.8103H160.013Z" fill="#142666"/>
<path d="M142.752 74.7749H142.293V68.7888H142.752V74.7749Z" fill="#142666"/>
<path d="M142.752 103.636H142.293V97.6501H142.752V103.636Z" fill="#142666"/>
<path d="M143.041 86.1292C143.041 86.403 142.819 86.6254 142.546 86.6254C142.273 86.6254 142.052 86.403 142.052 86.1292C142.052 85.8554 142.273 85.6345 142.546 85.6345C142.819 85.6345 143.041 85.8554 143.041 86.1292Z" fill="#142666"/>
<path d="M142.549 86.3519C142.492 86.3519 142.436 86.3301 142.392 86.2866L133.507 77.3822C133.421 77.2966 133.421 77.1566 133.507 77.0695C133.594 76.9824 133.734 76.9824 133.819 77.0695L142.705 85.9739C142.792 86.0594 142.792 86.1995 142.705 86.2866C142.661 86.3301 142.605 86.3519 142.549 86.3519Z" fill="#142666"/>
<path d="M145.404 95.1286C145.368 95.11 145.339 95.0773 145.325 95.0353L142.451 86.3409C142.423 86.2569 142.47 86.1667 142.554 86.1387C142.638 86.1107 142.73 86.1558 142.758 86.2398L145.63 94.9342C145.658 95.0182 145.611 95.1084 145.527 95.1364C145.485 95.1504 145.441 95.1473 145.404 95.1286Z" fill="#142666"/>
<path d="M118.958 147.441H114.442V129.133H118.958V147.441Z" fill="#492D21"/>
<path d="M140.337 147.227V143.63H158.608V147.227H140.337Z" fill="#ECBCB7"/>
<path d="M142.767 143.618V140.021H161.037V143.618H142.767Z" fill="#CCCCCC"/>
<path d="M138.987 140.099V136.502H157.258V140.099H138.987Z" fill="white"/>
<path d="M124.181 147.171H119.563V121.758H124.181V147.171Z" fill="white"/>
<path d="M113.903 147.171H109.65V124.56H113.903V147.171Z" fill="#BF9786"/>
<path d="M137.908 145.089L134.086 146.961L124.186 126.639L128.009 124.77L137.908 145.089Z" fill="#BF9786"/>
<path d="M162.266 149.111H106.277V147.043H162.266V149.111Z" fill="#DEDEDE"/>
<path d="M113.906 127.806H109.653V126.339H113.906V127.806Z" fill="white"/>
<path d="M117.969 137.667H115.437V130.682H117.969V137.667Z" fill="#756664"/>
<path d="M124.181 125.663H119.563V124.56H124.181V125.663Z" fill="#492D21"/>
<path d="M124.181 145.064H119.563V143.618H124.181V145.064Z" fill="#492D21"/>
<path d="M412.534 147.441H408.018V129.133H412.534V147.441Z" fill="#492D21"/>
<path d="M433.911 147.226V143.63H452.182V147.226H433.911Z" fill="#ECBCB7"/>
<path d="M436.344 143.617V140.021H454.615V143.617H436.344Z" fill="#CCCCCC"/>
<path d="M432.562 140.099V136.502H450.833V140.099H432.562Z" fill="white"/>
<path d="M417.756 147.171H413.139V121.758H417.756V147.171Z" fill="white"/>
<path d="M407.481 147.171H403.228V124.56H407.481V147.171Z" fill="#BF9786"/>
<path d="M431.481 145.089L427.659 146.961L417.759 126.639L421.583 124.77L431.481 145.089Z" fill="#BF9786"/>
<path d="M455.841 149.11H399.853V147.043H455.841V149.11Z" fill="#DEDEDE"/>
<path d="M407.482 127.806H403.229V126.339H407.482V127.806Z" fill="white"/>
<path d="M411.544 137.667H409.012V130.682H411.544V137.667Z" fill="#756664"/>
<path d="M417.756 125.663H413.139V124.56H417.756V125.663Z" fill="#492D21"/>
<path d="M417.756 145.064H413.139V143.617H417.756V145.064Z" fill="#492D21"/>
<path d="M269.297 92.8949H237.594V61.1897H269.297V92.8949Z" fill="white"/>
<path d="M266.046 89.6459H240.839V64.4385H266.046V89.6459Z" fill="#BF9786"/>
<path d="M435.99 98.9711H410.837V73.8181H435.99V98.9711Z" fill="white"/>
<path d="M433.412 96.3949H413.413V76.3958H433.412V96.3949Z" fill="#BF9786"/>
<path d="M227.762 65.1085H206.026V43.3733H227.762V65.1085Z" fill="white"/>
<path d="M225.538 62.881H208.257V45.6011H225.538V62.881Z" fill="#BF9786"/>
<path d="M401.762 107.499H384.793V90.5315H401.762V107.499Z" fill="white"/>
<path d="M400.025 105.761H386.534V92.2708H400.025V105.761Z" fill="#BF9786"/>
</svg>
