<svg width="614" height="370" viewBox="0 0 614 370" fill="none" xmlns="http://www.w3.org/2000/svg">
<g clip-path="url(#clip0)">
<path d="M62.6998 347.451C16.4337 291.821 4.60613 235.368 27.2171 178.099C49.3246 122.102 132.254 91.4184 179.054 122.102C198.987 135.17 262.939 122.542 297.084 68.4384C363.438 -36.6987 595.014 27.1518 552.854 188.574C532.453 266.692 614.946 269.531 572.912 347.616L62.6998 347.451Z" fill="white"/>
<path d="M114.07 210.116C109.404 204.682 109.26 200.24 113.638 196.788C116.837 194.856 119.74 193.968 122.346 194.124C118.652 200.31 117.402 203.71 118.597 204.324C119.793 204.94 121.603 201.346 124.028 193.544C131.305 192.839 136.113 193.047 138.455 194.172C132.234 199.253 129.778 201.945 131.089 202.248C132.399 202.551 136.414 200.209 143.135 195.22C149.907 196.37 153.114 199.008 152.753 203.134C152.212 209.319 148.71 211.23 147.171 211.065C145.632 210.901 136.631 207.471 136.435 208.73C136.239 209.988 141.658 214.101 145.452 214.293C140.675 219.551 136.701 221.422 133.528 219.904C128.767 217.628 128.361 214.021 125.394 212.668C122.424 211.315 119.893 211.317 121.116 212.697C122.342 214.077 127.713 215.418 129.411 218.414C131.107 221.411 132.63 223.432 127.705 222.692C122.779 221.953 114.773 218.355 114.42 214.235C114.187 211.49 114.07 210.116 114.07 210.116Z" fill="#F3E9E9"/>
<path d="M147.761 203.3C129.364 202.592 118.132 204.864 114.069 210.116C113.172 212.802 111.34 215.368 108.575 217.815L107.929 219.574C111.117 216.219 113.281 214.439 114.42 214.235C112.637 207.729 123.751 204.083 147.761 203.3Z" fill="#F3E9E9"/>
<path d="M108.575 217.815C104.626 220.73 102.515 224.791 102.24 230L103.315 230.097C104.576 224.711 106.346 220.964 108.627 218.859C110.907 216.752 110.888 216.404 108.575 217.815Z" fill="#F3E9E9"/>
<path d="M89.5999 199.865C97.022 195.717 99.0008 190.827 95.5363 185.196C92.7652 181.738 89.8949 179.565 86.9277 178.677C88.5104 187.072 88.5104 191.371 86.9277 191.568C85.343 191.766 84.7983 187.023 85.2935 177.342C77.4752 173.589 72.0319 171.859 68.9636 172.156C73.8147 180.355 75.4468 184.355 73.8642 184.158C72.2795 183.962 68.7675 179.713 63.3242 171.414C55.3078 169.933 50.6548 171.563 49.3693 176.306C47.44 183.418 50.5578 186.973 52.3385 187.418C54.1193 187.863 65.5507 187.715 65.2535 189.198C64.9564 190.679 57.2371 193.049 52.9328 191.717C56.0981 199.521 59.7607 203.224 63.9164 202.829C70.1521 202.238 72.0814 198.384 75.9421 198.087C79.8007 197.791 82.6214 198.829 80.6921 199.865C78.7628 200.903 72.23 200.207 69.1121 202.851C65.9964 205.496 63.4728 207.127 69.2607 208.312C75.0507 209.498 85.4421 208.757 87.5199 204.312C88.9066 201.348 89.5999 199.865 89.5999 199.865Z" fill="#F3E9E9"/>
<path d="M54.8623 178.529C75.6451 185.245 87.2251 192.357 89.6001 199.865C89.501 203.224 90.4894 206.831 92.5673 210.682V212.907C90.3903 207.867 88.7087 205.004 87.5201 204.312C92.1731 197.791 81.2865 189.198 54.8623 178.529Z" fill="#F3E9E9"/>
<path d="M92.5674 210.682C95.774 215.541 96.4632 220.927 94.635 226.841L93.399 226.509C94.1996 219.996 93.7601 215.1 92.0846 211.826C90.407 208.549 90.5679 208.168 92.5674 210.682Z" fill="#F3E9E9"/>
<path d="M107.313 191.282C97.5278 185.813 94.9197 179.367 99.4839 171.946C103.138 167.387 106.921 164.522 110.835 163.35C108.747 174.419 108.747 180.083 110.835 180.345C112.921 180.605 113.639 174.353 112.987 161.591C123.294 156.644 130.468 154.366 134.513 154.755C128.12 165.565 125.968 170.837 128.054 170.578C130.142 170.316 134.773 164.718 141.949 153.779C152.516 151.826 158.646 153.975 160.343 160.226C162.887 169.602 158.776 174.29 156.428 174.874C154.08 175.461 139.013 175.266 139.405 177.218C139.795 179.173 149.972 182.298 155.646 180.539C151.472 190.827 146.646 195.71 141.165 195.189C132.946 194.409 130.402 189.329 125.316 188.938C120.228 188.549 116.509 189.914 119.053 191.282C121.598 192.65 130.206 191.731 134.317 195.218C138.427 198.705 141.753 200.853 134.121 202.417C126.49 203.98 112.791 203.002 110.053 197.142C108.225 193.237 107.313 191.282 107.313 191.282Z" fill="#F3E9E9"/>
<path d="M153.102 163.155C125.706 172.009 110.443 181.385 107.313 191.282C107.443 195.71 106.139 200.464 103.398 205.541V208.472C106.269 201.83 108.487 198.054 110.053 197.142C103.92 188.549 118.272 177.218 153.102 163.155Z" fill="#F3E9E9"/>
<path d="M103.398 205.541C99.1746 211.945 98.2647 219.047 100.675 226.841L102.305 226.404C101.25 217.817 101.828 211.366 104.038 207.047C106.248 202.728 106.036 202.227 103.398 205.541Z" fill="#F3E9E9"/>
<path d="M106.817 252.2C122.695 252.2 135.567 239.351 135.567 223.502H78.0693C78.0693 239.351 90.941 252.2 106.817 252.2Z" fill="#F3E9E9"/>
<path d="M135.964 253.66H77.6719C77.6719 251.703 79.2607 250.119 81.2189 250.119H132.417C134.375 250.119 135.964 251.703 135.964 253.66Z" fill="#F3E9E9"/>
<path d="M136.218 224.381H77.124V223.502H136.218V224.381Z" fill="#9FC1F4"/>
<path d="M255.161 346.855L255.303 346.853C256.465 346.832 257.363 345.885 257.253 344.793L249.503 267.54L242.741 268.144L253.869 345.811C253.956 346.418 254.511 346.867 255.161 346.855Z" fill="#EDE3DE"/>
<path d="M180.543 346.855L180.4 346.853C179.239 346.832 178.341 345.885 178.45 344.793L186.201 267.54L192.962 268.144L181.834 345.811C181.748 346.418 181.191 346.867 180.543 346.855Z" fill="#EDE3DE"/>
<path d="M309.832 346.855L309.974 346.853C311.136 346.832 312.034 345.885 311.924 344.793L304.174 267.54L297.412 268.144L308.54 345.811C308.627 346.418 309.182 346.867 309.832 346.855Z" fill="#EDE2DE"/>
<path d="M182.85 256.305L169.095 188.497C167.329 179.317 174.949 170.922 184.846 171.149L211.375 171.752C220.526 171.962 228.483 178.075 231.027 186.854L251.152 256.305H182.85Z" fill="#FDD8B6"/>
<path d="M191.171 256.305L177.417 188.497C175.65 179.317 183.271 170.922 193.167 171.149L219.696 171.752C228.848 171.962 236.804 178.075 239.348 186.854L259.473 256.305H191.171Z" fill="#FEE4CB"/>
<path d="M186.684 268.671H291.643C293.751 268.671 295.476 266.949 295.476 264.844V260.132C295.476 258.027 293.751 256.305 291.643 256.305H182.851V264.844C182.851 266.949 184.576 268.671 186.684 268.671Z" fill="#E8B891"/>
<path d="M235.938 268.671H302.846C304.544 268.671 305.935 267.283 305.935 265.588V259.386C305.935 257.691 304.544 256.305 302.846 256.305H235.938C234.239 256.305 232.849 257.691 232.849 259.386V265.588C232.849 267.283 234.239 268.671 235.938 268.671Z" fill="#E8B891"/>
<path d="M151.533 255.421V257.734C151.533 258.544 151.269 259.205 150.949 259.205H66.3798C66.058 259.205 65.7959 258.544 65.7959 257.734V255.421C65.7959 254.612 66.058 253.95 66.3798 253.95H150.949C151.269 253.95 151.533 254.612 151.533 255.421Z" fill="#DED1D1"/>
<path d="M151.534 255.421V257.734C151.534 258.544 151.292 259.205 150.997 259.205H83.8577C83.5647 259.205 83.3232 258.544 83.3232 257.734V255.421C83.3232 254.612 83.5647 253.95 83.8577 253.95H150.997C151.292 253.95 151.534 254.612 151.534 255.421Z" fill="#DED1D1"/>
<path d="M130.127 346.558H70.0879V259.207H130.127V346.558Z" fill="#E4D9D8"/>
<path d="M146.955 346.558H86.9131V259.207H146.955V346.558Z" fill="#FAECEA"/>
<path fill-rule="evenodd" clip-rule="evenodd" d="M143.727 341.737H90.1396V261.674H143.727V341.737ZM90.7195 341.158H143.149V262.251H90.7195V341.158Z" fill="#DED1D1"/>
<path d="M143.438 288.737H90.4287V288.16H143.438V288.737Z" fill="#DED1D1"/>
<path d="M143.438 315.737H90.4287V315.161H143.438V315.737Z" fill="#DED1D1"/>
<path d="M122.366 266.838H112.53C112.051 266.838 111.661 266.447 111.661 265.971C111.661 265.495 112.051 265.104 112.53 265.104H122.366C122.843 265.104 123.233 265.495 123.233 265.971C123.233 266.447 122.843 266.838 122.366 266.838Z" fill="#DED1D1"/>
<path d="M122.366 293.241H112.53C112.051 293.241 111.661 292.852 111.661 292.376C111.661 291.898 112.051 291.509 112.53 291.509H122.366C122.843 291.509 123.233 291.898 123.233 292.376C123.233 292.852 122.843 293.241 122.366 293.241Z" fill="#DED1D1"/>
<path d="M122.366 320.767H112.53C112.051 320.767 111.661 320.378 111.661 319.9C111.661 319.424 112.051 319.035 112.53 319.035H122.366C122.843 319.035 123.233 319.424 123.233 319.9C123.233 320.378 122.843 320.767 122.366 320.767Z" fill="#DED1D1"/>
<path d="M387.233 102.145H349.177C347.429 102.145 345.999 100.717 345.999 98.9727V62.3081C345.999 60.5656 347.429 59.1382 349.177 59.1382H387.233C388.98 59.1382 390.41 60.5656 390.41 62.3081V98.9727C390.41 100.717 388.98 102.145 387.233 102.145Z" fill="#EBEBEB"/>
<path d="M385.583 100.281H350.825C349.228 100.281 347.924 98.979 347.924 97.3848V63.8982C347.924 62.304 349.228 61.0002 350.825 61.0002H385.583C387.178 61.0002 388.484 62.304 388.484 63.8982V97.3848C388.484 98.979 387.178 100.281 385.583 100.281Z" fill="#EBEBEB"/>
<path d="M367.285 64.926C367.285 64.4193 367.696 64.0073 368.203 64.0073C368.713 64.0073 369.124 64.4193 369.124 64.926C369.124 65.4326 368.713 65.8446 368.203 65.8446C367.696 65.8446 367.285 65.4326 367.285 64.926Z" fill="#BF9786"/>
<path d="M374.707 66.2235C374.955 65.7806 375.514 65.622 375.958 65.8672C376.403 66.1143 376.562 66.6725 376.315 67.1153C376.069 67.5602 375.508 67.7188 375.064 67.4737C374.62 67.2265 374.46 66.6684 374.707 66.2235Z" fill="#BF9786"/>
<path d="M381.067 71.2678C381.494 70.9918 382.063 71.1154 382.338 71.5418C382.614 71.9681 382.49 72.5366 382.063 72.8105C381.638 73.0865 381.069 72.963 380.792 72.5366C380.518 72.1102 380.639 71.5418 381.067 71.2678Z" fill="#BF9786"/>
<path d="M384.218 79.074C384.726 79.074 385.136 79.4839 385.136 79.9905C385.136 80.4993 384.726 80.9092 384.218 80.9092C383.708 80.9092 383.298 80.4993 383.298 79.9905C383.298 79.4839 383.708 79.074 384.218 79.074Z" fill="#BF9786"/>
<path d="M382.608 88.1326C382.967 88.4909 382.967 89.0718 382.608 89.4302C382.249 89.7885 381.667 89.7885 381.308 89.4302C380.949 89.0718 380.949 88.4909 381.308 88.1326C381.667 87.7742 382.249 87.7742 382.608 88.1326Z" fill="#BF9786"/>
<path d="M376.833 93.9141C377.192 94.2724 377.192 94.8533 376.833 95.2117C376.474 95.57 375.89 95.57 375.531 95.2117C375.172 94.8533 375.172 94.2724 375.531 93.9141C375.89 93.5557 376.474 93.5557 376.833 93.9141Z" fill="#BF9786"/>
<path d="M367.285 96.8924C367.285 96.3857 367.696 95.9758 368.203 95.9758C368.713 95.9758 369.124 96.3857 369.124 96.8924C369.124 97.4012 368.713 97.811 368.203 97.811C367.696 97.811 367.285 97.4012 367.285 96.8924Z" fill="#BF9786"/>
<path d="M361.672 66.2235C361.425 65.7806 360.865 65.622 360.42 65.8672C359.976 66.1143 359.817 66.6725 360.063 67.1153C360.31 67.5602 360.87 67.7188 361.315 67.4737C361.759 67.2265 361.918 66.6684 361.672 66.2235Z" fill="#BF9786"/>
<path d="M355.313 71.2676C354.886 70.9916 354.317 71.1152 354.04 71.5415C353.766 71.9679 353.887 72.5364 354.315 72.8103C354.742 73.0863 355.311 72.9627 355.588 72.5364C355.862 72.11 355.74 71.5415 355.313 71.2676Z" fill="#BF9786"/>
<path d="M352.162 79.074C351.655 79.074 351.242 79.4839 351.242 79.9905C351.242 80.4993 351.655 80.9092 352.162 80.9092C352.67 80.9092 353.083 80.4993 353.083 79.9905C353.083 79.4839 352.67 79.074 352.162 79.074Z" fill="#BF9786"/>
<path d="M353.772 88.1326C353.411 88.4909 353.411 89.0718 353.772 89.4302C354.131 89.7885 354.713 89.7885 355.072 89.4302C355.431 89.0718 355.431 88.4909 355.072 88.1326C354.713 87.7742 354.131 87.7742 353.772 88.1326Z" fill="#BF9786"/>
<path d="M359.548 93.9141C359.189 94.2724 359.189 94.8533 359.548 95.2117C359.907 95.57 360.491 95.57 360.85 95.2117C361.209 94.8533 361.209 94.2724 360.85 93.9141C360.491 93.5557 359.907 93.5557 359.548 93.9141Z" fill="#BF9786"/>
<path d="M367.956 79.9905C367.956 79.4839 368.369 79.074 368.876 79.074C369.384 79.074 369.797 79.4839 369.797 79.9905C369.797 80.4993 369.384 80.9092 368.876 80.9092C368.369 80.9092 367.956 80.4993 367.956 79.9905Z" fill="#BF9786"/>
<path d="M369.003 79.9905H368.751V68.52H369.003V79.9905Z" fill="#BF9786"/>
<path d="M368.995 80.2705L368.528 79.6794L374.622 74.905L375.086 75.4962L368.995 80.2705Z" fill="#BF9786"/>
<path d="M274.285 242.113C270.501 248.69 266.228 253.248 261.465 255.785H231.754C262.996 241.654 277.174 237.096 274.285 242.113Z" fill="#233862"/>
<path d="M310.93 340.118C310.61 343.23 314.945 344.033 319.974 344.338C325.003 344.641 323.471 345.654 330.353 346.974C337.234 348.295 340.018 346.441 340.528 345.516C340.98 344.696 337.787 343.372 334.387 341.877C333.96 341.689 333.531 341.498 333.104 341.304C329.276 339.576 327.155 336.112 324.192 332.888C322.32 330.853 320.521 326.598 318.794 320.128L309.444 318.03C311.136 323.856 312.273 328.011 312.855 330.497C313.369 332.69 312.55 335.127 311.828 336.981C311.438 337.99 311.043 339.022 310.93 340.118Z" fill="#FFB27D"/>
<path d="M319.973 344.338C325.001 344.641 323.47 345.654 330.352 346.974C337.233 348.295 340.017 346.441 340.527 345.516C340.978 344.696 337.786 343.372 334.386 341.877L334.332 341.934C331.088 342.995 327.607 342.999 323.887 341.947C319.339 340.661 314.959 337.893 311.826 336.981C311.436 337.99 311.042 339.022 310.929 340.118C310.609 343.23 314.944 344.033 319.973 344.338Z" fill="#8A8FCE"/>
<path d="M296.767 232.008C291.737 228.482 258.462 222.198 241.48 220.379L222.713 204.116C212.062 219.862 206.695 233.759 206.61 245.806C206.552 254.23 210.44 255.067 210.44 255.069C250.551 255.365 271.486 255.604 273.244 255.785C277.561 256.23 283.256 266.965 284.678 276.743C285.627 283.262 294.465 299.776 311.191 326.287C314.678 327.403 317.228 327.914 318.842 327.819C320.577 327.716 321.846 327.376 322.649 326.796C312.957 268.906 304.33 237.31 296.767 232.008Z" fill="#2F1F18"/>
<path d="M295.368 340.118C295.048 343.23 299.383 344.033 304.412 344.338C309.44 344.641 307.909 345.654 314.791 346.974C321.672 348.295 324.456 346.441 324.963 345.516C325.417 344.696 322.225 343.372 318.825 341.877C318.397 341.689 317.968 341.498 317.541 341.304C313.713 339.576 311.592 336.112 308.629 332.888C306.758 330.853 304.958 326.598 303.231 320.128L293.882 318.03C295.574 323.856 296.711 328.011 297.293 330.497C297.806 332.69 296.987 335.127 296.265 336.981C295.873 337.99 295.481 339.022 295.368 340.118Z" fill="#FFB27D"/>
<path d="M304.41 344.338C309.439 344.641 307.908 345.654 314.789 346.974C321.671 348.295 324.454 346.441 324.962 345.516C325.416 344.696 322.224 343.372 318.823 341.877L318.77 341.934C315.526 342.995 312.045 342.999 308.325 341.947C303.777 340.661 299.396 337.893 296.264 336.981C295.872 337.99 295.48 339.022 295.366 340.118C295.046 343.23 299.382 344.033 304.41 344.338Z" fill="#8A8FCE"/>
<path d="M281.068 232.008C276.698 228.946 263.554 226.571 249.046 224.81C245.034 224.322 241.739 221.411 240.761 217.498L207.014 204.116C196.362 219.862 190.995 233.759 190.911 245.806C190.853 254.23 194.741 255.067 194.741 255.069C234.851 255.365 255.787 255.604 257.545 255.785C261.862 256.23 267.557 266.965 268.978 276.743C269.928 283.262 278.765 299.776 295.491 326.287C298.981 327.403 301.531 327.914 303.142 327.819C304.878 327.716 306.147 327.376 306.949 326.796C297.258 268.906 288.63 237.31 281.068 232.008Z" fill="#492D21"/>
<path d="M235.909 105.984C231.271 103.551 224.216 103.224 223.069 103.069C209.351 101.23 201.095 121.127 200.608 127.155C199.715 138.269 193.826 139.963 185.535 146.922C168.914 160.877 173.788 177.093 182.877 183.117C186.513 185.529 191.533 185.529 197.942 183.117C198.078 183.212 224.23 168.524 237.12 161.439C256.446 158.698 247.726 112.177 235.909 105.984Z" fill="#333333"/>
<path d="M233.048 154.595C233.109 154.626 226.952 157.421 222.51 155.954C218.329 154.58 214.648 148.298 214.706 148.288C216.522 148.026 218.364 146.238 218.88 135.652L219.683 135.853L233.192 139.262C232.835 142.111 232.585 144.881 232.437 147.573C232.251 150.965 232.29 154.193 233.048 154.595Z" fill="#FFB27D"/>
<path d="M233.192 139.262C233.192 139.849 233.025 141.466 232.686 144.115C225.047 142.191 221.678 139.664 219.303 136.77L233.192 139.262Z" fill="#ED975D"/>
<path d="M236.074 139.8C224.164 141.736 217.664 138.993 216.571 131.571C214.93 120.439 211.519 113.316 222.856 110.991C234.192 108.668 237.04 112.589 238.493 116.173C239.945 119.755 240.678 138.758 236.074 139.8Z" fill="#FFB27D"/>
<path d="M236.09 110.525C230.682 119.046 225.565 124.317 220.736 126.336C215.908 128.354 212.307 128.85 209.937 127.825C212.132 124.5 213.517 120.608 214.09 116.144C214.342 114.169 215.632 112.478 217.48 111.739C222.678 109.66 232.731 106.383 236.09 110.525Z" fill="#333333"/>
<path d="M228.966 111.761C232.135 113.384 234.372 114.954 235.678 116.476C237.568 118.676 239.751 124.647 239.595 127.328C241.159 118.76 240.311 113.005 237.054 110.06C233.6 106.935 230.905 107.504 228.966 111.761Z" fill="#233862"/>
<path d="M247.339 181.791C246.798 218.037 247.19 210.462 243.218 213.902C242.261 214.73 239.572 215.224 236.029 215.457C224.895 216.194 205.323 214.365 204.578 212.309C202.009 205.204 203.823 202.996 201.681 192.114C201.456 190.957 201.18 189.704 200.856 188.341C199.069 180.868 197.332 178.324 203.668 166.321C209.417 155.445 216.177 146.609 216.713 146.929C226.824 152.918 232.051 153.404 232.397 148.383C242.535 158.869 247.516 170.005 247.339 181.791Z" fill="#FCCC4F"/>
<path d="M232.397 148.383C242.743 150.133 248.529 153.243 249.751 157.715C250.972 162.185 255.176 177.562 262.365 203.844C257.076 204.794 253.211 204.048 250.768 201.609C248.325 199.171 244.074 187.859 238.016 167.672L232.397 148.383Z" fill="#FEAC1A"/>
<path d="M236.029 215.456C224.895 216.194 205.324 214.365 204.579 212.309C202.01 205.203 203.823 202.995 201.682 192.114L207.051 177.021C206.458 188.225 207.818 195.302 211.13 198.25C216.09 202.672 231.463 206.785 233.877 210.478C235.041 212.252 235.806 214.029 236.029 215.456Z" fill="#FCCC4F"/>
<path d="M223.273 208.388C230.597 206.76 234.849 206.27 236.029 206.919C237.802 207.891 242.135 211.436 242.676 212.67C243.218 213.901 238.73 211.733 237.272 211.341C236.325 211.088 233.836 211.953 232.604 212.363C229.148 213.512 226.362 213.792 224.243 213.199L223.273 208.388Z" fill="#FFB27D"/>
<path d="M216.714 146.928C206.349 147.532 199.465 150.205 196.061 154.945C188.874 164.951 174.616 207.597 182.787 213.284C188.921 217.553 202.882 218.112 224.67 214.958C225.394 211.576 225.252 209.067 224.243 207.43C222.73 204.977 198.143 201.012 197.008 199.879C195.873 198.746 211.192 177.789 211.192 174.39C211.192 172.125 213.032 162.971 216.714 146.928Z" fill="#FEAC1A"/>
<path d="M236.562 209.972C238.097 211.947 239.114 213.053 239.617 213.288C240.121 213.525 240.536 213.613 240.86 213.553L239.308 210.767L236.562 209.972Z" fill="#FFB27D"/>
<path d="M236.029 206.919L242.721 210.163C242.531 210.472 242.162 210.614 241.613 210.59C241.064 210.565 240.096 210.299 238.712 209.795L236.029 206.919Z" fill="#FFB27D"/>
<path d="M260.681 214.608H229.602C229.602 213.242 230.712 212.136 232.08 212.136H260.681V214.608Z" fill="#ED7D2B"/>
<path d="M260.59 180.823H308.641L297.114 214.608H248.754L260.59 180.823Z" fill="#ED7D2B"/>
<path d="M309.349 180.821L297.822 214.608H249.462L261.3 180.821H309.349Z" fill="#ECBCB7"/>
<path d="M283.442 197.403C283.145 198.695 281.854 199.741 280.56 199.741C279.268 199.741 278.461 198.695 278.761 197.403C279.058 196.112 280.349 195.066 281.641 195.066C282.935 195.066 283.742 196.112 283.442 197.403Z" fill="white"/>
<path d="M218.859 222.211H429.43C430.315 222.211 431.033 221.494 431.033 220.61V216.209C431.033 215.325 430.315 214.608 429.43 214.608H218.859C217.974 214.608 217.256 215.325 217.256 216.209V220.61C217.256 221.494 217.974 222.211 218.859 222.211Z" fill="#EBEBEB"/>
<path d="M434.584 347.422L434.675 347.411C435.754 347.277 436.517 346.315 436.381 345.263L417.616 218.476L410.747 218.672L432.824 346.147C432.966 346.962 433.742 347.525 434.584 347.422Z" fill="#354969"/>
<path d="M211.808 347.422L211.717 347.411C210.638 347.277 209.875 346.315 210.011 345.263L228.776 218.476L235.645 218.672L213.566 346.147C213.426 346.962 212.65 347.525 211.808 347.422Z" fill="#183658"/>
<path d="M255.248 347.422L255.157 347.411C254.08 347.277 253.314 346.315 253.453 345.263L272.215 218.476L279.087 218.672L257.008 346.147C256.866 346.962 256.09 347.525 255.248 347.422Z" fill="#183658"/>
<path d="M365.951 347.318H403.188C404.979 345.137 404.319 337.088 404.048 334.46C404.009 334.106 403.978 333.828 403.953 333.622C395.477 326.853 390.654 326.06 389.491 331.243C389.437 331.486 389.373 331.725 389.303 331.959C387.103 339.23 377.232 342.536 371.533 343.455C367.827 344.056 366.459 345.978 365.951 347.318Z" fill="black"/>
<path d="M467.554 226.546C466.208 226.546 403.771 238.247 393.444 251.009C390.004 255.258 388.027 281.925 387.516 331.01C391.772 336.276 398.495 337.38 407.686 334.322C414.423 300.74 417.545 278.856 417.047 268.671C416.839 264.447 459.707 268.059 467.554 266.033C475.399 264.006 494.57 246.968 490.344 238.67C487.53 233.135 479.932 229.094 467.554 226.546Z" fill="#2F1F18"/>
<path d="M393.71 208.518C385.314 208.631 380.123 209.111 378.138 209.961C375.16 211.234 369.117 214.159 370.734 214.608C372.352 215.057 380.067 214.425 381.734 214.678C383.402 214.934 385.457 214.608 386.478 214.608C387.159 214.608 389.086 214.608 392.262 214.608L393.71 208.518Z" fill="#FFB27D"/>
<path d="M378.986 178.347C376.124 176.304 373.301 175.087 370.522 174.689C368.145 174.35 365.832 173.927 364.435 173.435C360.587 172.082 352.888 165.174 353.472 164.362C355.337 161.765 364.325 167.262 365.894 166.671C367.464 166.082 362.879 162.828 364.474 161.685C365.306 161.087 367.254 164.082 368.846 164.383C371.001 164.788 372.687 167.827 373.334 167.985C374.176 168.191 376.44 169.662 380.125 172.399L378.986 178.347Z" fill="#FFB27D"/>
<path d="M461.335 142.579C454.942 144.556 448.599 154.199 442.302 171.509C432.855 197.474 429.267 198.876 425.834 199.896C423.545 200.573 412.355 202.911 392.262 206.903V214.608H438.701C450.31 203.587 457.854 194.363 461.335 186.944C464.814 179.523 464.814 164.735 461.335 142.579Z" fill="#BF9786"/>
<path d="M349.495 347.318H386.73C388.521 345.137 387.86 337.088 387.59 334.46C387.553 334.106 387.522 333.828 387.497 333.622C379.019 326.853 374.198 326.06 373.035 331.243C372.981 331.486 372.917 331.725 372.847 331.959C370.645 339.23 360.776 342.536 355.077 343.455C351.371 344.056 350.001 345.978 349.495 347.318Z" fill="black"/>
<path d="M449.155 226.546C447.809 226.546 385.372 238.247 375.044 251.009C371.605 255.258 369.628 281.925 369.116 331.01C373.373 336.276 380.096 337.38 389.286 334.322C396.025 300.74 399.145 278.856 398.648 268.671C398.44 264.447 441.307 268.059 449.155 266.033C457 264.006 476.171 246.968 471.945 238.67C469.131 233.135 461.533 229.094 449.155 226.546Z" fill="#492D21"/>
<path d="M453.062 150.807C457.553 150.436 462.263 149.242 466.332 147.923C471.421 146.276 475.523 143.866 472.88 139.225C470.443 134.947 466.502 125.388 466.768 117.473L457.301 125.088L450.869 130.262C450.886 132.294 451.129 135.092 451.597 138.655C451.727 139.629 451.876 140.682 452.053 141.804C452.198 142.712 451.779 143.621 450.997 144.105C450.947 144.134 450.9 144.164 450.853 144.195C447.656 146.199 449.299 151.116 453.062 150.807Z" fill="#FFB27D"/>
<path d="M450.869 129.001C450.65 129.741 450.729 131.473 451.104 134.198C454.928 133.576 458.625 131.743 462.199 128.7C459.279 127.899 458.217 124.752 456.044 125.045L450.869 129.001Z" fill="#ED975D"/>
<path d="M445.566 129.934C460.268 132.373 468.311 129.009 469.691 119.848C471.761 106.101 476.001 97.3169 462.007 94.4004C448.013 91.4838 444.483 96.3179 442.673 100.738C440.863 105.158 439.881 128.628 445.566 129.934Z" fill="#FFB27D"/>
<path d="M439.429 94.6557C438.482 97.9656 441.016 101.996 445.271 103.325C451.587 105.294 450.192 113.028 453.034 112.923C455.875 112.816 457.022 108.476 459.56 111.945C461.727 114.902 457.759 118.408 458.031 120.031C458.5 122.816 462.87 128.513 466.807 128.227C470.746 127.94 478.114 109.261 476.639 103.481C475.166 97.702 469.271 91.6074 463.693 90.767C458.114 89.9266 450.366 92.3324 448.577 92.3324C446.788 92.3324 439.941 92.8679 439.429 94.6557Z" fill="#492D21"/>
<path d="M490.64 161.655C487.452 148.848 478.641 135.409 472.684 135.421C462.534 135.44 447.94 138.113 442.049 152.622C437.709 163.307 431.921 224.775 438.462 229.146C453.416 239.139 488.08 259.54 494.239 238.735C499.88 219.675 496.172 183.882 490.64 161.655Z" fill="#BF9786"/>
<path d="M465.984 148.91C463.089 141.39 453.748 138.791 447.378 143.738C443.932 146.414 439.714 150.224 434.618 155.641C415.673 175.777 411.823 175.653 408.266 175.237C405.893 174.959 394.686 172.698 374.646 168.453C373.621 169.208 372.806 170.197 372.201 171.419C371.394 173.05 371.194 174.422 371.601 175.532C370.423 174.774 382.256 182.916 388.147 186.162C395.924 190.448 407.645 194.469 412.314 195.995C413.637 196.427 415.063 196.405 416.373 195.933C423.302 193.441 446.571 184.358 465.511 168.595C470.503 164.44 468.668 155.882 465.984 148.91Z" fill="#BF9786"/>
<path d="M473.705 135.545L471.409 130.375C457.693 131.491 449.683 135.946 447.378 143.738C458.009 138.443 466.784 135.712 473.705 135.545Z" fill="white"/>
<path d="M523.652 346.855L523.795 346.853C524.956 346.832 525.852 345.885 525.743 344.793L517.994 267.54L511.232 268.144L522.359 345.811C522.447 346.418 523.002 346.867 523.652 346.855Z" fill="#183658"/>
<path d="M483.765 346.855L483.907 346.853C485.069 346.832 485.966 345.885 485.857 344.793L478.107 267.54L471.345 268.144L482.473 345.811C482.56 346.418 483.115 346.867 483.765 346.855Z" fill="#183658"/>
<path d="M408.882 346.855L408.74 346.853C407.58 346.832 406.683 345.885 406.792 344.793L414.54 267.54L421.302 268.144L410.176 345.811C410.09 346.418 409.532 346.867 408.882 346.855Z" fill="#183658"/>
<path d="M521.463 256.597L528.817 192.075C529.78 182.776 526.665 173.672 513.221 172.967L489.574 171.53C475.558 170.953 469.229 182.596 467.455 191.56L453.415 262.488L521.463 256.597Z" fill="#FEE4CB"/>
<path d="M517.51 268.671H412.554C410.445 268.671 408.718 266.949 408.718 264.844V260.132C408.718 258.027 410.445 256.305 412.554 256.305H521.343V264.844C521.343 266.949 519.618 268.671 517.51 268.671Z" fill="#FEE4CB"/>
<path d="M518.365 268.671H456.393C454.756 268.671 453.415 267.332 453.415 265.699V259.277C453.415 257.641 454.756 256.305 456.393 256.305H521.343V265.699C521.343 267.332 520.004 268.671 518.365 268.671Z" fill="#FEE4CB"/>
<path opacity="0.1" d="M627.321 347.603H4.80469V344.746H627.321V347.603Z" fill="#492D21"/>
</g>
<rect opacity="0.15" width="613.68" height="370" rx="8" fill="#492D21"/>
<circle opacity="0.1" cx="306.392" cy="184.552" r="35.8354" fill="#492D21"/>
<circle r="23.2615" transform="matrix(-1 0 0 1 306.393 184.552)" fill="white"/>
<path d="M303.461 175.977C301.879 175.078 300.597 175.814 300.597 177.621V190.955C300.597 192.764 301.879 193.5 303.461 192.601L315.22 185.917C316.802 185.018 316.802 183.56 315.22 182.661L303.461 175.977Z" fill="#492D21"/>
<defs>
<clipPath id="clip0">
<rect width="568.886" height="330.581" fill="white" transform="translate(16.124 17.0215)"/>
</clipPath>
</defs>
</svg>
