<svg width="291" height="94" viewBox="0 0 291 94" fill="none" xmlns="http://www.w3.org/2000/svg">
<path d="M47 0C72.9573 0 94 21.0427 94 47C94 72.9573 72.9573 94 47 94C21.0427 94 0 72.9573 0 47C0 21.0427 21.0427 0 47 0Z" fill="#492D21"/>
<path fill-rule="evenodd" clip-rule="evenodd" d="M67.5065 57.3327C67.9883 56.1178 69.1933 55.206 70.6387 55.206C72.4457 55.206 74.0113 56.7253 74.0113 58.6095C74.0113 60.4936 72.5052 62.0129 70.6387 62.0129C68.7721 62.0129 67.2661 60.4936 67.2661 58.6095V58.5488L51.6072 55.3879C51.3734 56.0483 51.003 56.636 50.5333 57.1178L56.4472 63.8519C57.7956 62.8508 59.7095 63.036 60.8385 64.3205C62.027 65.6732 61.8936 67.7338 60.5397 68.9223C59.1869 70.1108 57.1263 69.9774 55.9378 68.6236C54.81 67.3391 54.8728 65.4175 56.0404 64.2091L50.132 57.4827C49.4495 58.0362 48.6094 58.3956 47.6922 58.4882L47.873 65.9037C49.6193 66.0249 50.9446 67.4229 50.9446 69.1858C50.9446 71.0094 49.4992 72.468 47.6922 72.468C45.8851 72.468 44.4398 71.0094 44.4398 69.1858C44.4398 67.4836 45.7054 66.0856 47.3305 65.9037L47.1508 58.4882C44.7418 58.3669 42.8135 56.3603 42.8135 53.8687C42.8135 52.592 43.2953 51.4983 44.0792 50.6471L42.9348 49.3704C42.5126 49.6141 42.0308 49.796 41.549 49.796C40.2237 49.796 39.14 48.7023 39.14 47.365C39.14 46.0276 40.2237 44.9339 41.549 44.9339C42.8742 44.9339 43.9579 46.0276 43.9579 47.365C43.9579 47.9724 43.7176 48.5193 43.356 48.9449L44.5004 50.2216C45.2236 49.6747 46.066 49.3098 47.0295 49.2491L47.6326 38.6728L39.5622 37.2748C39.441 37.5184 39.2602 37.761 39.0198 38.0046C38.5986 38.4302 37.9956 38.6728 37.3936 38.6728C37.1533 38.6728 36.8512 38.6121 36.6108 38.4909L32.9968 44.4466C33.1776 44.569 33.2978 44.6903 33.4191 44.8115C35.0453 46.5745 34.9846 49.3098 33.2382 50.9514C33.1776 51.0121 33.1181 51.0573 33.0574 51.1025C32.9968 51.1488 32.9373 51.194 32.8766 51.2546L37.3936 58.3052C37.6946 58.1839 38.0562 58.0626 38.4178 58.0626C39.7419 58.0626 40.8268 59.1563 40.8268 60.4936C40.8268 61.831 39.7419 62.9247 38.4178 62.9247C37.0926 62.9247 36.0089 61.831 36.0089 60.4936C36.0089 59.7649 36.3098 59.0957 36.8512 58.6701L32.3342 51.7408C31.7322 52.1057 31.0101 52.2877 30.2868 52.2877C29.6849 52.2877 29.1424 52.1664 28.6606 51.9845L26.6133 54.7804C27.1557 55.3273 27.5162 56.1784 27.5162 57.0296C27.5162 58.9137 26.0708 60.3724 24.2043 60.3724C22.3366 60.3724 20.8912 58.9137 20.8912 57.0296C20.8912 55.1454 22.3973 53.6856 24.2043 53.6856C24.6861 53.6856 25.1679 53.808 25.589 53.9899L27.5162 51.2546C27.3354 51.1333 27.2152 51.0121 27.0344 50.829C25.7698 49.4311 25.5295 47.3043 26.4325 45.7233L24.2043 44.2647C23.782 44.7509 23.1205 45.1158 22.3973 45.1158C21.072 45.1158 19.9883 44.0221 19.9883 42.6848C19.9883 41.3475 21.072 40.2527 22.3973 40.2527C23.7225 40.2527 24.8063 41.3475 24.8063 42.6848C24.8063 43.0486 24.7467 43.4136 24.5659 43.7179L26.7941 45.1765C26.9142 44.9946 27.0951 44.8115 27.2759 44.6296C28.0587 43.8998 29.1424 43.4742 30.2262 43.4742C30.8293 43.4742 31.4312 43.5966 31.9737 43.8391L35.6472 37.8823C34.8644 36.9705 34.924 35.6949 35.6472 34.7831L31.6727 30.4061C31.2504 30.6498 30.8293 30.8317 30.2868 30.8317C28.9616 30.8317 27.8778 29.738 27.8778 28.4007C27.8778 27.0633 28.9616 25.9696 30.2868 25.9696C31.612 25.9696 32.6958 27.0633 32.6958 28.4007C32.6958 28.9475 32.4555 29.4944 32.0938 29.9199L36.0684 34.2969C36.4907 34.0532 36.9724 33.8713 37.4542 33.8713C38.1169 33.8713 38.7784 34.1139 39.2006 34.6001C39.5622 35.0257 39.7419 35.5119 39.8026 36.0587L47.873 37.5184L48.5356 28.0357C47.0902 27.6708 46.066 26.3335 46.066 24.8142C46.066 22.9907 47.5113 21.532 49.3184 21.532C51.1254 21.532 52.5708 22.9907 52.5708 24.8142C52.5708 26.5165 51.3062 27.9145 49.68 28.0964L49.0174 37.7004L54.0768 38.5515C54.2576 38.0653 54.5586 37.6397 54.9191 37.2748C55.5222 36.6673 56.305 36.363 57.1473 36.363C58.0513 36.363 58.9554 36.7279 59.5574 37.3961C60.7018 38.6121 60.7018 40.4963 59.6775 41.773L60.8826 42.988C61.7249 42.138 62.9299 41.59 64.2552 41.59C64.7359 41.59 65.2176 41.7124 65.7006 41.8337L66.7843 37.9429C66.4833 37.8216 66.2419 37.6397 66.0015 37.3961C65.5197 36.9705 65.3389 36.363 65.3389 35.6949C65.3389 35.0257 65.5793 34.4182 66.0611 33.9926C66.4833 33.567 67.0853 33.3234 67.6873 33.3234C68.3499 33.3234 69.0125 33.567 69.4336 34.0533C70.3377 35.0257 70.2771 36.5449 69.3135 37.4567C68.8923 37.8823 68.2892 38.1259 67.6873 38.1259C67.6277 38.1259 67.5671 38.1105 67.5065 38.0951C67.4469 38.0796 67.3863 38.0653 67.3268 38.0653L66.1823 42.0156C67.8681 42.7454 69.0125 44.4466 69.0125 46.3925C69.0125 49.0661 66.8439 51.2546 64.1945 51.2546C62.4481 51.2546 60.9421 50.2822 60.0987 48.8842L51.6678 52.592C51.788 53.0175 51.8475 53.4431 51.8475 53.8687V54.173L67.5065 57.3327ZM67.6873 34.4788C67.3863 34.4788 67.1459 34.6001 66.9045 34.7831C66.663 34.965 66.4833 35.33 66.4833 35.6331C66.4833 35.9374 66.5429 36.2417 66.7843 36.4843C67.2055 36.9705 67.9883 36.9705 68.4712 36.5449C68.9519 36.0587 68.9518 35.33 68.5307 34.8437C68.3499 34.6001 67.9883 34.4788 67.6873 34.4788ZM21.2529 42.6848C21.2529 43.3529 21.7953 43.8998 22.4579 43.8998C23.1205 43.8998 23.6618 43.3529 23.6618 42.6848C23.6618 42.0156 23.1205 41.4687 22.4579 41.4687C21.7953 41.4687 21.2529 42.0156 21.2529 42.6848ZM22.1569 56.9072C22.1569 58.0626 23.1205 59.035 24.2638 59.035C25.4082 59.035 26.3718 58.0626 26.3718 56.9072C26.3718 55.7528 25.4082 54.7804 24.2638 54.7804C23.1205 54.7804 22.1569 55.7528 22.1569 56.9072ZM38.3572 61.7703C39.0198 61.7703 39.5622 61.2235 39.5622 60.5543C39.5622 59.8862 39.0198 59.3393 38.3572 59.3393C37.6946 59.3393 37.1533 59.8862 37.1533 60.5543C37.1533 61.2235 37.6946 61.7703 38.3572 61.7703ZM30.2868 50.9514C31.0696 50.9514 31.7929 50.6471 32.3948 50.1003C33.6594 48.9449 33.72 46.9394 32.515 45.6627C31.913 45.0552 31.0696 44.6903 30.2262 44.6903C29.4434 44.6903 28.7213 44.9946 28.1193 45.5414C26.9142 46.7575 26.8536 48.7023 27.998 49.9779C28.6011 50.5865 29.4434 50.9514 30.2868 50.9514ZM29.0829 28.34C29.0829 29.0082 29.6242 29.555 30.2868 29.555C30.9494 29.555 31.4312 29.0082 31.4919 28.34C31.4919 27.6708 30.9494 27.124 30.2868 27.124C29.6242 27.124 29.0829 27.6708 29.0829 28.34ZM36.6108 37.0929C37.032 37.5791 37.8148 37.5791 38.2966 37.1535C38.7188 36.6673 38.7784 35.9374 38.2966 35.4512C38.1169 35.2087 37.7552 35.0863 37.4542 35.0863C37.1533 35.0863 36.9118 35.2087 36.6715 35.3906C36.1897 35.8768 36.1897 36.6067 36.6108 37.0929ZM67.8074 46.3925C67.8074 44.386 66.1824 42.7454 64.1945 42.7454C62.2078 42.7454 60.5816 44.386 60.5816 46.3925C60.5816 48.398 62.2078 50.0396 64.1945 50.0396C66.1824 50.0396 67.8074 48.398 67.8074 46.3925ZM57.1473 37.5791C56.6059 37.5791 56.0635 37.761 55.703 38.1259C54.8596 38.9164 54.7989 40.192 55.5817 41.1038C55.9433 41.5294 56.4858 41.773 57.0877 41.773C57.6302 41.773 58.1715 41.59 58.5331 41.2262C59.3765 40.4357 59.4361 39.0983 58.6533 38.2472C58.2917 37.8216 57.7503 37.5791 57.1473 37.5791ZM54.7394 41.8943C54.1363 41.2868 53.8353 40.4963 53.8353 39.7058L48.8972 38.794L48.174 49.3098C49.4385 49.5534 50.5234 50.3428 51.186 51.4376L59.6169 47.7299C59.4967 47.2437 59.4361 46.8181 59.4361 46.3319C59.4361 45.1765 59.8584 44.1434 60.4603 43.3529L59.2564 42.138C58.6533 42.6242 57.9312 42.9274 57.1473 42.9274C56.2443 42.9274 55.3414 42.5624 54.7394 41.8943ZM49.1982 22.6257C48.0538 22.6257 47.1508 23.5375 47.1508 24.6929C47.1508 25.8473 48.0538 26.759 49.1982 26.759C50.3426 26.759 51.2455 25.8473 51.2455 24.6929C51.2455 23.5375 50.3426 22.6257 49.1982 22.6257ZM40.345 47.365C40.345 48.0331 40.8864 48.5799 41.549 48.5799C42.2116 48.5799 42.754 48.0331 42.754 47.365C42.754 46.6957 42.2116 46.1489 41.549 46.1489C40.8864 46.1489 40.345 46.6957 40.345 47.365ZM47.6922 71.2519C48.8366 71.2519 49.7395 70.3402 49.7395 69.1858C49.7395 68.0304 48.8366 67.1186 47.6922 67.1186C46.5478 67.1186 45.6448 68.0304 45.6448 69.1858C45.6448 70.3402 46.5478 71.2519 47.6922 71.2519ZM43.9579 53.808C43.9579 55.6922 45.464 57.2115 47.3305 57.2115C49.1375 57.2115 50.6436 55.7528 50.6436 53.8687C50.6436 51.9845 49.1982 50.4035 47.3305 50.4035C45.464 50.4035 43.9579 51.9238 43.9579 53.808ZM68.4712 58.5488C68.4712 59.7649 69.4336 60.7373 70.6387 60.7373C71.7831 60.7373 72.8062 59.7649 72.8062 58.5488C72.8062 57.3327 71.8437 56.3603 70.6387 56.3603C69.4336 56.3603 68.4712 57.3327 68.4712 58.5488ZM59.7591 68.0326C60.6213 67.2763 60.7062 65.9632 59.9488 65.101C59.1924 64.2389 57.8793 64.154 57.0172 64.9114C56.155 65.6677 56.0701 66.9808 56.8276 67.843C57.5839 68.7051 58.897 68.79 59.7591 68.0326Z" fill="#F6DC8E"/>
<path d="M46.9997 6.48279C69.3768 6.48279 87.5169 24.6229 87.5169 47C87.5169 69.3771 69.3768 87.5173 46.9997 87.5173C24.6226 87.5173 6.48242 69.3771 6.48242 47C6.48242 24.6229 24.6226 6.48279 46.9997 6.48279Z" stroke="white" stroke-width="2"/>
<path fill-rule="evenodd" clip-rule="evenodd" d="M118.125 72.6491H116.723V67.7513H111.394V72.6491H110.002V62.0566H111.394V66.6114H116.723V62.0566H118.125V72.6491ZM122.668 72.6491H121.326V64.7763H122.668V72.6491ZM121.215 62.6904C121.215 62.4705 121.281 62.2884 121.413 62.137C121.547 61.9857 121.746 61.9123 122.008 61.9123C122.27 61.9123 122.468 61.9857 122.602 62.137C122.737 62.2884 122.805 62.4705 122.805 62.6904C122.805 62.908 122.737 63.0901 122.602 63.2343C122.468 63.381 122.27 63.4543 122.008 63.4543C121.746 63.4543 121.547 63.381 121.413 63.2343C121.281 63.0901 121.215 62.908 121.215 62.6904ZM129.44 65.9871C129.234 65.9516 129.015 65.9351 128.779 65.9351C127.898 65.9351 127.299 66.3111 126.985 67.0632V72.6491H125.642V64.7763H126.947L126.971 65.6868C127.41 64.9844 128.035 64.632 128.842 64.632C129.104 64.632 129.303 64.6675 129.44 64.7337V65.9871ZM132.956 72.6491H131.613V64.7763H132.956V72.6491ZM131.505 62.6904C131.505 62.4705 131.571 62.2884 131.7 62.137C131.837 61.9857 132.036 61.9123 132.298 61.9123C132.557 61.9123 132.755 61.9857 132.892 62.137C133.027 62.2884 133.095 62.4705 133.095 62.6904C133.095 62.908 133.027 63.0901 132.892 63.2343C132.755 63.381 132.557 63.4543 132.298 63.4543C132.036 63.4543 131.837 63.381 131.7 63.2343C131.571 63.0901 131.505 62.908 131.505 62.6904ZM137.202 64.7763L137.244 65.7672C137.846 65.0104 138.63 64.632 139.597 64.632C141.256 64.632 142.094 65.5709 142.108 67.4486V72.6491H140.765V67.4415C140.761 66.874 140.631 66.453 140.374 66.181C140.124 65.9091 139.727 65.7743 139.191 65.7743C138.755 65.7743 138.372 65.8901 138.044 66.1243C137.714 66.356 137.459 66.6611 137.275 67.0395V72.6491H135.932V64.7763H137.202ZM144.634 68.6477C144.634 67.4203 144.917 66.4459 145.483 65.7222C146.05 64.9962 146.8 64.632 147.732 64.632C148.691 64.632 149.439 64.9702 149.977 65.6489L150.043 64.7763H151.268V72.4599C151.268 73.4792 150.966 74.2809 150.362 74.8674C149.762 75.4563 148.953 75.7471 147.938 75.7471C147.371 75.7471 146.817 75.6265 146.274 75.3829C145.731 75.1417 145.318 74.8083 145.033 74.3873L145.729 73.5785C146.305 74.2927 147.01 74.6498 147.843 74.6498C148.495 74.6498 149.005 74.4654 149.366 74.0988C149.734 73.7275 149.918 73.2096 149.918 72.5403V71.8616C149.382 72.4835 148.648 72.7957 147.718 72.7957C146.8 72.7957 146.054 72.4244 145.483 71.6818C144.917 70.9392 144.634 69.9271 144.634 68.6477ZM145.984 68.8014C145.984 69.6882 146.165 70.3859 146.529 70.8967C146.892 71.4004 147.4 71.6535 148.053 71.6535C148.901 71.6535 149.521 71.2656 149.918 70.4947V66.9023C149.507 66.1503 148.889 65.7743 148.068 65.7743C147.414 65.7743 146.904 66.0297 146.536 66.5381C146.168 67.0466 145.984 67.801 145.984 68.8014ZM162.712 68.3639H160.229V72.6491H158.83V62.0566H162.327C163.519 62.0566 164.432 62.3286 165.072 62.8725C165.716 63.4141 166.037 64.204 166.037 65.2422C166.037 65.9043 165.858 66.4766 165.501 66.9685C165.147 67.4581 164.654 67.8247 164.019 68.0659L166.502 72.5616V72.6491H165.006L162.712 68.3639ZM160.229 67.2216H162.372C163.063 67.2216 163.613 67.0419 164.019 66.6824C164.43 66.3253 164.638 65.8452 164.638 65.2422C164.638 64.5894 164.439 64.0881 164.048 63.7381C163.661 63.3881 163.099 63.2107 162.365 63.206H160.229V67.2216ZM171.864 72.7957C170.8 72.7957 169.934 72.4457 169.266 71.7481C168.598 71.0433 168.265 70.1044 168.265 68.9314V68.6831C168.265 67.9027 168.411 67.2074 168.706 66.5973C169.006 65.98 169.424 65.4999 169.955 65.157C170.493 64.807 171.074 64.632 171.699 64.632C172.719 64.632 173.514 64.9702 174.08 65.6442C174.644 66.3182 174.928 67.2831 174.928 68.5389V69.097H169.608C169.627 69.875 169.851 70.5041 170.283 70.9842C170.717 71.4595 171.269 71.696 171.937 71.696C172.412 71.696 172.813 71.5991 173.143 71.4051C173.471 71.2112 173.759 70.9534 174.007 70.6342L174.826 71.2727C174.168 72.2873 173.181 72.7957 171.864 72.7957ZM171.699 65.7364C171.156 65.7364 170.701 65.9374 170.332 66.3348C169.964 66.7273 169.738 67.2807 169.65 67.9949H173.585V67.8909C173.547 67.2074 173.363 66.68 173.035 66.3064C172.704 65.9256 172.258 65.7364 171.699 65.7364ZM176.981 68.6477C176.981 67.4415 177.266 66.4719 177.838 65.7364C178.409 65.0009 179.157 64.632 180.08 64.632C181 64.632 181.729 64.9489 182.265 65.578V61.4748H183.608V72.6491H182.374L182.31 71.8048C181.772 72.4646 181.024 72.7957 180.065 72.7957C179.157 72.7957 178.413 72.4197 177.838 71.6747C177.266 70.9274 176.981 69.9531 176.981 68.7517V68.6477ZM178.324 68.8014C178.324 69.6929 178.508 70.3906 178.876 70.8967C179.244 71.4004 179.752 71.6535 180.401 71.6535C181.253 71.6535 181.873 71.2703 182.265 70.5041V66.8882C181.864 66.1456 181.248 65.7743 180.415 65.7743C179.756 65.7743 179.244 66.0297 178.876 66.5381C178.508 67.0466 178.324 67.801 178.324 68.8014ZM189.777 72.7957C188.713 72.7957 187.847 72.4457 187.179 71.7481C186.511 71.0433 186.176 70.1044 186.176 68.9314V68.6831C186.176 67.9027 186.324 67.2074 186.619 66.5973C186.919 65.98 187.334 65.4999 187.868 65.157C188.406 64.807 188.987 64.632 189.61 64.632C190.631 64.632 191.424 64.9702 191.991 65.6442C192.557 66.3182 192.841 67.2831 192.841 68.5389V69.097H187.519C187.54 69.875 187.764 70.5041 188.194 70.9842C188.63 71.4595 189.182 71.696 189.85 71.696C190.325 71.696 190.726 71.5991 191.056 71.4051C191.384 71.2112 191.672 70.9534 191.92 70.6342L192.739 71.2727C192.081 72.2873 191.094 72.7957 189.777 72.7957ZM189.61 65.7364C189.069 65.7364 188.614 65.9374 188.245 66.3348C187.877 66.7273 187.651 67.2807 187.563 67.9949H191.498V67.8909C191.46 67.2074 191.276 66.68 190.945 66.3064C190.617 65.9256 190.171 65.7364 189.61 65.7364ZM195.67 72.6491V65.8192H194.429V64.7763H195.67V64.1094C195.67 63.232 195.918 62.5462 196.418 62.0566C196.921 61.5671 197.631 61.3235 198.545 61.3235C199.088 61.3235 199.772 61.4701 200.598 61.7657L200.374 62.9009C199.77 62.6573 199.194 62.5367 198.646 62.5367C198.07 62.5367 197.653 62.6691 197.398 62.9293C197.145 63.1871 197.02 63.5749 197.02 64.0928V64.7763H198.625V65.8192H197.02V72.6491H195.67ZM201.268 72.6491H199.916V64.7763H201.268V72.6491ZM205.54 64.7763L205.585 65.7672C206.184 65.0104 206.97 64.632 207.936 64.632C209.597 64.632 210.435 65.5709 210.449 67.4486V72.6491H209.106V67.4415C209.101 66.874 208.969 66.453 208.714 66.181C208.462 65.9091 208.068 65.7743 207.53 65.7743C207.095 65.7743 206.711 65.8901 206.383 66.1243C206.055 66.356 205.797 66.6611 205.613 67.0395V72.6491H204.27V64.7763H205.54ZM216.552 72.7957C215.488 72.7957 214.619 72.4457 213.954 71.7481C213.286 71.0433 212.951 70.1044 212.951 68.9314V68.6831C212.951 67.9027 213.099 67.2074 213.394 66.5973C213.694 65.98 214.109 65.4999 214.64 65.157C215.181 64.807 215.759 64.632 216.385 64.632C217.404 64.632 218.199 64.9702 218.766 65.6442C219.332 66.3182 219.616 67.2831 219.616 68.5389V69.097H214.294C214.312 69.875 214.537 70.5041 214.969 70.9842C215.405 71.4595 215.957 71.696 216.623 71.696C217.097 71.696 217.499 71.5991 217.829 71.4051C218.159 71.2112 218.447 70.9534 218.695 70.6342L219.514 71.2727C218.856 72.2873 217.869 72.7957 216.552 72.7957ZM216.385 65.7364C215.842 65.7364 215.389 65.9374 215.02 66.3348C214.652 66.7273 214.426 67.2807 214.338 67.9949H218.273V67.8909C218.233 67.2074 218.048 66.68 217.72 66.3064C217.392 65.9256 216.946 65.7364 216.385 65.7364ZM221.666 68.6477C221.666 67.4415 221.954 66.4719 222.523 65.7364C223.094 65.0009 223.842 64.632 224.768 64.632C225.688 64.632 226.415 64.9489 226.953 65.578V61.4748H228.296V72.6491H227.062L226.995 71.8048C226.46 72.4646 225.712 72.7957 224.751 72.7957C223.842 72.7957 223.099 72.4197 222.523 71.6747C221.954 70.9274 221.666 69.9531 221.666 68.7517V68.6477ZM223.012 68.8014C223.012 69.6929 223.193 70.3906 223.562 70.8967C223.93 71.4004 224.437 71.6535 225.086 71.6535C225.938 71.6535 226.561 71.2703 226.953 70.5041V66.8882C226.552 66.1456 225.933 65.7743 225.1 65.7743C224.442 65.7743 223.93 66.0297 223.562 66.5381C223.193 67.0466 223.012 67.801 223.012 68.8014Z" fill="black"/>
<path fill-rule="evenodd" clip-rule="evenodd" d="M119.032 33.2051V36.5545L118.833 36.7526H113.283V39.4274H118.595L118.793 39.6255V42.9725L118.595 43.1706H113.283V45.8854H118.833L119.032 46.0836V49.4329L118.833 49.631H109.198L109 49.4329V33.2051L109.198 33.007H118.833L119.032 33.2051ZM138.968 33.2264L132.546 41.2105L138.968 49.3928L138.75 49.631H133.854L133.677 49.4518L129.929 44.5575L126.182 49.4518L126.005 49.631H121.307L121.068 49.3928L127.293 41.2105L121.068 33.2264L121.307 33.007H126.005L126.182 33.1863L129.929 37.7433L133.677 33.1863L133.854 33.007H138.75L138.968 33.2264ZM151.725 41.5667L151.548 41.7648H151.527C149.743 43.4489 146.691 43.607 145.065 43.6282V49.4329L144.846 49.631H141.002L140.803 49.4329V33.2051L141.002 33.007H147.125C149.129 33.0471 150.594 33.6604 151.508 34.5732L151.647 34.6911C152.598 35.6417 153.013 36.9295 153.013 38.2174C153.013 39.7246 152.499 40.793 151.725 41.5667ZM145.065 40.2199C146.274 40.1798 147.484 40.0005 148.138 39.4462C148.414 39.1302 148.553 38.8117 148.553 38.2975C148.553 37.7621 148.376 37.3871 148.138 37.1088C147.484 36.5545 146.373 36.3752 145.065 36.3563V40.2199ZM165.452 33.2051V36.5545L165.254 36.7526H159.703V39.4274H165.015L165.214 39.6255V42.9725L165.015 43.1706H159.703V45.8854H165.254L165.452 46.0836V49.4329L165.254 49.631H155.619L155.42 49.4329V33.2051L155.619 33.007H165.254L165.452 33.2051ZM168.045 33.007H174.15C176.133 33.0471 177.598 33.6604 178.53 34.5732L178.669 34.6911C179.642 35.6417 180.057 36.9295 180.057 38.2174C180.057 39.7246 179.543 40.8143 178.75 41.5855L178.589 41.7459C178.155 42.1611 177.619 42.4984 177.102 42.7366L181.584 49.4117L181.364 49.631H177.124L176.944 49.4518L172.98 43.5291C172.642 43.548 172.345 43.5669 172.088 43.5669V49.4329L171.89 49.631H168.045L167.847 49.4329V33.2051L168.045 33.007ZM172.088 40.2199C173.298 40.1798 174.507 40.0005 175.16 39.4462C175.439 39.1302 175.578 38.8117 175.578 38.2975C175.578 37.7621 175.399 37.3871 175.16 37.1088C174.507 36.5545 173.376 36.3752 172.088 36.3563V40.2199ZM182.086 36.5545V33.2051L182.285 33.007H194.06L194.258 33.2051V36.5545L194.06 36.7526H190.334V49.4329L190.136 49.631H186.211L186.013 49.4329V36.7526H182.285L182.086 36.5545ZM196.224 47.7677L196.026 47.5695L197.928 44.3594L198.147 44.1424L198.206 44.2013C200.009 45.4302 203.103 46.3407 204.172 45.4892C204.352 45.2911 204.451 45.0528 204.451 44.7368C204.451 44.3405 204.231 43.9631 203.915 43.647C202.707 42.5385 200.13 41.7247 198.662 40.2977L198.504 40.1397C197.869 39.5052 197.473 38.774 197.473 37.8423C197.473 36.5733 197.968 35.2855 198.959 34.335L199.139 34.1769C200.901 32.0164 204.132 31.264 208.394 34.2548L208.592 34.4529L207.046 37.505L206.848 37.722L206.77 37.6631C204.887 36.078 202.825 36.3351 201.973 37.0687C201.775 37.288 201.675 37.4862 201.675 37.7032C201.675 37.9013 201.775 38.0805 201.893 38.2386C202.924 39.1302 205.956 39.8236 207.681 41.4865L207.82 41.6257C208.573 42.3781 209.05 43.3097 209.05 44.5198C209.05 45.7463 208.514 46.9752 207.523 47.9469L207.365 48.0861C205.185 50.2655 200.942 51.117 196.224 47.7677ZM220.054 38.2174C219.162 39.1302 218.744 40.26 218.744 41.3096C218.744 42.3781 219.162 43.5291 220.054 44.4207C220.946 45.2321 222.234 45.7864 224.018 45.7864C225.3 45.7864 226.423 45.5293 227.388 45.0151L227.447 44.975L227.664 45.192L228.457 48.9376L228.28 49.1145C228.259 49.1357 227.051 49.9282 223.443 49.9282C220.946 49.9282 218.546 48.8975 216.821 47.2322L216.663 47.0742C215.136 45.5694 214.185 43.5668 214.185 41.3497C214.185 39.1089 215.157 37.0687 216.703 35.5426L216.861 35.3846C218.586 33.7217 220.946 32.7098 223.443 32.7098C227.07 32.7098 228.259 33.5023 228.28 33.5236L228.457 33.7005L227.664 37.4461L227.447 37.6631L227.388 37.623C226.423 37.1088 225.3 36.8517 224.018 36.8517C222.234 36.8517 220.925 37.4248 220.054 38.2174ZM234.987 33.2051V49.4329L234.789 49.631H230.982L230.784 49.4329V33.2051L230.982 33.007H234.789L234.987 33.2051ZM237.656 33.007H243.761C245.743 33.0471 247.211 33.6604 248.143 34.5732L248.28 34.6911C249.252 35.6417 249.667 36.9295 249.667 38.2174C249.667 39.7246 249.153 40.8143 248.36 41.5855L248.202 41.7459C247.765 42.1611 247.23 42.4984 246.715 42.7366L251.194 49.4117L250.977 49.631H246.734L246.557 49.4518L242.593 43.5291C242.255 43.548 241.958 43.5669 241.701 43.5669V49.4329L241.502 49.631H237.656L237.458 49.4329V33.2051L237.656 33.007ZM241.701 40.2199C242.909 40.1798 244.117 40.0005 244.773 39.4462C245.049 39.1302 245.188 38.8117 245.188 38.2975C245.188 37.7621 245.009 37.3871 244.773 37.1088C244.117 36.5545 242.989 36.3752 241.701 36.3563V40.2199ZM257.665 38.2174C256.773 39.1302 256.358 40.26 256.358 41.3096C256.358 42.3781 256.773 43.5291 257.665 44.4207C258.557 45.2321 259.845 45.7864 261.629 45.7864C262.911 45.7864 264.034 45.5293 264.999 45.0151L265.058 44.975L265.278 45.192L266.071 48.9376L265.891 49.1145C265.872 49.1357 264.662 49.9282 261.056 49.9282C258.557 49.9282 256.159 48.8975 254.434 47.2322L254.276 47.0742C252.749 45.5694 251.798 43.5668 251.798 41.3497C251.798 39.1089 252.768 37.0687 254.314 35.5426L254.474 35.3846C256.197 33.7217 258.557 32.7098 261.056 32.7098C264.683 32.7098 265.872 33.5023 265.891 33.5236L266.071 33.7005L265.278 37.4461L265.058 37.6631L264.999 37.623C264.034 37.1088 262.911 36.8517 261.629 36.8517C259.845 36.8517 258.538 37.4248 257.665 38.2174ZM272.442 33.2051L272.501 45.8854H278.051L278.25 46.0836V49.4329L278.051 49.631H268.416L268.218 49.4329V33.2051L268.416 33.007H272.223L272.442 33.2051ZM290.698 33.2051V36.5545L290.5 36.7526H284.949V39.4274H290.261L290.46 39.6255V42.9725L290.261 43.1706H284.949V45.8854H290.5L290.698 46.0836V49.4329L290.5 49.631H280.867L280.669 49.4329V33.2051L280.867 33.007H290.5L290.698 33.2051Z" fill="black"/>
<path d="M233.033 18.1716C234.472 18.1716 235.762 18.8539 236.618 19.914L235.899 20.5609C235.212 19.7157 234.183 19.1774 233.033 19.1774C230.936 19.1774 229.255 20.9363 229.255 23.1297C229.255 25.3208 230.936 27.0797 233.033 27.0797C235.402 27.0797 237.168 24.8344 236.755 22.4285L237.562 21.6919C238.472 24.8344 236.224 28.069 233.033 28.069C230.422 28.069 228.295 25.8402 228.295 23.1108C228.295 20.3815 230.422 18.1527 233.033 18.1527V18.1716ZM232.174 21.5478L233.459 23.2549L239.143 18.1527L239.914 19.1042L233.289 25.0516L231.231 22.3388L232.155 21.5667L232.174 21.5478Z" fill="black"/>
</svg>
