<svg width="248" height="80" viewBox="0 0 248 80" fill="none" xmlns="http://www.w3.org/2000/svg">
<path d="M40 0C62.0913 0 80 17.9087 80 40C80 62.0913 62.0913 80 40 80C17.9087 80 0 62.0913 0 40C0 17.9087 17.9087 0 40 0Z" fill="#492D21"/>
<path fill-rule="evenodd" clip-rule="evenodd" d="M57.4527 48.7939C57.8628 47.7599 58.8883 46.9839 60.1184 46.9839C61.6563 46.9839 62.9887 48.2769 62.9887 49.8804C62.9887 51.484 61.707 52.777 60.1184 52.777C58.5299 52.777 57.2482 51.484 57.2482 49.8804V49.8288L43.9214 47.1387C43.7225 47.7008 43.4072 48.2009 43.0075 48.6109L48.0406 54.3421C49.1881 53.4901 50.817 53.6477 51.7778 54.7409C52.7893 55.8922 52.6758 57.6459 51.5236 58.6574C50.3723 59.6688 48.6186 59.5553 47.6071 58.4031C46.6472 57.3099 46.7007 55.6745 47.6943 54.6461L42.6659 48.9215C42.0851 49.3925 41.3702 49.6984 40.5895 49.7772L40.7434 56.0883C42.2296 56.1915 43.3575 57.3813 43.3575 58.8816C43.3575 60.4336 42.1274 61.6749 40.5895 61.6749C39.0516 61.6749 37.8215 60.4336 37.8215 58.8816C37.8215 57.4329 38.8987 56.2431 40.2817 56.0883L40.1288 49.7772C38.0786 49.674 36.4375 47.9663 36.4375 45.8457C36.4375 44.7592 36.8475 43.8284 37.5147 43.104L36.5407 42.0174C36.1813 42.2248 35.7713 42.3796 35.3612 42.3796C34.2334 42.3796 33.311 41.4488 33.311 40.3106C33.311 39.1725 34.2334 38.2417 35.3612 38.2417C36.4891 38.2417 37.4114 39.1725 37.4114 40.3106C37.4114 40.8277 37.2069 41.2931 36.8991 41.6552L37.8731 42.7418C38.4886 42.2764 39.2055 41.9658 40.0256 41.9142L40.5388 32.913L33.6704 31.7233C33.5672 31.9306 33.4133 32.1371 33.2088 32.3444C32.8503 32.7066 32.3371 32.913 31.8248 32.913C31.6202 32.913 31.3631 32.8614 31.1586 32.7582L28.0828 37.827C28.2367 37.9311 28.339 38.0343 28.4422 38.1375C29.8262 39.6379 29.7746 41.9658 28.2883 43.363C28.2367 43.4146 28.186 43.453 28.1344 43.4915C28.0828 43.5309 28.0321 43.5694 27.9805 43.621L31.8248 49.6215C32.0809 49.5182 32.3887 49.415 32.6964 49.415C33.8233 49.415 34.7466 50.3458 34.7466 51.484C34.7466 52.6222 33.8233 53.553 32.6964 53.553C31.5686 53.553 30.6462 52.6222 30.6462 51.484C30.6462 50.8638 30.9024 50.2942 31.3631 49.932L27.5189 44.0348C27.0066 44.3454 26.392 44.5002 25.7764 44.5002C25.2641 44.5002 24.8025 44.397 24.3924 44.2422L22.65 46.6217C23.1116 47.0871 23.4185 47.8115 23.4185 48.5358C23.4185 50.1394 22.1884 51.3808 20.5998 51.3808C19.0103 51.3808 17.7802 50.1394 17.7802 48.5358C17.7802 46.9323 19.0619 45.69 20.5998 45.69C21.0098 45.69 21.4199 45.7941 21.7783 45.9489L23.4185 43.621C23.2646 43.5178 23.1623 43.4146 23.0084 43.2588C21.9322 42.069 21.7276 40.259 22.4961 38.9135L20.5998 37.6721C20.2404 38.0859 19.6774 38.3965 19.0619 38.3965C17.9341 38.3965 17.0117 37.4657 17.0117 36.3275C17.0117 35.1894 17.9341 34.2576 19.0619 34.2576C20.1898 34.2576 21.1121 35.1894 21.1121 36.3275C21.1121 36.6372 21.0614 36.9478 20.9076 37.2067L22.8039 38.4481C22.9062 38.2933 23.06 38.1375 23.2139 37.9827C23.8801 37.3616 24.8025 36.9994 25.7248 36.9994C26.2381 36.9994 26.7504 37.1035 27.212 37.3099L30.3385 32.2403C29.6723 31.4643 29.723 30.3787 30.3385 29.6027L26.9559 25.8776C26.5965 26.085 26.2381 26.2398 25.7764 26.2398C24.6486 26.2398 23.7262 25.309 23.7262 24.1708C23.7262 23.0327 24.6486 22.1019 25.7764 22.1019C26.9043 22.1019 27.8266 23.0327 27.8266 24.1708C27.8266 24.6362 27.6221 25.1016 27.3143 25.4638L30.6969 29.1889C31.0563 28.9815 31.4663 28.8267 31.8764 28.8267C32.4403 28.8267 33.0033 29.0331 33.3626 29.4469C33.6704 29.8091 33.8233 30.2229 33.875 30.6883L40.7434 31.9306L41.3073 23.8603C40.0772 23.5497 39.2055 22.4115 39.2055 21.1185C39.2055 19.5666 40.4356 18.3252 41.9735 18.3252C43.5114 18.3252 44.7415 19.5666 44.7415 21.1185C44.7415 22.5673 43.6652 23.7571 42.2812 23.9119L41.7173 32.0855L46.0232 32.8098C46.1771 32.396 46.4333 32.0339 46.7401 31.7233C47.2533 31.2063 47.9195 30.9473 48.6364 30.9473C49.4058 30.9473 50.1752 31.2579 50.6875 31.8265C51.6615 32.8614 51.6615 34.465 50.7898 35.5516L51.8154 36.5856C52.5322 35.8621 53.5578 35.3958 54.6857 35.3958C55.0948 35.3958 55.5048 35.5 55.9158 35.6032L56.8381 32.2919C56.582 32.1887 56.3765 32.0339 56.1719 31.8265C55.7619 31.4643 55.608 30.9473 55.608 30.3787C55.608 29.8091 55.8126 29.2921 56.2226 28.9299C56.582 28.5677 57.0943 28.3604 57.6066 28.3604C58.1705 28.3604 58.7344 28.5677 59.0929 28.9815C59.8623 29.8091 59.8107 31.1021 58.9906 31.8781C58.6322 32.2403 58.1189 32.4476 57.6066 32.4476C57.5559 32.4476 57.5043 32.4345 57.4527 32.4214C57.4021 32.4082 57.3504 32.396 57.2998 32.396L56.3258 35.758C57.7605 36.3791 58.7344 37.827 58.7344 39.4831C58.7344 41.7585 56.8888 43.621 54.6341 43.621C53.1478 43.621 51.866 42.7934 51.1482 41.6036L43.973 44.7592C44.0753 45.1213 44.126 45.4835 44.126 45.8457V46.1047L57.4527 48.7939ZM57.6066 29.3437C57.3504 29.3437 57.1459 29.4469 56.9404 29.6027C56.7349 29.7575 56.582 30.0681 56.582 30.3261C56.582 30.5851 56.6326 30.8441 56.8381 31.0505C57.1966 31.4643 57.8628 31.4643 58.2737 31.1021C58.6828 30.6883 58.6828 30.0681 58.3244 29.6543C58.1705 29.4469 57.8628 29.3437 57.6066 29.3437ZM18.088 36.3275C18.088 36.8962 18.5496 37.3616 19.1135 37.3616C19.6774 37.3616 20.1382 36.8962 20.1382 36.3275C20.1382 35.758 19.6774 35.2926 19.1135 35.2926C18.5496 35.2926 18.088 35.758 18.088 36.3275ZM18.8574 48.4317C18.8574 49.415 19.6774 50.2426 20.6505 50.2426C21.6244 50.2426 22.4445 49.415 22.4445 48.4317C22.4445 47.4493 21.6244 46.6217 20.6505 46.6217C19.6774 46.6217 18.8574 47.4493 18.8574 48.4317ZM32.6448 52.5706C33.2088 52.5706 33.6704 52.1052 33.6704 51.5356C33.6704 50.967 33.2088 50.5016 32.6448 50.5016C32.0809 50.5016 31.6202 50.967 31.6202 51.5356C31.6202 52.1052 32.0809 52.5706 32.6448 52.5706ZM25.7764 43.363C26.4426 43.363 27.0582 43.104 27.5705 42.6386C28.6467 41.6552 28.6983 39.9485 27.6728 38.8619C27.1604 38.3449 26.4426 38.0343 25.7248 38.0343C25.0586 38.0343 24.444 38.2933 23.9317 38.7587C22.9062 39.7936 22.8546 41.4488 23.8285 42.5344C24.3418 43.0524 25.0586 43.363 25.7764 43.363ZM24.7518 24.1192C24.7518 24.6878 25.2125 25.1532 25.7764 25.1532C26.3404 25.1532 26.7504 24.6878 26.802 24.1192C26.802 23.5497 26.3404 23.0843 25.7764 23.0843C25.2125 23.0843 24.7518 23.5497 24.7518 24.1192ZM31.1586 31.5685C31.517 31.9822 32.1832 31.9822 32.5932 31.6201C32.9526 31.2063 33.0033 30.5851 32.5932 30.1713C32.4403 29.9649 32.1325 29.8607 31.8764 29.8607C31.6202 29.8607 31.4147 29.9649 31.2102 30.1197C30.8001 30.5335 30.8001 31.1547 31.1586 31.5685ZM57.7089 39.4831C57.7089 37.7753 56.3258 36.3791 54.6341 36.3791C52.9432 36.3791 51.5592 37.7753 51.5592 39.4831C51.5592 41.1898 52.9432 42.587 54.6341 42.587C56.3258 42.587 57.7089 41.1898 57.7089 39.4831ZM48.6364 31.9822C48.1757 31.9822 47.714 32.1371 47.4072 32.4476C46.6894 33.1204 46.6378 34.206 47.304 34.982C47.6118 35.3442 48.0734 35.5516 48.5857 35.5516C49.0474 35.5516 49.5081 35.3958 49.8158 35.0862C50.5336 34.4134 50.5843 33.2752 49.9181 32.5509C49.6104 32.1887 49.1496 31.9822 48.6364 31.9822ZM46.5871 35.6548C46.0739 35.1378 45.8177 34.465 45.8177 33.7922L41.615 33.0163L40.9995 41.9658C42.0758 42.1732 42.999 42.845 43.563 43.7768L50.7382 40.6212C50.6359 40.2074 50.5843 39.8453 50.5843 39.4315C50.5843 38.4481 50.9437 37.5689 51.456 36.8962L50.4314 35.8621C49.9181 36.2759 49.3035 36.534 48.6364 36.534C47.8679 36.534 47.0994 36.2234 46.5871 35.6548ZM41.8712 19.256C40.8972 19.256 40.1288 20.032 40.1288 21.0153C40.1288 21.9977 40.8972 22.7737 41.8712 22.7737C42.8452 22.7737 43.6136 21.9977 43.6136 21.0153C43.6136 20.032 42.8452 19.256 41.8712 19.256ZM34.3366 40.3106C34.3366 40.8793 34.7973 41.3447 35.3612 41.3447C35.9252 41.3447 36.3868 40.8793 36.3868 40.3106C36.3868 39.7411 35.9252 39.2757 35.3612 39.2757C34.7973 39.2757 34.3366 39.7411 34.3366 40.3106ZM40.5895 60.64C41.5634 60.64 42.3319 59.864 42.3319 58.8816C42.3319 57.8983 41.5634 57.1223 40.5895 57.1223C39.6155 57.1223 38.847 57.8983 38.847 58.8816C38.847 59.864 39.6155 60.64 40.5895 60.64ZM37.4114 45.7941C37.4114 47.3977 38.6932 48.6907 40.2817 48.6907C41.8196 48.6907 43.1013 47.4493 43.1013 45.8457C43.1013 44.2422 41.8712 42.8966 40.2817 42.8966C38.6932 42.8966 37.4114 44.1905 37.4114 45.7941ZM58.2737 49.8288C58.2737 50.8638 59.0929 51.6914 60.1184 51.6914C61.0924 51.6914 61.9632 50.8638 61.9632 49.8288C61.9632 48.7939 61.144 47.9663 60.1184 47.9663C59.0929 47.9663 58.2737 48.7939 58.2737 49.8288ZM50.8592 57.9001C51.593 57.2565 51.6652 56.1389 51.0206 55.4052C50.377 54.6714 49.2594 54.5992 48.5257 55.2438C47.7919 55.8875 47.7197 57.005 48.3643 57.7387C49.008 58.4725 50.1255 58.5448 50.8592 57.9001Z" fill="#F6DC8E"/>
<path d="M40.0003 5.51733C59.0447 5.51733 74.4831 20.9558 74.4831 40.0001C74.4831 59.0444 59.0447 74.4828 40.0003 74.4828C20.956 74.4828 5.51758 59.0444 5.51758 40.0001C5.51758 20.9558 20.956 5.51733 40.0003 5.51733Z" stroke="white" stroke-width="2"/>
<path fill-rule="evenodd" clip-rule="evenodd" d="M100.533 61.829H99.3396V57.6607H94.8042V61.829H93.6191V52.8141H94.8042V56.6906H99.3396V52.8141H100.533V61.829ZM104.399 61.829H103.256V55.1287H104.399V61.829ZM103.162 53.3535C103.162 53.1664 103.218 53.0114 103.331 52.8826C103.445 52.7537 103.614 52.6913 103.837 52.6913C104.06 52.6913 104.228 52.7537 104.343 52.8826C104.457 53.0114 104.516 53.1664 104.516 53.3535C104.516 53.5387 104.457 53.6937 104.343 53.8164C104.228 53.9412 104.06 54.0036 103.837 54.0036C103.614 54.0036 103.445 53.9412 103.331 53.8164C103.218 53.6937 103.162 53.5387 103.162 53.3535ZM110.162 56.1592C109.987 56.129 109.8 56.1149 109.599 56.1149C108.85 56.1149 108.34 56.435 108.073 57.075V61.829H106.93V55.1287H108.041L108.061 55.9036C108.434 55.3058 108.967 55.0059 109.654 55.0059C109.877 55.0059 110.045 55.0361 110.162 55.0925V56.1592ZM113.155 61.829H112.012V55.1287H113.155V61.829ZM111.919 53.3535C111.919 53.1664 111.975 53.0114 112.086 52.8826C112.202 52.7537 112.371 52.6913 112.594 52.6913C112.815 52.6913 112.984 52.7537 113.1 52.8826C113.215 53.0114 113.273 53.1664 113.273 53.3535C113.273 53.5387 113.215 53.6937 113.1 53.8164C112.984 53.9412 112.815 54.0036 112.594 54.0036C112.371 54.0036 112.202 53.9412 112.086 53.8164C111.975 53.6937 111.919 53.5387 111.919 53.3535ZM116.768 55.1287L116.804 55.9721C117.316 55.328 117.983 55.0059 118.807 55.0059C120.219 55.0059 120.932 55.805 120.944 57.4031V61.829H119.801V57.397C119.797 56.914 119.686 56.5557 119.467 56.3243C119.255 56.0928 118.917 55.9781 118.461 55.9781C118.09 55.9781 117.764 56.0767 117.485 56.276C117.204 56.4732 116.987 56.7329 116.83 57.0549V61.829H115.687V55.1287H116.768ZM123.093 58.4235C123.093 57.3789 123.334 56.5497 123.816 55.9338C124.298 55.3159 124.937 55.0059 125.73 55.0059C126.546 55.0059 127.182 55.2938 127.64 55.8714L127.697 55.1287H128.739V61.668C128.739 62.5355 128.482 63.2178 127.968 63.7169C127.458 64.2181 126.769 64.4656 125.905 64.4656C125.423 64.4656 124.951 64.363 124.489 64.1557C124.027 63.9504 123.675 63.6666 123.432 63.3083L124.025 62.62C124.515 63.2278 125.116 63.5317 125.825 63.5317C126.379 63.5317 126.813 63.3748 127.12 63.0628C127.433 62.7468 127.59 62.306 127.59 61.7364V61.1588C127.134 61.6881 126.51 61.9538 125.718 61.9538C124.937 61.9538 124.302 61.6378 123.816 61.0058C123.334 60.3738 123.093 59.5124 123.093 58.4235ZM124.242 58.5543C124.242 59.3091 124.396 59.9029 124.706 60.3376C125.015 60.7663 125.447 60.9816 126.003 60.9816C126.724 60.9816 127.253 60.6516 127.59 59.9954V56.9381C127.241 56.2981 126.714 55.9781 126.015 55.9781C125.459 55.9781 125.025 56.1955 124.712 56.6282C124.399 57.0609 124.242 57.703 124.242 58.5543ZM138.479 58.182H136.366V61.829H135.175V52.8141H138.151C139.166 52.8141 139.943 53.0456 140.487 53.5085C141.036 53.9694 141.309 54.6417 141.309 55.5252C141.309 56.0888 141.156 56.5759 140.853 56.9945C140.551 57.4111 140.132 57.7231 139.591 57.9284L141.704 61.7545V61.829H140.431L138.479 58.182ZM136.366 57.2099H138.189C138.778 57.2099 139.246 57.0569 139.591 56.751C139.941 56.447 140.118 56.0385 140.118 55.5252C140.118 54.9697 139.949 54.543 139.615 54.2452C139.286 53.9473 138.808 53.7963 138.183 53.7923H136.366V57.2099ZM146.268 61.9538C145.362 61.9538 144.625 61.6559 144.056 61.0622C143.488 60.4624 143.205 59.6633 143.205 58.665V58.4537C143.205 57.7895 143.329 57.1978 143.58 56.6785C143.835 56.1532 144.191 55.7446 144.643 55.4528C145.101 55.1549 145.595 55.0059 146.127 55.0059C146.995 55.0059 147.672 55.2938 148.154 55.8674C148.634 56.441 148.875 57.2622 148.875 58.3309V58.8059H144.348C144.364 59.4681 144.555 60.0035 144.922 60.4121C145.292 60.8166 145.762 61.0179 146.33 61.0179C146.734 61.0179 147.075 60.9354 147.356 60.7703C147.636 60.6053 147.881 60.3859 148.092 60.1142L148.789 60.6576C148.228 61.5211 147.389 61.9538 146.268 61.9538ZM146.127 55.9459C145.665 55.9459 145.278 56.117 144.964 56.4551C144.651 56.7892 144.458 57.2602 144.384 57.868H147.732V57.7795C147.7 57.1978 147.543 56.7489 147.264 56.4309C146.983 56.1069 146.603 55.9459 146.127 55.9459ZM150.622 58.4235C150.622 57.397 150.865 56.5718 151.352 55.9459C151.838 55.3199 152.474 55.0059 153.26 55.0059C154.043 55.0059 154.664 55.2756 155.12 55.811V52.319H156.263V61.829H155.212L155.158 61.1105C154.7 61.672 154.063 61.9538 153.248 61.9538C152.474 61.9538 151.842 61.6338 151.352 60.9998C150.865 60.3638 150.622 59.5345 150.622 58.5121V58.4235ZM151.765 58.5543C151.765 59.3131 151.922 59.9069 152.235 60.3376C152.549 60.7663 152.98 60.9816 153.533 60.9816C154.258 60.9816 154.786 60.6556 155.12 60.0035V56.9261C154.778 56.2941 154.254 55.9781 153.545 55.9781C152.985 55.9781 152.549 56.1955 152.235 56.6282C151.922 57.0609 151.765 57.703 151.765 58.5543ZM161.513 61.9538C160.607 61.9538 159.87 61.6559 159.301 61.0622C158.733 60.4624 158.448 59.6633 158.448 58.665V58.4537C158.448 57.7895 158.574 57.1978 158.825 56.6785C159.081 56.1532 159.434 55.7446 159.888 55.4528C160.346 55.1549 160.84 55.0059 161.37 55.0059C162.24 55.0059 162.915 55.2938 163.397 55.8674C163.879 56.441 164.12 57.2622 164.12 58.3309V58.8059H159.591C159.609 59.4681 159.8 60.0035 160.165 60.4121C160.537 60.8166 161.007 61.0179 161.575 61.0179C161.979 61.0179 162.32 60.9354 162.602 60.7703C162.881 60.6053 163.126 60.3859 163.337 60.1142L164.034 60.6576C163.473 61.5211 162.634 61.9538 161.513 61.9538ZM161.37 55.9459C160.91 55.9459 160.523 56.117 160.209 56.4551C159.896 56.7892 159.703 57.2602 159.629 57.868H162.977V57.7795C162.945 57.1978 162.788 56.7489 162.507 56.4309C162.228 56.1069 161.848 55.9459 161.37 55.9459ZM166.528 61.829V56.0163H165.472V55.1287H166.528V54.5611C166.528 53.8144 166.739 53.2308 167.165 52.8141C167.593 52.3975 168.197 52.1902 168.975 52.1902C169.437 52.1902 170.019 52.315 170.722 52.5666L170.531 53.5327C170.017 53.3254 169.527 53.2227 169.061 53.2227C168.571 53.2227 168.216 53.3354 167.999 53.5568C167.784 53.7762 167.677 54.1063 167.677 54.5471V55.1287H169.043V56.0163H167.677V61.829H166.528ZM171.293 61.829H170.142V55.1287H171.293V61.829ZM174.928 55.1287L174.966 55.9721C175.477 55.328 176.145 55.0059 176.967 55.0059C178.381 55.0059 179.094 55.805 179.106 57.4031V61.829H177.963V57.397C177.959 56.914 177.847 56.5557 177.63 56.3243C177.415 56.0928 177.079 55.9781 176.621 55.9781C176.252 55.9781 175.924 56.0767 175.645 56.276C175.366 56.4732 175.147 56.7329 174.99 57.0549V61.829H173.848V55.1287H174.928ZM184.3 61.9538C183.394 61.9538 182.655 61.6559 182.089 61.0622C181.52 60.4624 181.235 59.6633 181.235 58.665V58.4537C181.235 57.7895 181.362 57.1978 181.613 56.6785C181.868 56.1532 182.221 55.7446 182.673 55.4528C183.133 55.1549 183.625 55.0059 184.158 55.0059C185.025 55.0059 185.702 55.2938 186.184 55.8674C186.666 56.441 186.907 57.2622 186.907 58.3309V58.8059H182.378C182.394 59.4681 182.585 60.0035 182.952 60.4121C183.324 60.8166 183.794 61.0179 184.36 61.0179C184.764 61.0179 185.106 60.9354 185.387 60.7703C185.668 60.6053 185.913 60.3859 186.124 60.1142L186.821 60.6576C186.261 61.5211 185.421 61.9538 184.3 61.9538ZM184.158 55.9459C183.696 55.9459 183.31 56.117 182.997 56.4551C182.683 56.7892 182.49 57.2602 182.416 57.868H185.764V57.7795C185.73 57.1978 185.574 56.7489 185.294 56.4309C185.015 56.1069 184.636 55.9459 184.158 55.9459ZM188.653 58.4235C188.653 57.397 188.898 56.5718 189.382 55.9459C189.868 55.3199 190.505 55.0059 191.292 55.0059C192.075 55.0059 192.694 55.2756 193.152 55.811V52.319H194.295V61.829H193.244L193.188 61.1105C192.732 61.672 192.095 61.9538 191.278 61.9538C190.505 61.9538 189.872 61.6338 189.382 60.9998C188.898 60.3638 188.653 59.5345 188.653 58.5121V58.4235ZM189.798 58.5543C189.798 59.3131 189.952 59.9069 190.266 60.3376C190.579 60.7663 191.011 60.9816 191.563 60.9816C192.288 60.9816 192.819 60.6556 193.152 60.0035V56.9261C192.81 56.2941 192.284 55.9781 191.575 55.9781C191.015 55.9781 190.579 56.1955 190.266 56.6282C189.952 57.0609 189.798 57.703 189.798 58.5543Z" fill="black"/>
<path fill-rule="evenodd" clip-rule="evenodd" d="M101.303 28.2596V31.1101L101.135 31.2787H96.4108V33.5551H100.932L101.1 33.7237V36.5722L100.932 36.7408H96.4108V39.0514H101.135L101.303 39.22V42.0705L101.135 42.2391H92.9343L92.7656 42.0705V28.2596L92.9343 28.091H101.135L101.303 28.2596ZM118.27 28.2777L112.805 35.0727L118.27 42.0363L118.085 42.2391H113.918L113.767 42.0865L110.578 37.9212L107.389 42.0865L107.238 42.2391H103.239L103.036 42.0363L108.335 35.0727L103.036 28.2777L103.239 28.091H107.238L107.389 28.2436L110.578 32.1218L113.767 28.2436L113.918 28.091H118.085L118.27 28.2777ZM129.127 35.3758L128.977 35.5444H128.958C127.44 36.9777 124.843 37.1122 123.46 37.1303V42.0705L123.273 42.2391H120.001L119.832 42.0705V28.2596L120.001 28.091H125.213C126.918 28.1251 128.165 28.647 128.942 29.4239L129.061 29.5243C129.87 30.3332 130.224 31.4293 130.224 32.5253C130.224 33.808 129.786 34.7174 129.127 35.3758ZM123.46 34.2296C124.488 34.1955 125.518 34.0429 126.074 33.5712C126.309 33.3022 126.428 33.0312 126.428 32.5936C126.428 32.1379 126.277 31.8187 126.074 31.5818C125.518 31.1101 124.572 30.9575 123.46 30.9415V34.2296ZM140.81 28.2596V31.1101L140.641 31.2787H135.917V33.5551H140.438L140.607 33.7237V36.5722L140.438 36.7408H135.917V39.0514H140.641L140.81 39.22V42.0705L140.641 42.2391H132.441L132.272 42.0705V28.2596L132.441 28.091H140.641L140.81 28.2596ZM143.017 28.091H148.213C149.9 28.1251 151.147 28.647 151.94 29.4239L152.059 29.5243C152.886 30.3332 153.24 31.4293 153.24 32.5253C153.24 33.808 152.802 34.7355 152.127 35.3919L151.99 35.5284C151.621 35.8817 151.165 36.1687 150.725 36.3715L154.539 42.0524L154.352 42.2391H150.743L150.591 42.0865L147.217 37.046C146.929 37.062 146.676 37.0781 146.457 37.0781V42.0705L146.289 42.2391H143.017L142.848 42.0705V28.2596L143.017 28.091ZM146.457 34.2296C147.488 34.1955 148.516 34.0429 149.072 33.5712C149.309 33.3022 149.428 33.0312 149.428 32.5936C149.428 32.1379 149.275 31.8187 149.072 31.5818C148.516 31.1101 147.554 30.9575 146.457 30.9415V34.2296ZM154.967 31.1101V28.2596L155.136 28.091H165.157L165.326 28.2596V31.1101L165.157 31.2787H161.986V42.0705L161.817 42.2391H158.477L158.309 42.0705V31.2787H155.136L154.967 31.1101ZM166.999 40.6533L166.83 40.4846L168.449 37.7526L168.636 37.5679L168.686 37.6181C170.22 38.6639 172.853 39.4388 173.763 38.7141C173.916 38.5455 174 38.3427 174 38.0738C174 37.7365 173.813 37.4153 173.544 37.1463C172.516 36.2029 170.323 35.5103 169.074 34.2958L168.939 34.1613C168.399 33.6214 168.061 32.9991 168.061 32.2061C168.061 31.1262 168.483 30.0301 169.327 29.2212L169.479 29.0867C170.98 27.2479 173.729 26.6075 177.356 29.1529L177.525 29.3215L176.209 31.9191L176.041 32.1038L175.974 32.0536C174.372 30.7046 172.616 30.9234 171.891 31.5477C171.723 31.7344 171.638 31.903 171.638 32.0877C171.638 32.2563 171.723 32.4089 171.823 32.5434C172.701 33.3022 175.282 33.8924 176.75 35.3076L176.868 35.426C177.509 36.0664 177.914 36.8593 177.914 37.8891C177.914 38.9329 177.459 39.9788 176.615 40.8058L176.481 40.9242C174.625 42.7791 171.014 43.5037 166.999 40.6533ZM187.28 32.5253C186.52 33.3022 186.165 34.2637 186.165 35.157C186.165 36.0664 186.52 37.046 187.28 37.8048C188.039 38.4953 189.135 38.967 190.654 38.967C191.744 38.967 192.7 38.7482 193.522 38.3106L193.572 38.2765L193.757 38.4612L194.431 41.6489L194.281 41.7995C194.263 41.8175 193.234 42.492 190.164 42.492C188.039 42.492 185.996 41.6148 184.528 40.1976L184.394 40.0631C183.094 38.7824 182.285 37.0781 182.285 35.1911C182.285 33.2841 183.112 31.5477 184.428 30.2489L184.562 30.1144C186.03 28.6992 188.039 27.8381 190.164 27.8381C193.25 27.8381 194.263 28.5125 194.281 28.5306L194.431 28.6812L193.757 31.8689L193.572 32.0536L193.522 32.0195C192.7 31.5818 191.744 31.363 190.654 31.363C189.135 31.363 188.021 31.8508 187.28 32.5253ZM199.988 28.2596V42.0705L199.82 42.2391H196.58L196.412 42.0705V28.2596L196.58 28.091H199.82L199.988 28.2596ZM202.26 28.091H207.456C209.143 28.1251 210.392 28.647 211.185 29.4239L211.302 29.5243C212.129 30.3332 212.483 31.4293 212.483 32.5253C212.483 33.808 212.045 34.7355 211.37 35.3919L211.235 35.5284C210.864 35.8817 210.408 36.1687 209.97 36.3715L213.782 42.0524L213.597 42.2391H209.986L209.836 42.0865L206.461 37.046C206.174 37.062 205.921 37.0781 205.702 37.0781V42.0705L205.534 42.2391H202.26L202.091 42.0705V28.2596L202.26 28.091ZM205.702 34.2296C206.731 34.1955 207.759 34.0429 208.317 33.5712C208.552 33.3022 208.671 33.0312 208.671 32.5936C208.671 32.1379 208.518 31.8187 208.317 31.5818C207.759 31.1101 206.799 30.9575 205.702 30.9415V34.2296ZM219.289 32.5253C218.53 33.3022 218.176 34.2637 218.176 35.157C218.176 36.0664 218.53 37.046 219.289 37.8048C220.048 38.4953 221.145 38.967 222.663 38.967C223.754 38.967 224.71 38.7482 225.531 38.3106L225.581 38.2765L225.768 38.4612L226.443 41.6489L226.29 41.7995C226.274 41.8175 225.244 42.492 222.175 42.492C220.048 42.492 218.008 41.6148 216.539 40.1976L216.405 40.0631C215.105 38.7824 214.296 37.0781 214.296 35.1911C214.296 33.2841 215.122 31.5477 216.437 30.2489L216.574 30.1144C218.04 28.6992 220.048 27.8381 222.175 27.8381C225.262 27.8381 226.274 28.5125 226.29 28.5306L226.443 28.6812L225.768 31.8689L225.581 32.0536L225.531 32.0195C224.71 31.5818 223.754 31.363 222.663 31.363C221.145 31.363 220.032 31.8508 219.289 32.5253ZM231.865 28.2596L231.916 39.0514H236.639L236.808 39.22V42.0705L236.639 42.2391H228.439L228.27 42.0705V28.2596L228.439 28.091H231.679L231.865 28.2596ZM247.402 28.2596V31.1101L247.233 31.2787H242.51V33.5551H247.031L247.199 33.7237V36.5722L247.031 36.7408H242.51V39.0514H247.233L247.402 39.22V42.0705L247.233 42.2391H239.035L238.867 42.0705V28.2596L239.035 28.091H247.233L247.402 28.2596Z" fill="black"/>
<path d="M198.325 15.4653C199.55 15.4653 200.648 16.046 201.376 16.9482L200.765 17.4988C200.18 16.7794 199.304 16.3213 198.325 16.3213C196.541 16.3213 195.11 17.8183 195.11 19.685C195.11 21.5497 196.541 23.0467 198.325 23.0467C200.341 23.0467 201.845 21.1357 201.493 19.0882L202.18 18.4613C202.955 21.1357 201.041 23.8886 198.325 23.8886C196.103 23.8886 194.293 21.9917 194.293 19.6689C194.293 17.3461 196.103 15.4492 198.325 15.4492V15.4653ZM197.595 18.3387L198.688 19.7915L203.526 15.4492L204.182 16.259L198.543 21.3206L196.791 19.0118L197.578 18.3548L197.595 18.3387Z" fill="black"/>
</svg>
