<svg width="685" height="475" viewBox="0 0 685 475" fill="none" xmlns="http://www.w3.org/2000/svg">
<ellipse opacity="0.05" cx="342.5" cy="444.145" rx="342.5" ry="30.5473" fill="#492D21"/>
<g opacity="0.349">
<path opacity="0.349" d="M650.79 315.432C641.511 282.145 671.009 280.856 671.654 237.967C671.927 220.423 662.317 202.557 639.197 194.359C627.827 190.334 616.507 187.566 606.393 181.162C583.356 166.568 583.769 138.801 577.481 115.125C563.682 63.1294 510.559 21.8269 456.784 23.1739C418.022 24.1407 382.971 25.3225 347.63 58.2373C323.453 80.7479 307.736 108.456 285.278 131.67C261.505 156.254 232.535 168.047 200.004 175.939C169.241 183.409 135.767 192.301 112.218 214.696C90.0898 235.744 93.3206 257.759 102.807 283.6C113.267 312.102 90.5773 331.489 66.9204 342.587C47.0067 351.933 20.4908 351.115 11.2446 373.469C1.21333 397.707 31.0013 398.12 58.6905 398.12C86.388 398.12 444.968 395.988 545.189 398.954C572.168 399.756 658.227 407.103 670.406 373.469C678.686 350.578 657.276 338.678 650.79 315.432Z" fill="#CAAEA2"/>
</g>
<path d="M306.425 206.176C301.178 221.092 285.611 237.777 267.829 237.777C247.643 237.777 242.718 221.415 236.835 216.233C222.358 203.507 213.302 200.54 194.875 197.4C182.886 195.35 170.07 178.525 173.177 161.832C178.845 131.372 233.761 116.852 247.667 94.5732C258.996 76.4176 258.401 65.5672 278.215 52.5435" stroke="#A1DBFF" stroke-width="2.113" stroke-dasharray="6 6"/>
<path d="M282.526 36.8236C282.576 36.7079 279.642 38.4846 273.734 42.1455L276.04 57.0782L280.386 45.9055L291.839 43.7238L308.158 28.3779L282.526 36.8236Z" fill="#80CFFF"/>
<path d="M308.157 28.3779L276.039 57.0782L280.385 45.9055L308.157 28.3779Z" fill="#A4E1FF"/>
<path d="M308.156 28.3779L265.668 37.3938L273.733 42.1455L308.156 28.3779L280.384 45.9055L294.109 54.3842L308.156 28.3779Z" fill="#C3ECFE"/>
<path d="M517.887 43.1619C519.672 47.3351 517.739 52.1694 513.566 53.9544C509.401 55.7394 504.568 53.8139 502.783 49.6407C500.99 45.4675 502.923 40.6331 507.096 38.8481C511.269 37.0632 516.094 38.9969 517.887 43.1619Z" fill="#FCCC4F"/>
<path d="M507.164 48.178L511.37 49.7894L513.047 42.7239" stroke="white" stroke-width="2.113" stroke-linecap="round" stroke-linejoin="round" stroke-dasharray="6 6"/>
<path d="M355.113 67.8956C355.113 69.5649 353.758 70.9202 352.089 70.9202C350.42 70.9202 349.064 69.5649 349.064 67.8956C349.064 66.2264 350.42 64.8711 352.089 64.8711C353.758 64.8711 355.113 66.2264 355.113 67.8956Z" fill="#FCCC4F"/>
<path d="M472.316 51.4587L430.406 37.4929L439.487 10.2471L481.389 24.2129L472.316 51.4587Z" fill="#9BDFFF"/>
<path d="M481.39 24.213L439.488 10.2471L466.186 0L481.39 24.213Z" fill="#9BDFFF"/>
<path d="M468.358 49.0044L434.811 37.8234L444.255 9.48682L477.803 20.6678L468.358 49.0044Z" fill="white"/>
<path d="M439.487 10.2471L430.406 37.4929L455.575 31.8156L439.487 10.2471Z" fill="#C2EBFF"/>
<path d="M481.388 24.2129L472.315 51.4587L455.574 31.8156L481.388 24.2129Z" fill="#C2EBFF"/>
<path d="M472.316 51.4588L430.406 37.493L457.104 27.2458L472.316 51.4588Z" fill="#C2EBFF"/>
<path d="M430.406 37.4928C432.563 36.4598 434.753 35.526 436.926 34.5344C439.115 33.584 441.305 32.642 443.511 31.7412C447.907 29.8984 452.344 28.1547 456.79 26.4358L457.459 26.1714L457.839 26.7829C460.36 30.8322 462.863 34.8814 465.284 38.9886C466.499 41.038 467.689 43.1122 468.87 45.1782C470.019 47.2772 471.209 49.3349 472.316 51.4587C470.878 49.5497 469.54 47.5747 468.143 45.6327C466.796 43.6742 465.45 41.7074 464.127 39.7158C461.475 35.7574 458.914 31.7412 456.36 27.7167L457.41 28.0638C452.956 29.7579 448.494 31.4272 443.999 33.0056C441.751 33.8072 439.496 34.5674 437.231 35.3277C434.959 36.0467 432.703 36.8234 430.406 37.4928Z" fill="#9BDFFF"/>
<path d="M547.322 231.1L569.541 318.225L565.311 319.3L537.828 233.521" fill="#88D2FF"/>
<path d="M435.443 103.407C435.592 102.705 435.766 102.002 435.956 101.292" stroke="#A1DBFF" stroke-width="2.113" stroke-dasharray="6 6"/>
<path d="M437.369 97.1103C443.715 81.2438 461.332 65.4269 487.881 71.5421C507.233 75.9963 512.372 94.218 522.759 105.928C530.46 114.613 541.4 121.737 544.986 134C553.257 162.295 541.995 192.929 521.866 202.557C510.711 207.887 483.063 205.532 468.768 200.598" stroke="#A1DBFF" stroke-width="2.113" stroke-dasharray="6 6"/>
<path d="M466.687 199.821C465.976 199.532 465.315 199.243 464.695 198.937" stroke="#A1DBFF" stroke-width="2.113" stroke-dasharray="6 6"/>
<path d="M604.322 216.407L593.01 214.366L594.621 205.474C594.811 204.424 595.811 203.73 596.86 203.912L604.363 205.267C605.421 205.457 606.115 206.465 605.925 207.515L604.322 216.407Z" fill="#FCCC4F"/>
<g opacity="0.502">
<g opacity="0.502">
<path opacity="0.502" d="M603.708 219.803L592.404 217.754L593.016 214.374L604.319 216.415L603.708 219.803Z" fill="#599FD2"/>
</g>
</g>
<path d="M629.291 227.621L635.373 230.026" stroke="#CCF3FF" stroke-width="2.113" stroke-dasharray="6 6"/>
<path d="M627.24 232.811L633.322 235.207" stroke="#CCF3FF" stroke-width="2.113" stroke-dasharray="6 6"/>
<path d="M625.201 238L631.283 240.397" stroke="#CCF3FF" stroke-width="2.113" stroke-dasharray="6 6"/>
<path d="M620.178 242.008L629.242 245.578" stroke="#CCF3FF" stroke-width="2.113" stroke-dasharray="6 6"/>
<path d="M621.111 248.371L627.193 250.768" stroke="#CCF3FF" stroke-width="2.113" stroke-dasharray="6 6"/>
<path d="M619.07 253.553L625.152 255.949" stroke="#CCF3FF" stroke-width="2.113" stroke-dasharray="6 6"/>
<path d="M617.02 258.742L623.101 261.139" stroke="#CCF3FF" stroke-width="2.113" stroke-dasharray="6 6"/>
<path d="M612.006 262.759L621.062 266.329" stroke="#CCF3FF" stroke-width="2.113" stroke-dasharray="6 6"/>
<path d="M612.939 269.114L619.021 271.51" stroke="#CCF3FF" stroke-width="2.113" stroke-dasharray="6 6"/>
<path d="M610.891 274.303L616.972 276.7" stroke="#CCF3FF" stroke-width="2.113" stroke-dasharray="6 6"/>
<path d="M608.85 279.485L614.931 281.881" stroke="#CCF3FF" stroke-width="2.113" stroke-dasharray="6 6"/>
<path d="M603.832 283.501L612.888 287.071" stroke="#CCF3FF" stroke-width="2.113" stroke-dasharray="6 6"/>
<path d="M604.758 289.856L610.839 292.252" stroke="#CCF3FF" stroke-width="2.113" stroke-dasharray="6 6"/>
<path d="M602.719 295.045L608.8 297.442" stroke="#CCF3FF" stroke-width="2.113" stroke-dasharray="6 6"/>
<path d="M600.676 300.227L606.757 302.632" stroke="#CCF3FF" stroke-width="2.113" stroke-dasharray="6 6"/>
<path d="M595.652 304.243L604.709 307.813" stroke="#CCF3FF" stroke-width="2.113" stroke-dasharray="6 6"/>
<path d="M596.586 310.606L602.668 313.003" stroke="#CCF3FF" stroke-width="2.113" stroke-dasharray="6 6"/>
<path d="M594.543 315.788L600.624 318.184" stroke="#CCF3FF" stroke-width="2.113" stroke-dasharray="6 6"/>
<path d="M592.496 320.977L598.578 323.374" stroke="#CCF3FF" stroke-width="2.113" stroke-dasharray="6 6"/>
<path d="M527.79 432.696C527.79 435.572 471.973 437.902 403.11 437.902C334.254 437.902 278.43 435.572 278.43 432.696C278.43 429.828 334.254 427.498 403.11 427.498C471.973 427.498 527.79 429.828 527.79 432.696Z" fill="#E9E8EE"/>
<path fill-rule="evenodd" clip-rule="evenodd" d="M417.999 82.2768C417.999 84.475 417.999 89.8217 417.999 98.3169H392.971V82.2768C392.971 75.3683 398.573 69.7654 405.489 69.7654C412.397 69.7654 417.999 75.3683 417.999 82.2768ZM412.504 82.4421C412.504 78.5581 409.364 75.4178 405.489 75.4178C401.605 75.4178 398.466 78.5581 398.466 82.4421C398.466 86.3178 401.605 89.4581 405.489 89.4581C409.364 89.4581 412.504 86.3178 412.504 82.4421Z" fill="#492D21"/>
<g opacity="0.451">
<g opacity="0.451">
<path opacity="0.451" fill-rule="evenodd" clip-rule="evenodd" d="M417.999 96.7137C417.999 97.3665 417.999 97.8954 417.999 98.3169H392.971V82.2768C392.971 76.5582 396.813 71.7404 402.052 70.2529C398.68 72.4924 396.796 76.3268 396.796 80.6736V96.7137H417.999ZM412.504 82.4338C412.504 78.5581 409.364 75.4178 405.489 75.4178C405.126 75.4178 404.778 75.4674 404.431 75.5252C405.489 75.1203 405.539 74.8393 407.282 74.8393C411.157 74.8393 414.297 77.9879 414.297 81.8636C414.297 85.3757 412.504 87.2847 409.794 87.9788C411.298 86.6897 412.504 84.5741 412.504 82.4338Z" fill="#492D21"/>
</g>
</g>
<path d="M504.935 432.638H301.294C292.403 432.638 285.189 425.432 285.189 416.54V115.258C285.189 106.366 292.403 99.1597 301.294 99.1597H504.935C513.826 99.1597 521.031 106.366 521.031 115.258V416.54C521.031 425.432 513.826 432.638 504.935 432.638Z" fill="#492D21"/>
<path d="M507.363 419.565H298.863V112.233H507.363V419.565Z" fill="#E7E2D6"/>
<path d="M499.342 410.177H306.881V121.629H499.342V410.177Z" fill="white"/>
<path d="M478.964 117.208H327.256V107.482C327.256 101.069 332.453 95.8708 338.865 95.8708H467.363C473.775 95.8708 478.964 101.069 478.964 107.482V117.208Z" fill="#492D21"/>
<path opacity="0.451" d="M333.114 114.076V105.002C333.114 101.523 334.569 98.3911 336.89 96.1599C331.379 97.3664 327.256 102.267 327.256 108.134V117.208H478.964V114.076H333.114Z" fill="#BF9786"/>
<path opacity="0.251" d="M370.15 161.295C370.15 174.964 359.078 186.037 345.419 186.037C331.752 186.037 320.68 174.964 320.68 161.295C320.68 147.627 331.752 136.553 345.419 136.553C359.078 136.553 370.15 147.627 370.15 161.295Z" fill="#0964AF"/>
<path d="M374.147 161.295C374.147 177.162 361.281 190.029 345.416 190.029C329.543 190.029 316.678 177.162 316.678 161.295C316.678 145.429 329.543 132.562 345.416 132.562C361.281 132.562 374.147 145.429 374.147 161.295Z" stroke="#FCCC4F" stroke-width="2.113" stroke-dasharray="6 6"/>
<path d="M350.275 161.667C352.712 160.072 354.323 157.337 354.323 154.213C354.323 149.288 350.332 145.297 345.416 145.297C340.491 145.297 336.5 149.288 336.5 154.213C336.5 157.337 338.111 160.072 340.549 161.667C335.005 162.981 330.873 167.931 330.873 173.881V181.286C334.955 184.261 339.971 186.037 345.416 186.037C350.853 186.037 355.869 184.261 359.95 181.286V173.881C359.95 167.931 355.819 162.981 350.275 161.667Z" fill="white"/>
<path d="M385.561 138.495L386.767 140.925L389.444 141.313L387.503 143.206L387.965 145.875L385.561 144.619L383.165 145.875L383.627 143.206L381.686 141.313L384.363 140.925L385.561 138.495Z" fill="#0964AF"/>
<path d="M397.268 138.495L398.466 140.925L401.152 141.313L399.21 143.206L399.665 145.875L397.268 144.619L394.872 145.875L395.327 143.206L393.385 141.313L396.07 140.925L397.268 138.495Z" fill="#0964AF"/>
<path d="M408.977 138.495L410.175 140.925L412.853 141.313L410.911 143.206L411.374 145.875L408.977 144.619L406.573 145.875L407.036 143.206L405.094 141.313L407.771 140.925L408.977 138.495Z" fill="#0964AF"/>
<path d="M420.677 138.495L421.875 140.925L424.56 141.313L422.618 143.206L423.073 145.875L420.677 144.619L418.28 145.875L418.735 143.206L416.793 141.313L419.478 140.925L420.677 138.495Z" fill="#0964AF"/>
<path d="M432.386 138.495L433.584 140.925L436.261 141.313L434.319 143.206L434.782 145.875L432.386 144.619L429.981 145.875L430.444 143.206L428.502 141.313L431.179 140.925L432.386 138.495Z" fill="#0964AF"/>
<g opacity="0.149">
<path opacity="0.149" d="M382.973 152.304H407.877" stroke="#0964AF" stroke-width="4.226" stroke-linecap="round" stroke-linejoin="round" stroke-dasharray="4 4"/>
<path opacity="0.149" d="M463.762 162.27H482.7" stroke="#0964AF" stroke-width="4.226" stroke-linecap="round" stroke-linejoin="round" stroke-dasharray="4 4"/>
<path opacity="0.149" d="M382.973 162.27H455.555" stroke="#0964AF" stroke-width="4.226" stroke-linecap="round" stroke-linejoin="round" stroke-dasharray="4 4"/>
<path opacity="0.149" d="M382.973 172.237H482.698" stroke="#0964AF" stroke-width="4.226" stroke-linecap="round" stroke-linejoin="round" stroke-dasharray="4 4"/>
<path opacity="0.149" d="M451.004 182.203H482.701" stroke="#0964AF" stroke-width="4.226" stroke-linecap="round" stroke-linejoin="round" stroke-dasharray="4 4"/>
<path opacity="0.149" d="M382.973 182.203H443.111" stroke="#0964AF" stroke-width="4.226" stroke-linecap="round" stroke-linejoin="round" stroke-dasharray="4 4"/>
<path opacity="0.149" d="M416.051 152.304H482.7" stroke="#0964AF" stroke-width="4.226" stroke-linecap="round" stroke-linejoin="round" stroke-dasharray="4 4"/>
</g>
<path opacity="0.251" d="M370.148 231.199C370.148 244.859 359.076 255.941 345.417 255.941C331.75 255.941 320.678 244.859 320.678 231.199C320.678 217.531 331.75 206.457 345.417 206.457C359.076 206.457 370.148 217.531 370.148 231.199Z" fill="#0964AF"/>
<path d="M350.275 231.571C352.712 229.976 354.323 227.241 354.323 224.117C354.323 219.192 350.332 215.2 345.416 215.2C340.491 215.2 336.5 219.192 336.5 224.117C336.5 227.241 338.111 229.976 340.549 231.571C335.005 232.885 330.873 237.835 330.873 243.785V251.181C334.955 254.164 339.971 255.941 345.416 255.941C350.853 255.941 355.869 254.164 359.95 251.181V243.785C359.95 237.835 355.819 232.885 350.275 231.571Z" fill="white"/>
<path d="M385.561 208.399L386.767 210.828L389.444 211.217L387.503 213.109L387.965 215.779L385.561 214.522L383.165 215.779L383.627 213.109L381.686 211.217L384.363 210.828L385.561 208.399Z" fill="#0964AF"/>
<path d="M397.268 208.399L398.466 210.828L401.152 211.217L399.21 213.109L399.665 215.779L397.268 214.522L394.872 215.779L395.327 213.109L393.385 211.217L396.07 210.828L397.268 208.399Z" fill="#0964AF"/>
<path d="M408.977 208.399L410.175 210.828L412.853 211.217L410.911 213.109L411.374 215.779L408.977 214.522L406.573 215.779L407.036 213.109L405.094 211.217L407.771 210.828L408.977 208.399Z" fill="#0964AF"/>
<path opacity="0.251" d="M420.677 208.399L421.875 210.828L424.56 211.217L422.618 213.109L423.073 215.779L420.677 214.522L418.28 215.779L418.735 213.109L416.793 211.217L419.478 210.828L420.677 208.399Z" fill="#0964AF"/>
<path opacity="0.251" d="M432.386 208.399L433.584 210.828L436.261 211.217L434.319 213.109L434.782 215.779L432.386 214.522L429.981 215.779L430.444 213.109L428.502 211.217L431.179 210.828L432.386 208.399Z" fill="#0964AF"/>
<g opacity="0.149">
<path opacity="0.149" d="M382.973 222.199H427.27" stroke="#0964AF" stroke-width="4.226" stroke-linecap="round" stroke-linejoin="round" stroke-dasharray="4 4"/>
<path opacity="0.149" d="M409.193 232.174H482.701" stroke="#0964AF" stroke-width="4.226" stroke-linecap="round" stroke-linejoin="round" stroke-dasharray="4 4"/>
<path opacity="0.149" d="M382.973 232.174H400.986" stroke="#0964AF" stroke-width="4.226" stroke-linecap="round" stroke-linejoin="round" stroke-dasharray="4 4"/>
<path opacity="0.149" d="M382.973 242.14H482.698" stroke="#0964AF" stroke-width="4.226" stroke-linecap="round" stroke-linejoin="round" stroke-dasharray="4 4"/>
<path opacity="0.149" d="M462.273 252.106H482.699" stroke="#0964AF" stroke-width="4.226" stroke-linecap="round" stroke-linejoin="round" stroke-dasharray="4 4"/>
<path opacity="0.149" d="M382.973 252.106H454.381" stroke="#0964AF" stroke-width="4.226" stroke-linecap="round" stroke-linejoin="round" stroke-dasharray="4 4"/>
<path opacity="0.149" d="M435.443 222.199H482.699" stroke="#0964AF" stroke-width="4.226" stroke-linecap="round" stroke-linejoin="round" stroke-dasharray="4 4"/>
</g>
<path opacity="0.251" d="M370.148 301.102C370.148 314.763 359.076 325.844 345.417 325.844C331.75 325.844 320.678 314.763 320.678 301.102C320.678 287.434 331.75 276.361 345.417 276.361C359.076 276.361 370.148 287.434 370.148 301.102Z" fill="#0964AF"/>
<path d="M350.275 301.474C352.712 299.879 354.323 297.144 354.323 294.02C354.323 289.095 350.332 285.104 345.416 285.104C340.491 285.104 336.5 289.095 336.5 294.02C336.5 297.144 338.111 299.879 340.549 301.474C335.005 302.788 330.873 307.738 330.873 313.68V321.084C334.955 324.068 339.971 325.844 345.416 325.844C350.853 325.844 355.869 324.068 359.95 321.084V313.68C359.95 307.738 355.819 302.788 350.275 301.474Z" fill="white"/>
<path d="M385.561 278.303L386.767 280.732L389.444 281.121L387.503 283.013L387.965 285.682L385.561 284.418L383.165 285.682L383.627 283.013L381.686 281.121L384.363 280.732L385.561 278.303Z" fill="#0964AF"/>
<path d="M397.268 278.303L398.466 280.732L401.152 281.121L399.21 283.013L399.665 285.682L397.268 284.418L394.872 285.682L395.327 283.013L393.385 281.121L396.07 280.732L397.268 278.303Z" fill="#0964AF"/>
<path d="M408.977 278.303L410.175 280.732L412.853 281.121L410.911 283.013L411.374 285.682L408.977 284.418L406.573 285.682L407.036 283.013L405.094 281.121L407.771 280.732L408.977 278.303Z" fill="#0964AF"/>
<path d="M420.677 278.303L421.875 280.732L424.56 281.121L422.618 283.013L423.073 285.682L420.677 284.418L418.28 285.682L418.735 283.013L416.793 281.121L419.478 280.732L420.677 278.303Z" fill="#0964AF"/>
<path opacity="0.251" d="M432.386 278.303L433.584 280.732L436.261 281.121L434.319 283.013L434.782 285.682L432.386 284.418L429.981 285.682L430.444 283.013L428.502 281.121L431.179 280.732L432.386 278.303Z" fill="#0964AF"/>
<g opacity="0.149">
<path opacity="0.149" d="M382.973 292.103H407.877" stroke="#0964AF" stroke-width="4.226" stroke-linecap="round" stroke-linejoin="round" stroke-dasharray="4 4"/>
<path opacity="0.149" d="M428.66 302.078H482.7" stroke="#0964AF" stroke-width="4.226" stroke-linecap="round" stroke-linejoin="round" stroke-dasharray="4 4"/>
<path opacity="0.149" d="M382.973 302.078H420.453" stroke="#0964AF" stroke-width="4.226" stroke-linecap="round" stroke-linejoin="round" stroke-dasharray="4 4"/>
<path opacity="0.149" d="M382.973 312.044H482.698" stroke="#0964AF" stroke-width="4.226" stroke-linecap="round" stroke-linejoin="round" stroke-dasharray="4 4"/>
<path opacity="0.149" d="M405.664 322.01H482.7" stroke="#0964AF" stroke-width="4.226" stroke-linecap="round" stroke-linejoin="round" stroke-dasharray="4 4"/>
<path opacity="0.149" d="M382.973 322.01H397.772" stroke="#0964AF" stroke-width="4.226" stroke-linecap="round" stroke-linejoin="round" stroke-dasharray="4 4"/>
<path opacity="0.149" d="M416.051 292.103H482.7" stroke="#0964AF" stroke-width="4.226" stroke-linecap="round" stroke-linejoin="round" stroke-dasharray="4 4"/>
</g>
<path opacity="0.251" d="M370.148 371.006C370.148 384.666 359.076 395.748 345.417 395.748C331.75 395.748 320.678 384.666 320.678 371.006C320.678 357.338 331.75 346.264 345.417 346.264C359.076 346.264 370.148 357.338 370.148 371.006Z" fill="#0964AF"/>
<path d="M350.275 371.378C352.712 369.783 354.323 367.048 354.323 363.924C354.323 358.999 350.332 355.008 345.416 355.008C340.491 355.008 336.5 358.999 336.5 363.924C336.5 367.048 338.111 369.783 340.549 371.378C335.005 372.692 330.873 377.642 330.873 383.584V390.988C334.955 393.971 339.971 395.748 345.416 395.748C350.853 395.748 355.869 393.963 359.95 390.988V383.584C359.95 377.642 355.819 372.692 350.275 371.378Z" fill="white"/>
<path d="M385.561 348.206L386.767 350.636L389.444 351.024L387.503 352.917L387.965 355.586L385.561 354.322L383.165 355.586L383.627 352.917L381.686 351.024L384.363 350.636L385.561 348.206Z" fill="#0964AF"/>
<path d="M397.268 348.206L398.466 350.636L401.152 351.024L399.21 352.917L399.665 355.586L397.268 354.322L394.872 355.586L395.327 352.917L393.385 351.024L396.07 350.636L397.268 348.206Z" fill="#0964AF"/>
<path d="M408.977 348.206L410.175 350.636L412.853 351.024L410.911 352.917L411.374 355.586L408.977 354.322L406.573 355.586L407.036 352.917L405.094 351.024L407.771 350.636L408.977 348.206Z" fill="#0964AF"/>
<path d="M420.677 348.206L421.875 350.636L424.56 351.024L422.618 352.917L423.073 355.586L420.677 354.322L418.28 355.586L418.735 352.917L416.793 351.024L419.478 350.636L420.677 348.206Z" fill="#0964AF"/>
<path d="M432.386 348.206L433.584 350.636L436.261 351.024L434.319 352.917L434.782 355.586L432.386 354.322L429.981 355.586L430.444 352.917L428.502 351.024L431.179 350.636L432.386 348.206Z" fill="#0964AF"/>
<g opacity="0.149">
<path opacity="0.149" d="M482.699 391.914H457.795" stroke="#0964AF" stroke-width="4.226" stroke-linecap="round" stroke-linejoin="round" stroke-dasharray="4 4"/>
<path opacity="0.149" d="M401.911 381.948H382.973" stroke="#0964AF" stroke-width="4.226" stroke-linecap="round" stroke-linejoin="round" stroke-dasharray="4 4"/>
<path opacity="0.149" d="M482.701 381.948H410.119" stroke="#0964AF" stroke-width="4.226" stroke-linecap="round" stroke-linejoin="round" stroke-dasharray="4 4"/>
<path opacity="0.149" d="M482.698 371.973H382.973" stroke="#0964AF" stroke-width="4.226" stroke-linecap="round" stroke-linejoin="round" stroke-dasharray="4 4"/>
<path opacity="0.149" d="M414.669 362.007H382.973" stroke="#0964AF" stroke-width="4.226" stroke-linecap="round" stroke-linejoin="round" stroke-dasharray="4 4"/>
<path opacity="0.149" d="M482.7 362.007H422.562" stroke="#0964AF" stroke-width="4.226" stroke-linecap="round" stroke-linejoin="round" stroke-dasharray="4 4"/>
<path opacity="0.149" d="M449.622 391.914H382.973" stroke="#0964AF" stroke-width="4.226" stroke-linecap="round" stroke-linejoin="round" stroke-dasharray="4 4"/>
</g>
<g style="mix-blend-mode:multiply" opacity="0.3">
<path fill-rule="evenodd" clip-rule="evenodd" d="M411.744 240.413C417.809 231.736 426.89 225.935 437.31 224.084C447.737 222.233 458.256 224.555 466.941 230.621C475.617 236.678 481.417 245.76 483.268 256.189C485.119 266.618 482.797 277.138 476.732 285.815C475.716 287.269 474.592 288.608 473.419 289.897L489.986 309.912C490.118 309.912 490.259 309.945 490.383 309.995C491.3 310.333 492.2 310.804 492.853 311.532C493.399 312.135 493.754 313.036 493.737 313.87C500.017 310.284 512.602 303.003 512.693 302.152C512.808 301.02 515.932 270.51 520.369 265.75C520.592 265.502 520.807 265.32 521.03 265.114V308.73C521.005 308.755 520.989 308.772 520.964 308.796C520.906 308.854 520.832 308.912 520.766 308.97C520.633 309.086 520.501 309.201 520.344 309.325C520.262 309.391 520.162 309.457 520.071 309.532C519.923 309.639 519.774 309.747 519.617 309.854C519.51 309.928 519.394 309.995 519.286 310.069C519.121 310.176 518.956 310.276 518.782 310.383C518.667 310.457 518.543 310.532 518.411 310.606C518.229 310.705 518.039 310.813 517.849 310.92C517.717 310.986 517.593 311.061 517.46 311.135C517.246 311.242 517.031 311.35 516.808 311.466C516.684 311.532 516.56 311.59 516.428 311.656C516.171 311.78 515.899 311.912 515.634 312.036C515.527 312.077 515.436 312.127 515.329 312.176C514.948 312.35 514.56 312.523 514.163 312.689C514.122 312.705 514.089 312.722 514.048 312.738C513.692 312.895 513.329 313.044 512.957 313.201C512.817 313.251 512.684 313.308 512.544 313.366C512.263 313.474 511.982 313.589 511.693 313.705C511.536 313.763 511.387 313.821 511.23 313.879C510.957 313.986 510.685 314.085 510.404 314.193C510.239 314.25 510.073 314.317 509.908 314.374C509.635 314.474 509.363 314.573 509.09 314.672C508.925 314.73 508.759 314.788 508.594 314.854C508.305 314.953 508.024 315.052 507.743 315.143C507.586 315.201 507.437 315.25 507.28 315.308C506.983 315.407 506.677 315.515 506.371 315.614C506.239 315.655 506.107 315.705 505.967 315.746C505.603 315.87 505.231 315.994 504.868 316.11C504.802 316.135 504.744 316.151 504.686 316.168C501.802 317.102 499.1 317.887 497.059 318.457L508.057 331.737C510.024 331.728 511.858 331.828 512.428 331.662C512.527 331.629 512.635 331.596 512.742 331.563L512.693 331.439C515.18 329.894 517.956 328.175 521.03 326.283V334.406C518.568 335.282 516.518 336.009 514.882 336.596L514.667 336.092C514.147 336.464 513.651 336.885 513.238 337.373C513.155 337.48 513.073 337.588 512.99 337.703L521.03 347.413V358.181C520.89 358.197 520.749 358.214 520.609 358.214C519.344 358.214 518.08 357.677 517.213 356.619L505.934 342.992C504.694 342.934 503.603 341.81 503.595 340.571C503.075 340.868 502.38 340.819 501.909 340.447C501.447 340.067 501.24 339.397 501.414 338.827C501.48 338.637 501.571 338.455 501.554 338.257C501.513 337.877 501.083 337.695 500.769 337.48C500.199 337.083 499.943 336.431 499.935 335.745L488.97 322.506C488.978 322.514 488.978 322.514 488.978 322.514C487.705 322.671 486.4 321.721 486.169 320.465C486.119 320.209 486.111 319.944 485.978 319.721C485.739 319.341 485.235 319.267 484.797 319.143C483.153 318.655 482.103 316.986 481.698 315.317C481.558 314.73 481.5 314.118 481.533 313.523L466.775 295.698C462.148 298.896 456.868 301.136 451.167 302.144C448.828 302.565 446.481 302.764 444.16 302.764C436.111 302.764 428.27 300.318 421.544 295.616C403.621 283.096 399.226 258.337 411.744 240.413ZM426.584 288.385C433.335 293.103 441.515 294.905 449.63 293.475C457.736 292.029 464.792 287.525 469.51 280.774C474.229 274.022 476.03 265.833 474.592 257.726C473.154 249.619 468.643 242.554 461.892 237.843C456.661 234.182 450.563 232.273 444.308 232.273C442.499 232.273 440.673 232.439 438.855 232.761C430.741 234.199 423.684 238.711 418.966 245.462C409.232 259.395 412.653 278.658 426.584 288.385Z" fill="#492D21"/>
</g>
<path d="M218.225 301.516C220.794 304.499 222.323 306.086 222.794 306.259C223.232 306.425 226.19 306.987 227.165 307.16C227.529 307.226 227.892 307.292 228.223 307.458C228.562 307.631 228.843 307.896 229.107 308.168C229.834 308.929 230.479 309.771 231.115 310.606C231.288 310.829 231.454 311.052 231.578 311.309C231.735 311.614 231.809 311.945 231.883 312.284C232.297 314.176 232.66 316.093 232.958 318.01C232.974 318.11 232.991 318.225 232.949 318.316C232.842 318.531 232.503 318.481 232.321 318.324C232.131 318.159 231.991 317.928 231.759 317.853C231.759 318.019 231.759 318.184 231.751 318.349C231.421 318.531 231.016 318.374 230.685 318.192C229.297 317.44 228.115 316.3 227.314 314.928C227.157 314.655 227 314.374 226.777 314.151C226.182 313.565 225.256 313.573 224.447 313.366C223.72 313.176 222.951 312.97 222.265 312.656C221.009 312.085 220.852 310.573 220.737 310.292C220.671 310.135 220.538 310.019 220.414 309.904C219.869 309.408 218.506 308.342 216.324 306.697" fill="#926A56"/>
<path d="M172.968 205.143C174.786 205.664 175.753 208.019 176.372 209.622C177.116 211.564 177.488 213.622 177.728 215.671C177.901 217.101 178 218.605 177.43 219.927C177.141 220.605 176.695 221.2 176.249 221.778C175.992 222.109 175.736 222.448 175.389 222.687C175.042 222.919 174.596 223.034 174.208 222.886C173.637 222.671 173.406 222.001 173.249 221.415C172.2 217.597 171.051 213.729 168.895 210.407" fill="#170D54"/>
<path d="M174.982 217.242C175.024 216.027 176.304 215.233 177.412 216.49C178.329 217.531 178.577 219.514 178.626 220.977C178.692 222.729 177.329 223.067 176.214 223.315" fill="#87624F"/>
<path d="M188.232 424.87C188.248 427.366 188.174 429.052 188 429.927C187.736 431.258 183.464 430.828 183.051 430.076C182.778 429.572 182.811 427.267 183.158 423.151" fill="#FFCCB0"/>
<path d="M181.818 431.349C181.735 432.283 181.702 433.63 181.71 435.39L186.09 436.448L186.643 435.704C187.461 436.398 188.312 436.869 189.213 437.109C190.213 437.373 192.312 437.571 193.344 437.505C196.964 437.266 199.459 436.134 199.583 435.605C200.095 433.39 195.295 433.671 194.311 433.588C191.502 433.357 189.61 431.341 189.064 429.903C188.668 428.861 188.899 428.63 188.304 428.762C187.949 428.812 187.635 429.027 187.37 429.423C186.759 430.332 185.685 430.878 184.602 430.605C183.983 430.44 183.363 430.159 182.95 429.655C182.272 429.853 181.892 430.415 181.818 431.349Z" fill="#492D21"/>
<path d="M179.868 379.047C180.14 374.675 178.513 369.56 174.984 363.709C184.52 358.47 189.362 355.041 189.502 353.404C190.808 362.404 191.7 368.494 192.163 371.667C192.981 377.179 192.014 395.665 189.263 427.126C187.263 427.679 184.941 427.713 182.289 427.225C181.793 415.069 180.554 404.88 178.562 396.649C177.158 390.798 179.372 380.675 179.868 379.047Z" fill="#492D21"/>
<path d="M178.72 303.425C184.091 315.407 189.925 354.082 191.321 367.428C191.916 373.089 187.198 379.725 181.711 374.609C175.159 368.494 165.937 340.505 162.64 335.563C159.352 330.621 147.023 326.092 155.443 301.02" fill="#492D21"/>
<path d="M154.611 425.11C154.288 428.613 154.057 430.82 153.933 431.712C153.743 433.043 149.454 432.861 149.008 432.126C148.703 431.638 148.612 429.332 148.719 425.209" fill="#FFCCB0"/>
<path d="M147.792 433.233C147.735 434.175 147.776 435.406 147.933 436.943L152.866 437.282L153.163 436.472C154.196 437.092 155.13 437.431 155.965 437.489L160.129 437.77C163.178 437.968 164.938 437.696 165.046 437.167C165.525 434.952 161.873 434.803 160.922 434.745C158.204 434.555 155.345 433.084 154.791 431.663C154.395 430.63 154.618 430.39 154.039 430.539C153.701 430.589 153.403 430.812 153.147 431.208C152.56 432.126 151.536 432.696 150.478 432.44C149.875 432.291 149.28 432.018 148.867 431.522C148.214 431.729 147.859 432.299 147.792 433.233Z" fill="#492D21"/>
<path d="M165.324 378.278C164.415 382.939 152.235 381.196 152.5 377.064C152.872 371.196 148.757 363.602 147.179 335.654C146.997 332.464 143.799 331.993 142.543 323.308C141.708 317.506 143.014 311.399 146.451 304.978L165.192 302.293C169.993 313.135 171.901 323.952 170.91 334.761C169.414 350.967 166.406 372.783 165.324 378.278Z" fill="#492D21"/>
<path d="M152.535 376.089C149.692 381.716 148.106 386.567 147.775 390.633C147.279 396.583 147.337 409.359 147.94 428.952C151.014 429.622 153.377 429.713 155.013 429.225C162.227 394.467 165.97 375.213 166.235 371.477C166.499 367.734 161.93 369.271 152.535 376.089Z" fill="#492D21"/>
<path d="M185.974 246.909C183.859 244.471 177.133 240.471 168.143 240.752C161.954 240.95 145.089 241.967 143.205 246.115C142.238 248.231 141.205 269.923 142.618 277.402C143.676 283.022 146.386 296.954 146.386 300.318C146.386 303.673 144.585 305.119 145.428 306.094C147.312 308.284 160.218 309.201 166.275 309.201C171.671 309.201 180.851 307.763 181.314 306.036C182.008 303.466 180.264 303.565 180.025 300.871C179.785 298.186 178.521 280.46 180.099 277.881C182.603 273.791 185.09 263.015 185.288 259.932C185.478 256.85 188.098 249.338 185.974 246.909Z" fill="#BF9786"/>
<g style="mix-blend-mode:multiply" opacity="0.451">
<path d="M147.353 264.453C146.923 265.345 145.254 268.13 142.345 272.807L142.172 273.65C142.279 275.105 142.42 276.386 142.618 277.402C143.676 283.022 146.386 296.954 146.386 300.318C146.386 303.673 144.585 305.119 145.427 306.094C146.179 306.97 148.708 307.639 151.84 308.127C151.137 307.301 150.493 306.466 150.385 306.045C150.137 305.053 151.79 305.309 152.087 304.474C152.393 303.648 148.344 287.393 147.353 279.584C146.369 271.783 147.997 263.114 147.353 264.453Z" fill="#492D21"/>
</g>
<path d="M173.431 233.116C173.472 238.108 173.596 240.703 173.795 240.901C173.993 241.099 174.588 241.438 175.571 241.901C174.869 246.239 173.976 248.239 172.894 247.917C171.803 247.595 167.68 245.628 160.508 242.008C161.524 241.587 162.028 241.182 162.028 240.777C162.028 240.38 161.549 236.257 160.582 228.414" fill="#926A56"/>
<path d="M165.963 205.945C167.533 206.375 171.664 205.523 172.805 207.234C173.945 208.945 174.945 213.077 175.366 214.217C176.217 216.481 176.771 218.911 177.391 221.249C178.2 224.299 179.523 229.885 176.54 232.43C175.688 233.166 175.3 233.405 174.242 233.596C172.83 233.852 171.425 234.141 170.012 234.397C167.822 234.794 165.401 235.248 163.228 234.546C160.328 233.596 158.733 229.604 157.989 226.894L153.709 211.366L165.963 205.945Z" fill="#926A56"/>
<path d="M173.291 249.702C173.688 268.056 174.258 282.815 175.01 293.979L170.961 299.566L168.177 292.575C167.392 279.105 168.267 264.883 170.812 249.9L173.291 249.702Z" fill="#492D21"/>
<path d="M174.224 247.289L174.133 247.669C173.951 248.38 173.67 249.066 173.29 249.702L170.811 249.9C169.679 249.305 169.043 248.694 168.894 248.057C168.746 247.429 169.671 246.595 171.671 245.553L172.034 245.694C172.869 246.025 173.612 246.562 174.191 247.248L174.224 247.289Z" fill="#492D21"/>
<path d="M161.755 238.182C160.326 239.199 159.202 240.339 158.367 241.595C159.648 244.52 163.449 249.487 166.63 251.859C167.613 249.198 169.299 247.099 171.671 245.553C165.655 244.306 162.35 241.851 161.755 238.182Z" fill="#EAEAEA"/>
<path d="M171.672 245.553C173.738 246.372 175.382 247.933 176.613 250.247C177.01 247.124 176.778 244.215 175.936 241.529C174.828 239.661 174.035 238.711 173.564 238.67C173.762 240.884 173.126 243.173 171.672 245.553Z" fill="#EAEAEA"/>
<path d="M184.158 245.297C189.636 248.346 199.006 279.65 200.047 279.997C200.741 280.22 208.17 288.674 222.324 305.342L218.953 309.904C204.666 299.508 195.47 292.037 191.371 287.492C188.479 284.286 184.306 275.534 178.844 261.238C178.737 248.578 180.505 243.264 184.158 245.297Z" fill="#BF9786"/>
<g style="mix-blend-mode:multiply" opacity="0.451">
<path d="M193.385 286.22C191.972 284.972 189.022 277.716 184.535 264.453L182.924 271.262C185.609 277.543 189.047 284.914 191.369 287.492C195.467 292.037 204.664 299.508 218.95 309.904L220.264 308.127C203.755 294.773 194.798 287.467 193.385 286.22Z" fill="#492D21"/>
</g>
<path d="M156.284 297.425L123.753 303.574C122.86 303.739 122.307 304.623 122.546 305.499L126.901 328.001C127.116 328.778 127.892 329.266 128.677 329.109L161.217 322.969C162.101 322.803 162.655 321.911 162.423 321.043L158.06 298.541C157.846 297.764 157.077 297.277 156.284 297.425Z" fill="#EEA886"/>
<path d="M155.903 299.152L124.752 305.036L129.065 327.382L160.217 321.506L155.903 299.152Z" fill="#E5F8FF"/>
<path d="M156.732 320.333L153.328 301.309" stroke="#A1D2F0" stroke-width="1.056" stroke-linecap="round" stroke-linejoin="round" stroke-dasharray="5 5"/>
<path d="M153.791 320.903L150.387 301.88" stroke="#A1D2F0" stroke-width="1.056" stroke-linecap="round" stroke-linejoin="round" stroke-dasharray="5 5"/>
<path d="M149.568 321.771L146.164 302.747" stroke="#A1D2F0" stroke-width="1.056" stroke-linecap="round" stroke-linejoin="round" stroke-dasharray="5 5"/>
<path d="M145.338 322.638L141.934 303.607" stroke="#A1D2F0" stroke-width="1.056" stroke-linecap="round" stroke-linejoin="round" stroke-dasharray="5 5"/>
<path d="M141.106 323.498L137.297 304.474" stroke="#A1D2F0" stroke-width="1.056" stroke-linecap="round" stroke-linejoin="round" stroke-dasharray="5 5"/>
<path d="M136.884 324.365L133.066 305.342" stroke="#A1D2F0" stroke-width="1.056" stroke-linecap="round" stroke-linejoin="round" stroke-dasharray="5 5"/>
<path d="M132.654 325.233L128.688 306.21" stroke="#A1D2F0" stroke-width="1.056" stroke-linecap="round" stroke-linejoin="round" stroke-dasharray="5 5"/>
<path d="M139.041 313.788C139.892 315.54 140.553 316.853 141.015 317.746C141.462 318.614 144.882 321.531 146.254 323.845C146.915 324.969 147.494 326.233 147.328 327.522C147.155 328.811 145.948 330.026 144.676 329.753C144.312 329.679 143.899 329.505 143.61 329.729C143.461 329.844 143.395 330.034 143.304 330.2C143.023 330.704 142.412 331.001 141.842 330.927C141.272 330.844 140.768 330.39 140.635 329.828C139.759 330.646 138.239 330.629 137.388 329.795C137.892 329.373 138.272 328.729 138.173 328.076C138.066 327.448 137.562 326.977 137.173 326.473C136.496 325.588 136.124 324.456 136.157 323.341C136.173 322.539 136.396 321.762 136.479 320.961C136.661 319.333 136.289 317.647 135.43 316.25" fill="#926A56"/>
<path d="M148.841 261.213C148.18 263.552 142.867 272.402 132.877 287.773L140.9 317.002L136.322 319.862C126.82 304.069 122.061 293.946 122.027 289.484C121.986 282.798 132.455 258.271 140.107 248.247C141.735 246.124 144.172 244.52 147.428 243.446" fill="#BF9786"/>
<path d="M156.375 224.2C157.366 223.629 158.118 223.018 158.763 223.96C159.101 224.464 159.308 225.15 159.886 225.324C160.465 225.497 161.06 224.976 161.208 224.39C161.349 223.803 161.167 223.191 160.985 222.621C160.597 221.349 160.2 220.068 159.804 218.795C159.415 217.547 159.027 216.175 159.523 214.969C159.779 214.357 160.233 213.853 160.729 213.424C162.365 212.027 164.489 211.349 166.596 210.911C168.703 210.482 170.86 210.267 172.909 209.622C173.776 209.35 174.627 208.994 175.313 208.408C176.429 207.465 177.007 205.978 177.024 204.524C177.04 203.061 176.536 201.631 175.784 200.375C175.636 200.879 175.421 201.358 175.156 201.813C174.9 201.144 174.504 200.524 174.008 200.011C173.396 203.433 158.986 202.292 155.623 203.796C153.292 204.846 151.359 205.523 151.433 209.308C151.359 209.556 151.161 209.738 150.971 209.912C148.905 211.812 148.012 214.118 147.748 217.547C147.434 221.745 149.88 226.29 152.276 229.753C152.871 230.621 153.21 231.24 154.053 231.877C154.896 232.521 156.358 232.835 157.399 232.637C158.44 232.439 160.481 232.521 160.506 231.464C160.523 230.712 158.903 229.356 158.457 228.753" fill="#444952"/>
<path d="M160.154 228.166C160.269 228.637 160.178 229.059 159.881 229.422C159.501 229.91 158.716 229.836 158.179 229.662C156.65 229.174 155.592 227.679 155.303 226.142C154.964 224.324 155.94 222.505 157.6 222.977C158.575 223.257 159.179 224.357 159.17 225.373" fill="#926A56"/>
<path d="M173.422 233.761L168.803 234.612C169.836 235.761 171.389 236.339 173.488 236.339" fill="#87624F"/>
<path d="M183.687 378.964C184.53 376.221 182.175 371.965 181.018 368.792C180.241 366.684 176.952 357.164 171.144 340.257L169.227 350.487C171.036 354.875 173.003 359.569 174.986 363.709V363.718C175.754 365.312 176.514 366.817 177.266 368.205C178.646 371.304 180.092 375.502 179.869 379.047C179.373 380.675 177.159 390.798 178.564 396.649C180.555 404.88 181.795 415.069 182.29 427.225C183.051 427.365 183.753 427.432 184.43 427.473C184.174 422.977 183.736 415.028 183.687 413.458C183.621 411.235 180.811 398.459 181.018 393.409C181.216 388.352 182.852 381.7 183.687 378.964Z" fill="#563526"/>
<path d="M161.598 314.366L158.781 315.027L156.748 304.499L159.574 303.904L161.598 314.366Z" fill="#EEA886"/>
<path fill-rule="evenodd" clip-rule="evenodd" d="M163.476 311.119C163.038 311.209 161.963 311.408 160.253 311.73L159.303 306.697L162.525 306.086C163.922 305.822 165.26 306.739 165.525 308.127C165.781 309.515 164.872 310.862 163.476 311.119ZM163.236 310.02C164.021 309.879 164.533 309.127 164.384 308.342C164.236 307.565 163.484 307.053 162.707 307.202C161.922 307.342 161.41 308.094 161.559 308.879C161.707 309.656 162.459 310.168 163.236 310.02Z" fill="#EEA886"/>
<g style="mix-blend-mode:multiply" opacity="0.451">
<path d="M307.24 262.188L284.988 259.197V303.805L297.06 305.425C298.102 305.565 299.085 304.937 299.316 303.978L308.926 264.477C309.191 263.403 308.414 262.345 307.24 262.188Z" fill="#5AB5E2"/>
</g>
<path d="M279.164 257.106L271.149 292.31C270.934 293.269 271.578 294.211 272.554 294.351L297.499 297.938C298.367 298.062 299.185 297.5 299.383 296.64L307.39 261.436C307.613 260.478 306.969 259.536 305.994 259.395L281.048 255.817C280.18 255.693 279.362 256.255 279.164 257.106Z" fill="#57C6F2"/>
<path d="M280.727 258.246L273.059 291.946L297.823 295.508L305.491 261.8L280.727 258.246Z" fill="#E5F8FF"/>
<path d="M302.87 264.287L281.824 261.263" stroke="#A1D2F0" stroke-width="1.056" stroke-linecap="round" stroke-linejoin="round" stroke-dasharray="5 5"/>
<path d="M302.161 267.469L281.115 264.444" stroke="#A1D2F0" stroke-width="1.056" stroke-linecap="round" stroke-linejoin="round" stroke-dasharray="5 5"/>
<path d="M293.401 270.113L280.246 268.221" stroke="#A1D2F0" stroke-width="1.056" stroke-linecap="round" stroke-linejoin="round" stroke-dasharray="5 5"/>
<path d="M292.467 272.849L279.312 270.964" stroke="#A1D2F0" stroke-width="1.056" stroke-linecap="round" stroke-linejoin="round" stroke-dasharray="5 5"/>
<path d="M291.525 275.584L278.379 273.7" stroke="#A1D2F0" stroke-width="1.056" stroke-linecap="round" stroke-linejoin="round" stroke-dasharray="5 5"/>
<path d="M296.35 290.723L283.195 288.831" stroke="#A1D2F0" stroke-width="1.056" stroke-linecap="round" stroke-linejoin="round" stroke-dasharray="5 5"/>
<path d="M269.571 292.732C270.984 292.07 272.034 290.839 273.033 289.641C274.025 288.459 275.017 287.277 276.008 286.104C276.396 285.633 276.81 285.129 276.851 284.517C275.19 284.385 274.124 286.542 272.463 286.674C273.232 283.931 274.347 281.294 275.76 278.832C276.107 278.229 276.479 277.526 276.239 276.873C274.438 277.559 272.926 278.84 271.62 280.245C270.703 281.237 269.86 282.303 269.117 283.427C266.927 286.749 265.564 290.558 264.646 294.426" fill="#F2A181"/>
<path d="M262.412 321.085L244.606 306.061C239.078 313.556 237.359 320.919 239.441 328.15C240.978 333.48 242.904 336.125 243.738 338.654C244.523 341.025 249.886 374.485 249.481 376.932C249.084 379.378 246.2 386.228 245.101 393.426C243.788 402.087 244.011 430.299 242.986 437.778C241.962 445.257 248.869 446.521 249.249 443.992C252.489 422.366 261.065 388.658 262.264 377.841C263.47 367.031 262.983 347.231 262.412 321.085Z" fill="#926A56"/>
<path d="M262.471 342.405L254.721 360.172C257.985 365.693 259.877 372.204 260.125 378.807C260.257 382.237 259.951 385.675 260.05 389.104C260.059 389.344 260.092 389.608 260.149 389.848C261.191 384.765 261.967 380.576 262.265 377.84C263.116 370.205 263.116 358.057 262.852 342.38C262.728 342.389 262.595 342.38 262.471 342.405Z" fill="#F2A181"/>
<path d="M250.448 437.051C249.341 442.282 248.936 445.232 249.233 445.893C249.68 446.893 251.283 449.802 252.927 450.851C254.654 451.959 258.471 453.264 258.777 453.744C259.083 454.223 259.099 454.917 258.554 455.347C257.149 456.454 254.712 456.991 253.109 456.727C247.936 455.876 247.399 453.587 244.383 453.215C243.862 453.157 242.896 453.925 241.458 453.19C240.02 452.454 239.318 451.116 239.442 449.868C239.657 447.703 240.871 445.918 241.731 444.323C242.309 443.257 242.797 440.282 243.201 435.406" fill="#926A56"/>
<path d="M258.96 455.727C259.34 455.083 259.431 454.107 259.084 453.868C258.597 453.537 256.861 452.389 255.861 451.926C254.853 451.463 253.267 451.058 253.829 451.356C254.382 451.661 253.35 452.793 252.416 452.736C249.168 452.537 246.772 450.38 244.93 449.918C242.261 449.257 241.145 446.1 241.021 445.587C240.517 445.91 239.344 448.447 239.104 449.248C238.889 449.967 238.509 451.281 238.716 452.033C238.856 452.554 239.17 453.595 239.005 454.694C239.36 454.967 239.997 455.198 240.93 455.388C241.517 455.512 242.203 455.52 242.988 455.413L243.219 453.744C243.707 453.719 244.252 453.777 244.872 453.901C245.797 454.091 247.301 454.975 247.392 455.083C247.764 455.521 248.061 456.33 248.549 456.578C249.846 457.231 251.152 457.545 252.804 457.636C256.283 457.843 258.316 456.834 258.96 455.727Z" fill="#492D21"/>
<path d="M286.733 455.397C286.353 454.975 282.23 454.306 280.296 453.496C278.454 452.727 276.215 450.248 275.785 449.199C275.347 448.149 275.446 442.827 275.504 440.588C275.892 425.184 278.735 387.551 279.148 378.535C279.859 362.867 277.826 346.694 271.802 321.547L249.36 304.326C245.171 312.11 243.774 319.729 245.179 327.183C246.402 333.662 251.773 334.662 252.682 337.183C253.293 338.86 258.119 353.239 267.175 380.32C265.407 386.171 264.481 392.302 264.374 398.723C264.25 406.929 267.968 431.704 268.662 441.141C268.745 442.993 269.059 447.405 268.513 448.81C267.852 450.529 266.15 452.554 266.241 454.727C266.291 455.983 267.2 457.19 268.786 457.677C270.381 458.173 271.265 457.256 271.81 457.231C274.975 457.099 275.851 459.281 281.313 459.272C282.998 459.272 285.444 458.347 286.733 457.024C287.237 456.512 287.122 455.826 286.733 455.397Z" fill="#926A56"/>
<path d="M287.202 457.33C287.5 456.628 287.467 455.645 287.07 455.471C286.516 455.223 284.566 454.372 283.467 454.074C282.368 453.785 280.666 453.645 281.286 453.851C281.906 454.058 281.005 455.347 280.03 455.446C276.65 455.777 273.874 454.033 271.899 453.884C269.057 453.661 268.007 450.728 267.817 450.24C267.346 450.645 265.933 453.339 265.801 454.165C265.685 454.917 265.471 456.281 265.793 456.992C266.008 457.479 266.479 458.462 266.47 459.57C266.867 459.785 267.561 459.909 268.544 459.942C269.172 459.967 269.883 459.867 270.684 459.636V457.942C271.18 457.843 271.759 457.81 272.411 457.834C273.386 457.868 274.601 458.372 275.188 458.818C275.659 459.165 276.146 459.752 276.692 459.892C278.27 460.289 279.402 460.404 281.121 460.223C284.74 459.859 286.698 458.529 287.202 457.33Z" fill="#492D21"/>
<path d="M245.078 304.169C243.558 305.846 238.129 314.887 238.071 322.25C238.013 329.613 240.633 334.332 240.864 335.869C242.583 347.116 244.252 360.685 244.252 361.42C244.252 362.156 250.631 366.412 259.216 365.875C269.793 365.205 277.139 363.495 281.254 360.718C280.75 342.554 279.684 329.001 278.056 320.043C277.238 315.556 275.048 309.697 271.495 302.475" fill="#492D21"/>
<path d="M230.602 274.749C232.304 283.212 233.386 288.203 233.832 289.707C234.502 291.963 237.815 306.309 240.955 306.061C243.054 305.896 249.829 301.02 261.307 291.442L258.869 286.567L243.723 293.789C242.806 282.856 241.955 276.088 241.153 273.485" fill="#926A56"/>
<path d="M236.459 282.567C238.062 288.236 241.351 294.211 242.334 298.599C242.524 299.483 253.018 295.673 253.043 291.731" fill="#F2A181"/>
<path d="M240.865 257.156C237.518 257.511 234.998 258.337 233.296 259.635C228.966 262.949 228.478 270.618 231.825 282.641C231.61 283.286 232.957 283.526 235.865 283.36C238.774 283.195 241.393 282.708 243.724 281.873L242.459 267.097" fill="#FCCC4F"/>
<path d="M235.113 267.37C234.75 274.435 235.204 279.757 236.485 283.319C237.749 283.294 238.939 283.137 240.038 282.856L235.113 267.37Z" fill="#E9BD4C"/>
<path d="M264.868 223.877C267.892 227.803 267.297 233.323 266.545 238.223C266.173 240.694 265.793 243.173 265.413 245.652C265.24 246.826 265 248.115 264.083 248.875C263.157 249.636 261.835 249.627 260.637 249.569C260.645 251.627 260.662 253.677 260.67 255.726C257.167 255.809 253.655 255.825 250.152 255.767C250.152 254.329 249.838 252.9 249.243 251.586C247.524 251.553 246.375 249.834 245.706 248.256C244.929 246.438 244.367 244.529 243.822 242.628C243.103 240.107 242.401 237.537 242.335 234.909C242.269 232.29 242.897 229.555 244.566 227.53C245.698 226.142 247.251 225.166 248.838 224.332C251.011 223.2 253.622 222.299 255.87 223.299" fill="#926A56"/>
<path d="M261.242 242.57C260.829 240.512 260.854 239.347 261.531 237.975C261.755 237.521 262.052 237.091 262.449 236.81C262.994 236.422 263.721 236.347 264.324 236.612C264.721 236.785 265.043 237.108 265.266 237.496C265.985 234.728 266.134 231.778 265.927 228.902C265.597 224.34 262.854 220.811 258.838 219.167C251.409 216.118 240.734 219.134 237.718 226.423C235.437 231.935 236.594 239.884 240.957 244.496C244.824 248.586 250.376 249.189 255.5 248.347C258.127 247.917 262.176 248.173 263.531 244.603C263.639 244.33 263.399 244.058 263.118 244.074C262.06 244.157 261.317 242.95 261.242 242.57Z" fill="#444952"/>
<path d="M261.812 232.877C262.085 233.306 262.019 233.885 262.283 234.331C262.713 235.075 263.291 235.339 264.076 235.703C265.341 236.29 265.043 238.124 265.002 238.951C265.96 238.314 266.109 236.595 266.341 235.72C266.597 234.736 266.762 233.728 267.051 232.753C267.332 231.811 267.811 230.918 267.902 229.918C268.208 226.472 266.043 222.423 263.432 220.489C261.531 219.084 258.631 219.142 256.483 220.572C255.582 221.175 254.896 222.084 254.5 223.092C254.326 223.53 254.21 224.034 254.417 224.448" fill="#444952"/>
<path d="M244.93 257.197C245.103 255.999 245.434 254.602 246.549 254.123C246.855 253.991 247.202 253.958 247.533 253.916C250.953 253.536 254.399 253.371 257.845 253.429C259.266 253.454 260.737 253.528 262.009 254.164C264.009 255.164 265.108 257.313 266.075 259.329" fill="#E9BD4C"/>
<path d="M273.906 301.218C273.427 300.516 272.328 299.665 271.931 298.888C270.981 297.02 270.147 289.145 270.477 287.137C270.824 284.98 272.733 283.823 273.592 279.03C274.699 272.849 272.171 268.047 270.75 265.99C268.75 263.081 269.94 263.097 269.254 259.536C269.13 258.891 268.981 258.205 268.544 257.759C268.114 257.321 265.131 255.957 264.544 255.867C258.975 255.007 255.711 255.676 250.084 255.924C247.299 256.048 244.523 256.371 241.788 256.974C238.772 257.643 236.136 258.445 235.516 262.544C234.55 268.89 235.359 275.311 237.285 281.327C238.565 285.319 246.2 299.119 244.308 301.789C243.879 302.4 242.796 303.557 242.664 304.326C242.185 307.11 248.489 308.094 251.183 308.317C255.298 308.648 260.008 308.424 264.131 308.234C267.255 308.086 274.08 306.995 274.559 303.144C274.658 302.384 274.286 301.772 273.906 301.218Z" fill="#FCCC4F"/>
<path d="M272.727 280.22C272.727 281.344 272.099 282.848 271.892 283.443C271.115 283.84 268.008 284.509 266.224 283.699C265.967 281.22 265.108 277.609 263.662 272.849C269.702 277.071 272.727 279.526 272.727 280.22Z" fill="#E9BD4C"/>
<path d="M246.755 245.793C244.615 245.181 242.309 246.388 240.88 248.099C239.227 250.074 238.516 253.14 240.053 255.197C240.632 255.966 241.45 256.511 242.293 256.974C244.838 258.395 247.862 259.23 250.696 258.536C253.53 257.842 256.017 255.305 255.984 252.379C255.96 249.743 254.026 247.537 252.076 245.752" fill="#444952"/>
<path d="M268.736 277.634C275.595 294.194 280.503 302.475 283.477 302.475C285.634 302.475 289.369 294.831 294.674 279.543L289.65 277.163L284.039 286.765L278.371 268.857" fill="#926A56"/>
<path d="M288.65 278.873C289.758 277.121 290.278 275.634 290.196 274.394C290.146 273.683 289.725 270.303 290.08 269.642C290.427 268.973 291.278 266.8 291.757 266.378C292.245 265.957 294.03 265.279 294.459 265.577C294.897 265.882 295.443 264.494 296.17 264.618C296.889 264.734 297.492 265.337 297.492 266.006C297.492 266.667 298.459 266.791 298.582 267.271C298.698 267.75 298.64 268.18 298.822 268.535C299.004 268.899 299.541 268.725 299.731 269.626C299.905 270.452 299.665 270.527 299.731 270.956C299.789 271.378 300.152 271.336 300.029 272.138C299.913 272.948 299.359 273.989 298.872 274.89C298.392 275.799 297.393 276.931 296.071 277.733C295.418 278.129 295.062 278.815 294.434 279.989" fill="#926A56"/>
<path d="M291.41 259.684C291.286 259.486 290.93 259.156 290.526 259.445C290.112 259.734 290.236 260.23 290.327 260.428C290.385 260.56 291.401 262.849 293.368 267.304C293.533 267.494 293.765 267.452 294.079 267.171C294.426 266.874 294.541 266.651 294.426 266.502C292.5 262.089 291.492 259.808 291.41 259.684Z" fill="#1B227A"/>
<path d="M294.615 266.056C294.037 267.089 293.367 267.419 292.756 267.99C292.285 268.436 292.343 268.717 291.822 269.18C292.739 269.105 292.582 268.568 293.764 267.717C294.318 267.32 294.88 266.89 294.987 266.213C295.028 265.981 294.756 265.857 294.615 266.056Z" fill="#F2A181"/>
<path d="M259.283 255.487C261.96 255.619 269.752 254.255 274.082 258.784C277.71 262.577 279.792 272.527 281.254 276.559C277.619 280.27 274.115 283.253 268.612 282.055C268.406 281.898 265.67 273.295 263.679 272.535" fill="#FCCC4F"/>
<path d="M262.257 365.635C261.249 359.098 254.985 338.835 254.721 338.282C251.317 335.637 249.061 332.91 247.929 330.704C247.16 335.15 249.185 339.538 251.085 343.628C254.399 350.768 256.365 358.536 259.216 365.874" fill="#492D21"/>
<path d="M526.434 262.478C522.006 267.246 518.874 297.756 518.758 298.888C518.684 299.64 511.206 304.21 496.324 312.581L499.464 316.176C515.321 312.184 524.674 308.457 527.525 305.011C529.946 302.086 533.954 288.666 539.54 264.75C535.706 257.974 531.334 257.214 526.434 262.478Z" fill="#BF9786"/>
<path d="M594.611 443.877C595.826 446.215 596.735 447.752 597.346 448.496C598.264 449.603 602.238 447.091 602.263 446.182C602.288 445.579 601.106 443.439 598.735 439.761" fill="#926A56"/>
<path d="M604.03 446.529C604.6 447.339 605.36 448.554 606.302 450.165L602.791 453.372L601.873 452.975C601.485 454.025 600.94 454.892 600.229 455.57C599.436 456.322 597.593 457.578 596.593 458.049C593.098 459.677 590.173 459.925 589.768 459.504C588.099 457.752 592.726 455.545 593.594 454.967C596.081 453.322 596.759 450.513 596.503 448.918C596.312 447.761 595.965 447.67 596.602 447.488C596.957 447.348 597.362 447.389 597.825 447.612C598.882 448.124 600.171 448.083 601.031 447.273C601.526 446.81 601.948 446.232 602.063 445.563C602.799 445.397 603.452 445.72 604.03 446.529Z" fill="#1B227A"/>
<path d="M529.201 455.909C528.614 457.347 528.358 458.537 528.432 459.487C528.548 460.909 533.266 461.016 533.82 460.272C534.184 459.785 534.456 457.363 534.638 453.008" fill="#926A56"/>
<path d="M535.068 461.528C535.068 462.52 534.919 463.817 534.638 465.429H529.193L528.92 464.553C527.747 465.139 526.697 465.429 525.772 465.429H521.177C517.814 465.429 515.906 465.016 515.823 464.445C515.468 462.082 519.483 462.189 520.525 462.189C523.532 462.189 526.788 460.834 527.49 459.38C528.011 458.314 527.78 458.049 528.399 458.248C528.779 458.322 529.085 458.578 529.333 459.016C529.911 460.024 530.994 460.702 532.175 460.504C532.845 460.388 533.522 460.14 534.018 459.652C534.712 459.917 535.068 460.545 535.068 461.528Z" fill="#1B227A"/>
<path d="M556.949 357.049C556.916 357.247 552.504 352.19 552.454 352.405C550.703 361.255 542.539 390.84 539.829 398.599V398.616C539.432 399.698 537.333 402.045 535.598 402.483C531.615 403.524 525.253 402.161 524.74 394.533C524.683 393.699 524.873 392.782 524.774 391.782C523.641 380.039 534.871 328.266 535.152 324.969C535.424 321.663 541.919 324.043 543.737 323.432C552.81 320.424 559.321 344.67 556.949 357.049Z" fill="#492D21"/>
<path d="M540.348 402.789C539.125 399.12 539.439 395.128 541.306 390.823C530.862 382.799 525.375 381.237 524.847 386.137C524.764 386.716 524.186 391.691 524.186 394.5C524.194 404.549 527.689 436.381 527.433 455.818V457.082C529.176 457.429 531.573 457.586 534.638 457.562C534.845 457.562 535.068 457.562 535.291 457.545C536.597 445.439 539.431 428.985 540.769 412.425C541.1 408.359 540.654 403.698 540.348 402.789Z" fill="#492D21"/>
<path d="M580.308 400.31C577.176 396.418 573.862 394.674 572.887 391.707C570.607 384.815 571.227 356.842 571.012 349.074C571.656 347.488 577.688 331.613 565.442 319.911C558.105 323.06 551.495 324.828 545.62 325.208C540.992 325.506 537.505 325.423 535.15 324.969C539.522 331.555 541.835 336.315 542.091 339.24C542.744 346.686 556.667 391.674 557.725 394.137C560.146 399.756 562.823 401.963 563.707 403.111C569.88 411.144 584.323 428.035 595.272 444.215L596.015 445.265C597.486 444.761 599.585 443.571 602.312 441.695C596.412 430.927 590.24 412.656 580.308 400.31Z" fill="#492D21"/>
<path d="M526.434 262.478C528.632 259.957 538.068 256.057 547.397 256.354C553.817 256.561 574.252 258.66 576.202 262.957C577.201 265.155 577.102 286.021 575.64 293.781C574.541 299.615 571.219 314.614 571.219 318.101C571.219 321.589 573.095 323.085 572.219 324.101C570.261 326.365 555.619 327.382 549.331 327.382C543.736 327.382 534.209 325.894 533.73 324.101C533.011 321.44 534.821 321.539 535.069 318.746C535.308 315.961 536.63 297.558 534.994 294.88C532.391 290.641 528.442 278.609 528.243 275.411C528.037 272.212 524.236 265.006 526.434 262.478Z" fill="#BF9786"/>
<path d="M541.91 248.437C541.869 253.611 541.737 256.305 541.53 256.511C541.324 256.718 540.704 257.065 539.688 257.544C540.415 262.048 541.34 264.13 542.472 263.792C543.596 263.461 547.876 261.412 555.321 257.652C554.263 257.222 553.734 256.8 553.734 256.387C553.734 255.966 554.239 251.685 555.238 243.553" fill="#926A56"/>
<path d="M544.918 222.911C543.571 221.894 541.629 221.853 540.109 222.596C538.58 223.332 537.457 224.745 536.82 226.315C536.201 227.827 536.011 229.629 536.812 231.059C535.688 231.422 534.994 232.645 534.994 233.827C534.986 235.108 535.746 236.347 536.424 237.389C537.077 238.38 538.481 238.984 539.638 238.727C540.473 238.537 541.183 237.975 541.687 237.29C542.2 236.612 542.538 235.819 542.844 235.025C544.282 231.34 545.257 227.497 545.967 223.613" fill="#444952"/>
<path d="M549.663 220.241C548.035 220.679 543.747 219.795 542.565 221.572C541.384 223.34 540.343 227.629 539.905 228.811C539.021 231.166 538.442 233.686 537.798 236.116C536.963 239.281 534.815 245.239 537.913 247.884C538.797 248.644 539.971 248.735 541.07 248.933C542.532 249.198 543.995 249.495 545.457 249.76C547.73 250.164 550.242 250.644 552.497 249.908C555.513 248.933 557.166 244.785 557.943 241.975L562.38 225.861L549.663 220.241Z" fill="#926A56"/>
<path d="M556.313 243.587C556.256 244.082 556.396 244.504 556.743 244.851C557.198 245.305 557.999 245.132 558.528 244.892C560.048 244.198 560.957 242.537 561.073 240.909C561.205 239 559.982 237.248 558.33 237.934C557.355 238.331 556.867 239.537 556.999 240.578" fill="#926A56"/>
<path d="M560.387 234.761C559.866 236.364 558.495 240 557.04 239.645C555.586 239.289 557.627 233.596 558.891 231.315C557.057 231.307 554.801 231.026 554.14 229.315C553.991 228.935 553.876 228.431 553.471 228.348C553.149 228.274 552.851 228.538 552.57 228.728C551.281 229.555 549.529 228.745 548.505 227.604C548.273 227.348 548.001 227.042 547.654 227.067C547.439 227.084 547.249 227.216 547.075 227.348C544.968 228.844 539.358 228.77 539.374 226.133C537.532 227.075 536.333 224.786 536.449 223.224C536.557 221.654 537.73 219.043 540.275 219.109C540.143 217.184 541.655 215.985 543.183 214.812C544.712 213.638 546.662 213.11 548.587 213.027C551.628 212.886 555.082 214.143 556.123 217.002C556.198 217.208 556.272 217.44 556.462 217.555C556.669 217.679 556.941 217.605 557.173 217.547C559.478 216.927 562.139 217.291 563.915 218.886C565.7 220.481 566.295 223.406 564.923 225.365C566.708 225.786 567.658 227.902 567.386 229.712C567.105 231.521 565.915 233.05 564.684 234.397C566.617 235.017 567.386 237.653 566.402 239.43C565.427 241.207 562.915 242.165 560.907 241.876C561.37 240.041 560.577 237.942 558.809 237.612" fill="#444952"/>
<path d="M542.052 265.643C541.639 284.691 541.052 300.012 540.275 311.598L544.473 317.391L547.365 310.135C548.175 296.161 547.266 281.393 544.63 265.841L542.052 265.643Z" fill="#492D21"/>
<path d="M541.086 263.139L541.185 263.527C541.375 264.271 541.664 264.99 542.053 265.643L544.631 265.841C545.804 265.229 546.465 264.601 546.614 263.94C546.771 263.279 545.812 262.411 543.738 261.337L543.358 261.486C542.491 261.825 541.722 262.378 541.119 263.097L541.086 263.139Z" fill="#492D21"/>
<path d="M554.026 253.685C555.505 254.743 556.678 255.924 557.537 257.23C556.215 260.263 552.274 265.419 548.969 267.874C547.944 265.122 546.201 262.94 543.738 261.337C549.977 260.048 553.406 257.494 554.026 253.685Z" fill="#EAEAEA"/>
<path d="M543.736 261.337C541.596 262.188 539.885 263.808 538.613 266.213C538.2 262.965 538.431 259.949 539.307 257.164C540.464 255.222 541.282 254.23 541.769 254.197C541.571 256.495 542.224 258.875 543.736 261.337Z" fill="#EAEAEA"/>
<path d="M540.351 402.789C539.913 401.483 539.748 400.128 539.731 398.814C539.764 398.748 539.806 398.673 539.83 398.616V398.599C541.657 393.376 545.937 378.287 549.085 366.271L544.21 348.876C542.235 372.485 540.921 385.137 540.277 386.831C539.302 389.377 536.286 397.55 536.583 399.31C536.872 401.078 538.781 404.309 538.492 407.094C538.194 409.879 538.236 434.902 538.236 435.034C539.202 427.803 540.153 420.126 540.772 412.424C541.103 408.359 540.657 403.698 540.351 402.789Z" fill="#5E3A2B"/>
<path d="M479.187 280.03C468.049 295.979 446.086 299.88 430.13 288.732C414.182 277.592 410.282 255.627 421.429 239.669C432.567 223.72 454.53 219.82 470.486 230.968C486.434 242.107 490.334 264.073 479.187 280.03Z" stroke="#492D21" stroke-width="10.564" stroke-dasharray="11 11"/>
<path d="M474.203 287.162L526.673 350.545" stroke="#492D21" stroke-width="10.564" stroke-linecap="round" stroke-linejoin="round" stroke-dasharray="11 11"/>
<path d="M522.89 327.059C520.956 327.663 519.494 328.109 518.494 328.398C517.519 328.679 512.892 328.183 510.165 328.803C508.851 329.109 507.479 329.572 506.628 330.613C505.777 331.662 505.728 333.447 506.835 334.208C507.157 334.431 507.587 334.612 507.62 334.993C507.645 335.191 507.546 335.373 507.488 335.563C507.306 336.133 507.513 336.802 507.984 337.174C508.446 337.554 509.149 337.604 509.669 337.306C509.677 338.546 510.776 339.678 512.016 339.728C511.966 339.042 512.181 338.298 512.751 337.91C513.297 337.538 514.007 337.579 514.668 337.513C515.817 337.397 516.932 336.868 517.75 336.042C518.337 335.455 518.775 334.736 519.312 334.108C520.411 332.811 521.948 331.885 523.609 331.53" fill="#926A56"/>
<g style="mix-blend-mode:multiply" opacity="0.451">
<path d="M576.202 262.957C576.119 262.775 575.995 262.602 575.847 262.428L562.378 275.609C560.238 281.303 557.032 291.649 552.768 306.648C548.719 308.54 545.34 310.193 542.63 311.606C541.597 312.143 538.688 314.102 535.242 316.49C535.168 317.515 535.102 318.324 535.069 318.746C534.821 321.539 534.441 321.523 535.152 324.183C535.152 325.944 534.474 328.596 534.02 331.216C544.142 328.629 565.039 322.084 565.824 321.655C567.014 321.01 573.161 296.268 576.723 281.236C577.276 272.088 576.937 264.568 576.202 262.957Z" fill="#815F51"/>
</g>
<path d="M562.304 274.171C561.469 276.543 558.85 288.203 554.437 309.143C550.124 310.226 546.612 311.474 543.902 312.879C541.803 313.969 533.416 319.068 518.758 328.175L520.947 333.323C547.042 324.076 560.659 319.143 561.8 318.523C563.518 317.589 579.234 277.931 579.234 270.857C579.234 268.08 578.111 265.262 575.855 262.42" fill="#BF9786"/>
<path d="M495.043 319.25C493.779 319.407 492.465 318.448 492.234 317.192C492.193 316.944 492.176 316.68 492.044 316.457C491.804 316.077 491.3 316.002 490.871 315.878C489.218 315.391 488.169 313.721 487.772 312.052C487.557 311.16 487.491 310.209 487.764 309.342C488.036 308.466 488.697 307.681 489.573 307.433C489.747 307.383 489.937 307.35 490.11 307.416C490.276 307.482 490.4 307.623 490.507 307.772C491.019 308.441 491.399 309.209 491.631 310.019C491.796 310.614 491.92 311.284 492.416 311.639C492.746 311.887 493.184 311.937 493.556 312.118C494.3 312.482 494.672 313.317 494.953 314.102C495.366 315.292 494.812 318.01 495.043 319.25Z" fill="#926A56"/>
<path d="M499.77 311.102C499.993 310.152 499.58 308.995 498.919 308.267C498.266 307.532 497.365 307.069 496.448 306.73C496.208 306.639 495.878 306.582 495.737 306.796C495.63 306.945 495.688 307.16 495.787 307.317C496.134 307.912 496.869 308.185 497.241 308.763C497.382 308.978 497.464 309.226 497.58 309.457C497.993 310.309 498.836 310.945 499.77 311.102Z" fill="#926A56"/>
<g style="mix-blend-mode:multiply" opacity="0.451">
<path d="M532.935 290.302C530.465 284.178 529.002 279.848 528.556 277.328C526.78 286.335 527.366 302.111 525.871 303.458C524.879 304.359 519.392 307.648 509.436 313.325C516.492 311.11 525.11 307.929 527.523 305.011C528.895 303.359 530.928 297.268 532.935 290.302Z" fill="#815F51"/>
</g>
<path d="M541.902 249.082C546.108 250.008 548.587 250.404 549.331 250.28C550.455 250.098 546.901 252.206 546.24 252.28C545.802 252.338 544.356 252.189 541.902 251.859V249.082Z" fill="#87624F"/>
<path fill-rule="evenodd" clip-rule="evenodd" d="M160.161 220.043C160.078 219.613 161.814 218.927 163.086 218.539C164.359 218.15 167.746 217.117 168.598 217.208C169.449 217.299 169.54 217.58 169.911 217.465C170.275 217.349 170.168 217.084 170.82 216.531C171.481 215.977 173.431 215.382 174.704 214.994C175.976 214.605 177.232 214.324 177.406 214.729C177.579 215.126 177.712 215.894 177.513 216.101C177.323 216.316 177.315 216.291 177.133 218.225C177.042 219.307 176.472 220.134 174.77 220.539C172.613 221.043 171.68 219.497 171.184 218.894C170.688 218.283 170.498 218.241 170.176 218.34C169.853 218.44 169.688 218.588 169.614 219.365C169.54 220.15 169.986 221.696 167.978 222.605C165.342 223.811 163.855 223.638 162.871 222.58C161.541 221.142 161.648 221.092 161.376 221.026C161.243 220.993 160.574 221.051 160.45 220.836C160.318 220.588 160.202 220.274 160.161 220.043ZM172.241 219.051C172.696 219.811 173.621 220.299 174.91 219.902C176.117 219.539 176.431 218.894 176.53 217.605C176.613 216.481 176.274 215.754 175.952 215.58C175.629 215.415 175.018 215.671 173.555 216.192C172.085 216.712 171.597 216.886 171.589 217.423C171.589 217.622 171.795 218.291 172.241 219.051ZM163.144 221.663C163.937 222.671 164.78 222.968 166.416 222.456C168.73 221.745 168.845 220.952 168.796 220.076C168.746 219.2 168.548 218.539 168.432 218.382C168.135 217.944 167.639 218.068 166.143 218.456C164.656 218.836 162.673 219.365 162.499 219.687C162.326 220.001 162.45 220.787 163.144 221.663Z" fill="#170D54"/>
<path d="M207.302 124.05H271.249C275.372 124.05 278.719 127.397 278.719 131.521V173.08C278.719 177.203 275.372 180.55 271.249 180.55H207.302C203.17 180.55 199.832 177.203 199.832 173.08V131.521C199.832 127.397 203.17 124.05 207.302 124.05Z" fill="#C3ECFE"/>
<path d="M269.854 162.246L288.776 156.907L271.903 152.503" fill="#C3ECFE"/>
<path opacity="0.251" d="M227.883 149.222H239.658V151.924H227.883V149.222Z" fill="#0964AF"/>
<path opacity="0.251" d="M219.572 145.181H239.66V147.883H219.572V145.181Z" fill="#0964AF"/>
<path opacity="0.251" d="M210.342 160.444H268.092V163.783H210.342V160.444Z" fill="#0964AF"/>
<path opacity="0.251" d="M210.342 165.436H268.092V168.774H210.342V165.436Z" fill="#0964AF"/>
<path opacity="0.251" d="M219.572 141.14H239.66V143.842H219.572V141.14Z" fill="#0964AF"/>
<path opacity="0.251" d="M232.289 137.107H239.66V139.809H232.289V137.107Z" fill="#0964AF"/>
<path opacity="0.251" d="M244.459 145.553C244.459 152.081 249.747 157.37 256.275 157.37C262.803 157.37 268.091 152.081 268.091 145.553C268.091 139.024 262.803 133.736 256.275 133.736C249.747 133.736 244.459 139.024 244.459 145.553Z" fill="#0964AF"/>
<path opacity="0.188" d="M253.953 145.735C252.788 144.974 252.02 143.66 252.02 142.173C252.02 139.818 253.92 137.917 256.275 137.917C258.63 137.917 260.531 139.818 260.531 142.173C260.531 143.66 259.762 144.974 258.597 145.735C261.25 146.363 263.224 148.726 263.224 151.569V155.106C261.266 156.527 258.878 157.37 256.275 157.37C253.672 157.37 251.284 156.527 249.326 155.106V151.569C249.326 148.726 251.301 146.363 253.953 145.735Z" fill="#0964AF"/>
<path d="M207.253 105.837C205.576 110.051 200.791 112.109 196.577 110.423C192.363 108.746 190.306 103.961 191.991 99.7464C193.669 95.5318 198.445 93.4742 202.667 95.16C206.881 96.8375 208.93 101.622 207.253 105.837Z" fill="#FCCC4F"/>
<path d="M196.121 101.812L197.964 105.919L204.136 102.101" stroke="white" stroke-width="2.113" stroke-linecap="round" stroke-linejoin="round" stroke-dasharray="6 6"/>
<path d="M631.43 326.167C631.43 340.149 620.101 351.479 606.12 351.479C592.139 351.479 580.811 340.149 580.811 326.167C580.811 312.184 592.139 300.855 606.12 300.855C620.101 300.855 631.43 312.184 631.43 326.167Z" fill="white" stroke="#FCCC4F" stroke-width="4.226" stroke-linecap="round" stroke-linejoin="round" stroke-dasharray="4 4"/>
<path d="M623.86 326.167C623.86 335.968 615.919 343.909 606.12 343.909C596.32 343.909 588.379 335.968 588.379 326.167C588.379 316.366 596.32 308.424 606.12 308.424C615.919 308.424 623.86 316.366 623.86 326.167Z" stroke="#FCCC4F" stroke-width="4.226" stroke-linecap="round" stroke-linejoin="round" stroke-dasharray="4 4"/>
<path d="M616.135 326.167C616.135 331.703 611.656 336.182 606.12 336.182C600.592 336.182 596.105 331.703 596.105 326.167C596.105 320.63 600.592 316.151 606.12 316.151C611.656 316.151 616.135 320.63 616.135 326.167Z" stroke="#FCCC4F" stroke-width="4.226" stroke-linecap="round" stroke-linejoin="round" stroke-dasharray="4 4"/>
<path d="M610.376 326.167C610.376 328.514 608.467 330.414 606.12 330.414C603.774 330.414 601.873 328.514 601.873 326.167C601.873 323.82 603.774 321.911 606.12 321.911C608.467 321.911 610.376 323.82 610.376 326.167Z" fill="#FCCC4F"/>
<path d="M606.121 326.167L638.743 293.541" stroke="#2F3F91" stroke-width="2.113" stroke-dasharray="6 6"/>
<path d="M643.991 294.054H638.182V288.236" stroke="#2F3F91" stroke-width="2.113" stroke-dasharray="6 6"/>
<path d="M641.089 296.963H635.271V291.145" stroke="#2F3F91" stroke-width="2.113" stroke-dasharray="6 6"/>
<path d="M638.139 299.904H632.322V294.095" stroke="#2F3F91" stroke-width="2.113" stroke-dasharray="6 6"/>
<path d="M611.716 326.34H605.898V320.522" stroke="#2F3F91" stroke-width="2.113" stroke-dasharray="6 6"/>
<path d="M76.7727 243.446C76.7727 245.115 75.4175 246.471 73.7567 246.471C72.0875 246.471 70.7324 245.115 70.7324 243.446C70.7324 241.777 72.0875 240.421 73.7567 240.421C75.4175 240.421 76.7727 241.777 76.7727 243.446Z" fill="#FCCC4F"/>
<path d="M647.015 177.013C647.015 178.682 645.66 180.029 643.999 180.029C642.33 180.029 640.975 178.682 640.975 177.013C640.975 175.344 642.33 173.989 643.999 173.989C645.66 173.989 647.015 175.344 647.015 177.013Z" fill="#FCCC4F"/>
<path d="M262.33 121.695C261.793 121.695 261.363 121.265 261.363 120.728V113.935C261.363 113.398 261.793 112.969 262.33 112.969C262.859 112.969 263.289 113.398 263.289 113.935V120.728C263.289 121.265 262.859 121.695 262.33 121.695Z" fill="#FCCC4F"/>
<path d="M265.728 118.29H258.927C258.398 118.29 257.969 117.861 257.969 117.332C257.969 116.795 258.398 116.365 258.927 116.365H265.728C266.256 116.365 266.694 116.795 266.694 117.332C266.694 117.861 266.256 118.29 265.728 118.29Z" fill="#FCCC4F"/>
<path d="M95.832 380.7C95.3032 380.7 94.8652 380.27 94.8652 379.741V372.94C94.8652 372.411 95.3032 371.973 95.832 371.973C96.3608 371.973 96.7988 372.411 96.7988 372.94V379.741C96.7988 380.27 96.3608 380.7 95.832 380.7Z" fill="#FCCC4F"/>
<path d="M99.2296 377.303H92.4375C91.9004 377.303 91.4707 376.874 91.4707 376.337C91.4707 375.808 91.9004 375.378 92.4375 375.378H99.2296C99.7667 375.378 100.196 375.808 100.196 376.337C100.196 376.874 99.7667 377.303 99.2296 377.303Z" fill="#FCCC4F"/>
<path d="M672.281 279.005C671.752 279.005 671.314 278.575 671.314 278.038V271.245C671.314 270.708 671.752 270.279 672.281 270.279C672.81 270.279 673.248 270.708 673.248 271.245V278.038C673.248 278.575 672.81 279.005 672.281 279.005Z" fill="#FCCC4F"/>
<path d="M675.687 275.609H668.887C668.35 275.609 667.92 275.171 667.92 274.642C667.92 274.113 668.35 273.675 668.887 273.675H675.687C676.216 273.675 676.646 274.113 676.646 274.642C676.646 275.171 676.216 275.609 675.687 275.609Z" fill="#FCCC4F"/>
</svg>
